<svg width="237" height="27" viewBox="0 0 237 27" fill="none" xmlns="http://www.w3.org/2000/svg">
<path d="M212.413 21.4142C211.369 22.5312 210.311 23.7708 208.878 25.3928C208.779 25.4989 208.677 25.607 208.549 25.7327C208.484 25.7961 208.412 25.8644 208.318 25.9466C208.217 26.0305 208.128 26.1202 207.838 26.3012C207.748 26.3544 207.671 26.4005 207.494 26.4779C207.411 26.5131 207.32 26.55 207.164 26.5939C207.018 26.6327 206.838 26.6783 206.533 26.687C206.277 26.6963 205.785 26.6486 205.331 26.4089C204.838 26.1616 204.465 25.7294 204.287 25.3934C203.943 24.7137 203.99 24.4183 203.97 24.1954C203.972 23.7862 204.016 23.6657 204.04 23.531C204.069 23.4054 204.092 23.3267 204.114 23.2542C204.199 22.9802 204.259 22.8412 204.318 22.6947C205.143 20.8313 205.976 19.6678 206.859 18.2184C209.091 14.6795 211.527 10.9912 213.611 7.62193C214.263 6.56081 214.858 5.52632 215.337 4.56036C215.575 4.08057 215.785 3.61429 215.939 3.20201C216.094 2.81722 216.18 2.34611 216.164 2.45725C216.173 2.71191 216.17 3.00971 216.425 3.53747C216.687 4.10376 217.355 4.60582 217.834 4.73362C218.375 4.88823 218.561 4.84468 218.772 4.8355C218.984 4.8127 219.052 4.79106 219.14 4.76902C219.442 4.67875 219.447 4.65285 219.486 4.63747C219.532 4.61178 219.477 4.64178 219.43 4.6727C219.323 4.74204 219.177 4.84587 219.033 4.9516C218.919 5.03519 218.799 5.12511 218.683 5.21312C217.119 6.41111 215.587 7.65751 213.792 9.06565C213.79 9.06734 213.788 9.06904 213.786 9.07073C211.093 11.1724 207.756 13.0763 203.377 16.2481C202.481 16.9183 201.547 17.637 200.565 18.4307C200.077 18.8255 199.577 19.2399 199.062 19.6778C198.803 19.8974 198.548 20.1178 198.268 20.3579C198.131 20.4752 197.987 20.5998 197.809 20.7453C197.71 20.8245 197.632 20.8926 197.425 21.0365C197.38 21.0672 197.299 21.1214 197.198 21.1787C197.154 21.2032 197.068 21.2507 196.961 21.2983C196.844 21.3447 196.75 21.4024 196.386 21.4746C196.201 21.5027 196.046 21.5321 195.679 21.4945C195.283 21.4541 194.737 21.2504 194.344 20.8742C193.596 20.1488 193.609 19.4037 193.59 19.2467C193.583 18.6961 193.638 18.6521 193.666 18.4923C193.854 17.8125 194.035 17.5604 194.182 17.2825C194.33 17.0243 194.465 16.8079 194.596 16.5992C194.858 16.1832 195.107 15.7929 195.358 15.3873C195.858 14.582 196.352 13.7408 196.85 12.8404C197.129 12.3351 197.413 11.8275 197.708 11.308C198.505 9.8751 199.33 8.45103 200.155 7.04982C200.568 6.34889 200.981 5.65385 201.38 4.96821C201.578 4.62753 201.774 4.28733 201.944 3.97342C202.031 3.81371 202.11 3.66138 202.164 3.54734C202.191 3.48998 202.211 3.44171 202.206 3.45281C202.203 3.46361 202.194 3.47863 202.168 3.58447C202.158 3.63182 202.138 3.71386 202.126 3.87224C202.125 3.99327 202.077 4.32887 202.303 4.87174C202.427 5.17329 202.727 5.58986 203.123 5.83785C203.522 6.0949 203.883 6.15878 204.101 6.18042C204.562 6.21086 204.677 6.1496 204.789 6.12913C204.969 6.07814 204.965 6.0679 204.967 6.0698C204.951 6.07623 204.853 6.1284 204.758 6.18496C204.558 6.30249 204.321 6.45421 204.084 6.6095C203.607 6.9226 203.12 7.25679 202.627 7.59748C202.103 7.96028 201.575 8.32961 201.045 8.7019C196.376 11.9866 191.79 15.3961 186.877 18.6364C186.42 18.9303 185.952 19.2261 185.433 19.5212C185.165 19.6716 184.896 19.8194 184.532 19.9811C184.348 20.0601 184.147 20.1474 183.811 20.2356C183.628 20.279 183.433 20.3294 183.06 20.3347C182.902 20.3364 182.614 20.3177 182.33 20.2348C181.997 20.1398 181.61 19.9533 181.269 19.6161C180.928 19.2774 180.745 18.9076 180.644 18.5848C180.558 18.3114 180.532 18.0418 180.528 17.883C180.52 17.5241 180.562 17.3272 180.597 17.1486C180.67 16.8117 180.744 16.6184 180.816 16.4275C180.959 16.0605 181.092 15.7884 181.224 15.5202C181.491 14.988 181.75 14.5208 182.012 14.0502C182.891 12.4835 183.781 10.972 184.639 9.46003C185.068 8.70368 185.489 7.95293 185.884 7.20976C186.079 6.84037 186.27 6.47075 186.43 6.13034C186.512 5.95652 186.583 5.79687 186.632 5.67158C186.654 5.61494 186.671 5.56136 186.666 5.57932C186.664 5.58774 186.652 5.62371 186.638 5.73024C186.631 5.78731 186.619 5.89516 186.627 6.0536C186.636 6.17367 186.652 6.58576 186.956 7.0705C187.164 7.41046 187.552 7.75234 187.95 7.9138C188.348 8.07583 188.596 8.08581 188.829 8.08726C189.057 8.08311 189.207 8.04837 189.288 8.02941C189.38 8.00681 189.451 7.98299 189.508 7.96161C189.713 7.88022 189.734 7.85327 189.758 7.84173C189.79 7.81961 189.736 7.85585 189.686 7.89672C189.574 7.98696 189.425 8.11877 189.273 8.25953C188.969 8.54186 188.645 8.86232 188.323 9.18632C187.677 9.83753 187.024 10.5194 186.369 11.2021C185.056 12.5704 183.731 13.9561 182.333 15.3192C179.715 17.8439 177.01 20.2081 173.759 22.2432C173.574 22.355 173.384 22.468 173.148 22.5931C173.027 22.6566 172.898 22.7226 172.719 22.7991C172.515 22.8672 172.393 22.9885 171.671 23.0512C171.449 23.0549 171.214 23.064 170.78 22.9227C170.405 22.8164 169.809 22.3925 169.562 21.9503C169.278 21.4731 169.242 21.1519 169.215 20.8781C169.198 20.6622 169.215 20.4631 169.23 20.3498C169.307 19.8586 169.392 19.7086 169.459 19.5286C169.595 19.2019 169.708 18.9965 169.821 18.7879C170.268 17.9911 170.684 17.3651 171.117 16.7024C173.828 12.6291 176.636 8.70649 179.325 4.75905C179.548 4.42962 179.767 4.10275 179.978 3.77956C180.079 3.6248 180.186 3.45865 180.276 3.31331C180.32 3.24172 180.363 3.17105 180.397 3.11278C180.421 3.07717 180.473 2.95234 180.39 3.1497C180.378 3.18217 180.353 3.24721 180.327 3.34798C180.33 3.41938 180.177 3.63791 180.329 4.38065C180.404 4.69136 180.613 5.15482 181.036 5.50575C181.243 5.67923 181.485 5.81093 181.714 5.88936C181.976 5.97457 182.06 5.97979 182.213 5.9982C182.761 6.0406 183.04 5.91604 183.202 5.85924C183.409 5.77509 183.502 5.71087 183.565 5.67062C183.738 5.55045 183.71 5.55929 183.715 5.55773C183.703 5.56809 183.65 5.62024 183.595 5.67687C183.485 5.78928 183.355 5.9296 183.23 6.0667C182.974 6.34695 182.712 6.64354 182.449 6.94295C179.71 10.0801 176.964 13.32 174.026 16.4353C173.098 17.4155 172.155 18.3797 171.144 19.3284C170.637 19.8023 170.117 20.2714 169.528 20.7418C169.229 20.9779 168.924 21.2111 168.519 21.4633C168.31 21.5891 168.098 21.7184 167.729 21.8636C167.528 21.936 167.318 22.0195 166.89 22.0576C166.687 22.0721 166.389 22.0726 166.035 21.9717C165.659 21.869 165.224 21.6163 164.927 21.2674C164.34 20.5295 164.38 20.0748 164.34 19.7737C164.326 19.4805 164.351 19.2831 164.374 19.1158C164.424 18.7823 164.489 18.5511 164.553 18.3325C164.685 17.8989 164.826 17.5454 164.97 17.1993C165.259 16.5129 165.564 15.8869 165.878 15.2696C166.508 14.0395 167.171 12.863 167.856 11.6996C168.544 10.5318 169.252 9.38928 169.96 8.26092C170.314 7.69761 170.669 7.13629 171.015 6.58327C171.188 6.30671 171.357 6.03425 171.516 5.7687C171.594 5.63921 171.672 5.50625 171.735 5.39516C171.765 5.34029 171.793 5.2878 171.808 5.25977C171.814 5.24733 171.817 5.2394 171.808 5.26215C171.804 5.27106 171.793 5.29757 171.777 5.34638C171.766 5.38503 171.72 5.48702 171.693 5.75937C171.683 5.94588 171.653 6.24189 171.852 6.72562C171.932 6.94799 172.277 7.44867 172.691 7.66769C173.1 7.91327 173.562 7.94527 173.7 7.94157C174.096 7.93749 174.306 7.85079 174.439 7.80169C174.528 7.76568 174.59 7.73394 174.639 7.70749C174.82 7.60344 174.816 7.59283 174.84 7.57717C174.868 7.55391 174.84 7.57629 174.816 7.59849C174.761 7.64935 174.681 7.72722 174.601 7.80759C174.439 7.97067 174.265 8.15408 174.091 8.33862C173.741 8.70947 173.385 9.09554 173.027 9.48176C172.31 10.2561 171.584 11.0368 170.835 11.8124C168.633 14.0914 166.302 16.2563 163.786 18.2407C162.946 18.901 162.09 19.5422 161.162 20.1569C160.697 20.4631 160.216 20.7635 159.671 21.0512C159.395 21.1952 159.104 21.3376 158.752 21.4717C158.374 21.593 158.048 21.7831 157.141 21.7474C156.814 21.72 156.326 21.6181 155.858 21.2583C155.386 20.9015 155.124 20.3734 155.03 20.0182C154.851 19.2843 154.948 18.9405 154.991 18.6176C155.108 18.0093 155.271 17.6055 155.428 17.21C155.752 16.4303 156.104 15.7607 156.463 15.1022C156.708 14.6515 156.961 14.2059 157.22 13.7631C157.284 13.654 157.349 13.5432 157.416 13.4307C159.465 9.97694 161.936 6.39722 164.007 2.89433C164.111 2.7093 164.208 2.53049 164.284 2.37607C164.321 2.30071 164.353 2.23022 164.368 2.1925C164.375 2.17691 164.377 2.16692 164.368 2.19691C164.363 2.25134 164.318 2.23197 164.315 2.6755C164.346 2.82121 164.27 3.54094 165.218 4.19358C165.68 4.46255 165.988 4.47117 166.247 4.47323C166.486 4.46428 166.579 4.43627 166.687 4.40887C167.021 4.303 167.015 4.26967 167.054 4.25394C167.09 4.22974 167.034 4.2683 166.981 4.31322C166.867 4.4078 166.72 4.54367 166.575 4.68382C165.981 5.26052 165.358 5.93413 164.755 6.59717C161.157 10.6037 157.767 14.6755 154.757 17.9986C153.996 18.8381 153.256 19.6336 152.522 20.3735C152.052 20.8455 151.577 21.308 151.048 21.7654C150.78 21.9958 150.504 22.2226 150.164 22.4577C149.796 22.6836 149.505 22.9697 148.565 23.1584C148.23 23.2042 147.53 23.2725 146.803 22.7212C146.109 22.1516 146.016 21.5334 145.961 21.2159C145.888 20.5531 145.977 20.2595 146.032 19.9429C146.16 19.3496 146.319 18.9125 146.48 18.4744C146.806 17.6149 147.152 16.8567 147.502 16.1165C150.024 10.9622 152.327 6.98673 154.239 3.44602C154.554 2.86522 154.859 2.30463 155.114 1.79012C155.178 1.6618 155.234 1.54299 155.277 1.44484C155.297 1.3976 155.313 1.35613 155.316 1.35003C155.317 1.34741 155.314 1.35774 155.305 1.39997C155.302 1.46978 155.247 1.48708 155.299 1.92408C155.327 2.11515 155.49 2.7502 156.168 3.09871C156.87 3.39916 157.087 3.25168 157.29 3.2275C157.565 3.14882 157.601 3.10266 157.639 3.0851C157.697 3.0475 157.664 3.06568 157.637 3.08726C157.577 3.13371 157.475 3.22195 157.383 3.30548C156.908 3.74851 156.403 4.27179 155.898 4.79467C151.721 9.16469 147.606 13.6765 143.292 18.0439C142.341 19.0002 141.375 19.9496 140.354 20.877C139.845 21.337 139.316 21.7999 138.735 22.2494C138.443 22.4737 138.134 22.7 137.768 22.9221C137.579 23.0351 137.377 23.1485 137.107 23.2602C136.824 23.3528 136.523 23.5468 135.732 23.4344C135.265 23.384 134.593 22.8834 134.413 22.4382C134.204 22.0021 134.2 21.7181 134.189 21.4948C134.185 21.0547 134.247 20.7969 134.303 20.5384C134.422 20.0391 134.566 19.643 134.715 19.2457C135.014 18.4658 135.339 17.7483 135.671 17.0348C137.106 14.0087 138.634 11.11 140.35 8.22213C141.215 6.88682 141.699 5.76947 143.352 4.24828C143.406 4.20994 143.474 4.16095 143.609 4.09714C143.746 4.04202 143.954 3.92701 144.413 3.96704C144.879 3.97628 145.51 4.4868 145.626 4.88459C145.781 5.33651 145.724 5.32816 145.739 5.4373C145.733 5.77169 145.681 5.85908 145.658 5.94721C145.597 6.11479 145.591 6.10989 145.575 6.14604C145.549 6.20004 145.52 6.252 145.508 6.27218C145.481 6.31962 145.446 6.37788 145.428 6.40778C145.38 6.48493 145.338 6.54945 145.294 6.61796C145.209 6.74656 145.128 6.86644 145.041 6.99289C144.875 7.2343 144.713 7.46303 144.543 7.69878C144.212 8.15979 143.873 8.61704 143.532 9.06776C142.852 9.96853 142.155 10.8574 141.451 11.7328C140.036 13.4897 138.589 15.1965 137.098 16.8813C134.96 19.218 132.603 21.1331 129.329 22.2793C129.171 22.3244 128.981 22.3572 128.761 22.3463C128.535 22.3393 128.214 22.2538 127.977 22.0991C127.742 21.9507 127.579 21.7649 127.469 21.5926C127.369 21.4361 127.32 21.3168 127.277 21.1953C127.141 20.762 127.157 20.5518 127.15 20.3273C127.153 19.912 127.195 19.6182 127.242 19.3015C127.335 18.6982 127.458 18.1432 127.584 17.5937C127.841 16.4964 128.121 15.442 128.398 14.3834C128.949 12.279 129.508 10.1853 129.88 8.13199C129.873 8.20143 129.839 8.30204 129.902 8.58883C129.947 8.78604 130.094 9.09296 130.368 9.30088C130.639 9.50868 130.899 9.56046 131.084 9.57278C131.278 9.58191 131.365 9.55665 131.417 9.54685C131.474 9.53384 131.512 9.52073 131.539 9.51058C131.597 9.4883 131.596 9.48594 131.601 9.48373C131.596 9.48409 131.488 9.55461 131.4 9.62193C131.204 9.76911 130.983 9.95761 130.766 10.1491C130.33 10.536 129.888 10.9554 129.451 11.3801C128.572 12.2347 127.709 13.1117 126.846 13.9975C125.118 15.7704 123.411 17.5779 121.667 19.3688C120.766 20.2899 119.853 21.2023 118.875 22.0911C118.385 22.5337 117.881 22.973 117.311 23.3975C117.021 23.6107 116.721 23.8204 116.343 24.024C115.947 24.1919 115.568 24.541 114.499 24.3734C113.84 24.2583 113.266 23.5745 113.145 23.1695C112.984 22.7463 112.966 22.4182 112.953 22.1485C112.937 21.5922 112.997 21.1507 113.061 20.7167C113.195 19.8569 113.377 19.0722 113.553 18.2934C113.904 16.748 114.271 15.2317 114.386 13.8181C114.42 13.3791 114.425 12.953 114.38 12.5939C114.391 12.651 114.395 12.7364 114.502 12.9153C114.602 13.0897 114.831 13.2704 115.019 13.3288C115.379 13.4287 115.396 13.3521 115.373 13.3723C115.301 13.3894 115.082 13.4893 114.875 13.6115C114.452 13.8571 113.993 14.1846 113.545 14.5234C112.641 15.2098 111.753 15.9607 110.867 16.7257C109.082 18.2606 107.392 19.8587 105.47 21.4272C105.019 21.7837 104.585 22.1278 104.074 22.4868C103.791 22.6684 103.631 22.8353 103.018 23.0721C102.91 23.1053 102.834 23.134 102.617 23.1566C102.45 23.1666 102.072 23.1948 101.64 22.8913C101.187 22.5548 101.095 22.1082 101.07 21.9143C101.044 21.6997 101.062 21.5676 101.074 21.4677C101.138 21.0843 101.213 20.9373 101.28 20.758C101.819 19.5332 102.375 18.6471 102.933 17.6543C105.194 13.7397 107.504 9.87224 109.847 6.01131C110.515 4.91371 111.187 3.81468 111.874 2.72424C112.144 2.29781 112.417 1.87063 112.697 1.44646C112.84 1.23095 112.972 1.03023 113.143 0.78952C113.164 0.761204 113.156 0.770706 113.206 0.705416C113.214 0.694721 113.224 0.682529 113.244 0.659557C113.254 0.647772 113.266 0.633394 113.288 0.610025C113.299 0.598215 113.313 0.584076 113.333 0.564936C113.345 0.554232 113.346 0.551016 113.404 0.501921C113.464 0.459482 113.51 0.393612 113.787 0.282705C113.928 0.237289 114.176 0.145273 114.592 0.256342C115.021 0.35791 115.392 0.815395 115.46 1.09219C115.604 1.65718 115.485 1.74879 115.476 1.85804C115.421 2.0341 115.4 2.05512 115.383 2.09351C115.352 2.15281 115.339 2.17135 115.333 2.18181C115.329 2.18908 115.325 2.19505 115.322 2.20042C115.309 2.22146 115.3 2.23522 115.29 2.25018C115.267 2.28431 115.242 2.32044 115.223 2.34709C115.181 2.40838 115.141 2.46421 115.105 2.51479C115.025 2.62591 114.952 2.72518 114.871 2.83418C114.256 3.66028 113.614 4.4518 112.952 5.22742C109.349 9.37349 105.479 13.1566 101.418 16.7897C99.6313 18.3738 97.8053 19.9086 95.8859 21.3662C94.1078 22.6661 92.5979 23.9724 90.145 24.8715C89.6591 24.9759 88.9178 25.278 87.8852 24.5898C86.9364 23.7751 87.0353 22.9637 87.0061 22.4807C87.038 21.4634 87.2652 20.7319 87.4518 20.0125C88.2529 17.199 89.6982 14.9931 91.0286 12.8998C91.6782 11.9017 92.3319 10.9447 92.9859 10.0065C93.8258 8.80806 94.694 7.71895 95.5666 6.672C96.0022 6.15082 96.4425 5.63944 96.8849 5.14306C97.108 4.89306 97.332 4.64614 97.5623 4.40053C97.6836 4.27158 97.7933 4.15618 97.9267 4.02209C97.9917 3.95701 98.0554 3.89358 98.1457 3.81028C98.1853 3.77461 98.2326 3.72872 98.3416 3.64449C98.3762 3.61836 98.4159 3.58903 98.4772 3.55035C98.4931 3.54036 98.5079 3.53131 98.5302 3.51838C98.5731 3.49378 98.6254 3.46516 98.7035 3.43149C98.8681 3.39785 99.0911 3.15474 99.9153 3.424C100.501 3.63087 100.859 4.36307 100.857 4.68644C100.887 5.03926 100.828 5.19299 100.798 5.30935C100.759 5.42995 100.747 5.45265 100.725 5.50307C100.686 5.58869 100.657 5.63888 100.632 5.68303C98.3091 8.83671 96.2992 10.9579 94.236 13.1192C93.4745 13.9013 92.6859 14.6796 91.8655 15.443C88.5316 18.5194 84.84 21.3015 80.7154 23.5719C80.2631 23.8101 79.8254 24.0398 79.2481 24.261C79.0976 24.3168 78.9415 24.371 78.7383 24.4221C78.5267 24.4657 78.3026 24.5451 77.7889 24.4903C77.5334 24.4566 77.1124 24.3456 76.7458 23.9982C76.3802 23.6523 76.2486 23.2404 76.2012 23.0021C76.1179 22.513 76.1703 22.3435 76.1737 22.2023C77.2501 17.2423 78.934 13.6988 80.4141 9.8284C81.5881 6.76361 83.6096 3.38616 84.6254 1.63396C84.6173 1.66339 84.6068 1.70356 84.5961 1.76795C84.5909 1.80029 84.5856 1.83891 84.582 1.88746C84.5807 1.92404 84.5676 2.01557 84.5931 2.20537C84.6209 2.3832 84.6866 2.6733 84.9525 2.97993C85.1965 3.29445 85.7713 3.51353 86.0818 3.48819C86.3977 3.48849 86.6289 3.3815 86.6503 3.37378C86.7167 3.34585 86.7656 3.32008 86.8051 3.29765C86.9639 3.2024 86.9714 3.18293 86.9982 3.16305C87.0198 3.14433 87.0276 3.1363 87.0297 3.1343C87.0371 3.12603 87.0017 3.16258 86.9713 3.19719C85.8695 4.52935 84.7337 6.10759 83.7261 7.43796C83.2084 8.13835 82.6879 8.84084 82.1641 9.54288C80.4889 11.8057 79.0553 14.4443 77.2487 16.9627C74.8839 20.0066 72.8976 23.084 68.485 25.0344C68.1473 25.1399 67.4901 25.208 66.8992 24.8424C66.3228 24.4732 66.1553 24.0475 66.0435 23.771C65.8511 23.2094 65.8595 22.8779 65.8476 22.5479C65.845 21.9086 65.9168 21.3904 65.9985 20.8703C66.1682 19.8416 66.4073 18.8852 66.6729 17.9362C66.8679 17.3103 67.0793 16.6879 67.3063 16.0627C67.4939 15.5462 67.6917 15.0257 67.9012 14.4994C69.3846 10.7947 71.7246 7.03893 75.1695 3.21621C75.2693 3.10674 75.3737 2.99543 75.5291 2.86049C75.6079 2.79378 75.6954 2.71979 75.8504 2.6254C75.9299 2.57875 76.0281 2.52228 76.1959 2.46573C76.363 2.42133 76.6566 2.30243 77.1783 2.485C77.4289 2.57799 77.6687 2.77414 77.8035 2.9639C77.9368 3.14721 77.9953 3.30776 78.0315 3.43535C78.0957 3.68073 78.0886 3.81728 78.0859 3.9348C78.0738 4.1553 78.04 4.2812 78.0086 4.39964C77.9435 4.62883 77.8707 4.79372 77.7908 4.95641C76.2298 7.80196 74.4652 10.4205 72.6592 13.6001C71.4455 15.7361 69.8298 17.8688 67.9264 19.8545C67.9174 19.864 67.9083 19.8736 67.8992 19.8831C66.0764 21.643 64.7685 23.3806 61.5666 24.9761C61.3577 25.0275 61.1728 25.0965 60.7254 25.0132C60.3242 24.9604 59.8067 24.4978 59.6995 24.2054C59.437 23.5851 59.5306 23.3691 59.5317 23.1368C59.5775 22.7126 59.6619 22.4401 59.7458 22.1582C59.9182 21.6074 60.1182 21.1181 60.3271 20.6321C60.7461 19.6666 61.2138 18.7249 61.7044 17.7827C62.6909 15.8965 63.7832 13.9921 64.9869 12.0454C65.6658 10.9499 66.4097 9.88166 67.1916 8.82068C68.0155 7.69938 68.8048 6.71638 69.4069 5.89677C69.4975 5.77158 69.5841 5.64967 69.6631 5.53413C69.7008 5.47911 69.7397 5.42073 69.7693 5.37454C69.7837 5.35217 69.7971 5.3305 69.8038 5.31942C69.8067 5.31487 69.8081 5.31226 69.8033 5.32213C69.7931 5.35673 69.7997 5.28208 69.7204 5.56007C69.7094 5.62327 69.702 5.5981 69.6891 5.80356C69.6873 5.89361 69.6891 6.01369 69.7363 6.18462C69.7603 6.26963 69.7973 6.36751 69.857 6.47182C69.904 6.56237 70.0585 6.76563 70.2254 6.87714C70.5811 7.13009 70.9683 7.12947 71.1632 7.09514C71.3118 7.06872 71.3583 7.04789 71.4256 7.02313C71.5439 6.97573 71.6105 6.93232 71.6508 6.90645C71.7642 6.82934 71.7835 6.80351 71.8025 6.78728C71.8367 6.75437 71.8356 6.75336 71.8373 6.75162C71.837 6.75119 71.823 6.76681 71.8084 6.7844C71.7786 6.81991 71.7413 6.86745 71.7055 6.91465C71.6322 7.01122 71.5577 7.1153 71.4855 7.2199C70.0056 9.38129 68.9128 10.8565 67.9363 12.1187C67.4813 12.7071 67.0478 13.2555 66.6075 13.8064C65.6498 15.0042 64.6682 16.2489 63.5682 17.5812C62.9126 18.3734 62.188 19.1682 61.359 19.9591C60.741 20.5422 60.1029 21.1169 59.2773 21.6905C59.1464 21.778 59.0079 21.8693 58.7999 21.9689C58.6888 22.0191 58.5679 22.0768 58.3372 22.1238C58.2166 22.145 58.0685 22.1679 57.8369 22.1357C57.6143 22.1083 57.2873 21.9759 57.0714 21.7527C56.644 21.2805 56.6815 20.9743 56.6496 20.8007C56.6362 20.6182 56.6459 20.5013 56.6544 20.3957C56.6738 20.1892 56.7012 20.0406 56.727 19.8959C57.0946 18.0874 57.7326 16.5138 58.4086 14.7001C59.0023 13.1526 59.6683 11.507 60.3887 9.73505C61.0947 7.97571 61.8485 6.17284 62.2486 4.7715C62.2512 4.76388 62.2463 4.77711 62.2434 4.8402C62.2441 4.85304 62.2337 4.9592 62.2761 5.12334C62.2985 5.20754 62.3368 5.31611 62.4156 5.43864C62.5049 5.59173 62.7471 5.81495 62.9916 5.89135C63.2278 5.97882 63.4834 5.95182 63.5447 5.9384C63.6309 5.92337 63.6939 5.9026 63.7424 5.88393C63.8371 5.84681 63.8868 5.81263 63.9017 5.80301C63.9354 5.78009 63.9374 5.77549 63.9279 5.78332C63.8889 5.81344 63.779 5.92426 63.6826 6.03106C63.4804 6.25442 63.2882 6.4862 63.0815 6.74057C62.685 7.22982 62.2955 7.73252 61.9156 8.22464C61.1597 9.20543 60.434 10.1591 59.73 11.0627C58.3026 12.868 57.0644 14.506 55.4923 15.9103C55.2863 16.0837 55.1423 16.1997 54.91 16.3595C54.7934 16.4385 54.6832 16.5067 54.5607 16.5719C54.392 16.6588 54.2492 16.7263 54.0075 16.7831C53.86 16.8156 53.6904 16.8345 53.4977 16.813C53.3246 16.8007 52.9996 16.6964 52.7976 16.523C52.3822 16.1814 52.309 15.7538 52.2789 15.591C52.2439 15.3747 52.2489 15.1933 52.256 15.0619C52.2638 14.921 52.2832 14.7728 52.3 14.6679C52.4632 13.7464 52.7246 13.0605 52.9683 12.377C53.4689 11.028 53.9846 9.84511 54.4658 8.74822C54.9494 7.65196 55.4048 6.65407 55.8341 5.7135C56.0424 5.25652 56.2573 4.78745 56.4496 4.36024C56.5483 4.14123 56.6478 3.91894 56.7303 3.7278C56.7802 3.61333 56.8177 3.52427 56.8562 3.4292C56.8769 3.37823 56.8923 3.33767 56.9003 3.31347C56.9063 3.29683 56.9099 3.28363 56.9037 3.29997C56.9007 3.30826 56.8955 3.32312 56.8875 3.35378C56.8928 3.35161 56.8532 3.4128 56.8545 3.67603C56.87 3.81067 56.8461 4.07054 57.1671 4.47084C57.3263 4.66205 57.605 4.83261 57.8628 4.88389C58.1222 4.93979 58.3305 4.9069 58.4708 4.86961C58.7603 4.77573 58.7215 4.7392 58.6991 4.78215C58.6664 4.81988 58.6035 4.9001 58.5403 4.99064C57.7504 6.19716 56.9542 7.68798 56.1096 8.99382C55.9962 9.17256 55.881 9.35419 55.7647 9.53728C54.1807 11.9712 52.4754 14.8769 50.0212 17.8689C49.7831 18.118 49.6161 18.3459 49.0888 18.6867C48.9294 18.7745 48.7748 18.8807 48.3736 18.9508C48.1794 18.9798 47.9017 18.9859 47.5974 18.8811C47.2964 18.7808 47.0334 18.5724 46.881 18.3834C46.5833 18.0009 46.5535 17.765 46.5063 17.5817C46.4688 17.398 46.4604 17.2681 46.4549 17.148C46.449 16.2727 46.5873 15.7805 46.6912 15.2087C47.2352 12.6356 48.1374 10.3981 48.9247 8.38806C49.2387 7.59813 49.6081 6.67637 49.9971 5.66381C49.9925 5.67761 49.9875 5.68624 49.9715 5.75065C49.9642 5.78456 49.9565 5.81059 49.9476 5.90062C49.9464 5.9869 49.9164 6.08508 50.0063 6.38741C50.0472 6.51327 50.1508 6.74209 50.3663 6.93151C50.5849 7.12529 50.8305 7.20756 51.0131 7.23466C51.4238 7.27466 51.4777 7.21054 51.5946 7.18317C51.747 7.12705 51.779 7.09722 51.8054 7.08244C51.8804 7.02936 51.8094 7.07961 51.7701 7.11962C51.6726 7.21177 51.5495 7.34362 51.4284 7.48076C51.1839 7.75763 50.9283 8.07368 50.675 8.40025C50.1645 9.05909 49.6458 9.78278 49.1257 10.5411C46.7721 13.817 44.9203 17.5112 41.4272 20.8699C41.2168 21.0077 41.0146 21.1592 40.5458 21.2698C40.3028 21.3209 39.9705 21.3405 39.6109 21.2205C39.244 21.102 38.9466 20.8446 38.7858 20.6334C38.4618 20.1957 38.4186 19.8979 38.3622 19.6663C38.3144 19.4279 38.2986 19.2354 38.2888 19.0508C38.2649 17.1369 38.7007 15.4516 39.1759 13.424C39.6022 11.6936 40.1062 9.79515 40.6962 7.7732C40.9088 7.04421 41.1313 6.3045 41.3626 5.5509C41.4779 5.17487 41.5966 4.79222 41.7112 4.41716C41.7693 4.22645 41.8255 4.04076 41.8766 3.86289C41.9029 3.77118 41.9261 3.68706 41.9437 3.61659C41.952 3.58372 41.9591 3.55123 41.9597 3.54711C41.9601 3.54546 41.9585 3.55018 41.9543 3.58537C41.9519 3.60764 41.9484 3.64067 41.9478 3.69711C41.9523 3.74703 41.9286 3.89406 42.0443 4.209C42.082 4.29359 42.1027 4.37377 42.2639 4.57532C42.3539 4.68232 42.4894 4.81061 42.684 4.91345C42.9054 5.03479 43.2145 5.09801 43.4663 5.07298C43.917 5.02764 44.1312 4.83817 44.2068 4.78556C44.3054 4.70744 44.3498 4.65493 44.3754 4.62654C44.4752 4.50496 44.4472 4.52767 44.4433 4.54012C44.4208 4.57979 44.3751 4.67164 44.331 4.7668C44.241 4.96031 44.1434 5.18553 44.0462 5.41019C43.8516 5.8611 43.6476 6.33659 43.4384 6.8083C43.0167 7.76056 42.5649 8.72317 42.0725 9.69262C41.2955 11.2082 40.4231 12.6361 39.5108 14.0848C38.4196 15.8065 37.3593 17.3799 36.3217 18.8406C34.9814 20.6764 33.7215 22.3451 31.8629 23.644C31.6751 23.7638 31.2932 24.0025 30.6578 23.9009C30.0059 23.7824 29.6418 23.3166 29.5118 23.057C29.4401 22.9198 29.4029 22.8055 29.3789 22.7185C29.3653 22.6688 29.3555 22.6245 29.3478 22.5841C29.3326 22.5036 29.3254 22.4386 29.3208 22.3816C29.3072 22.1415 29.3171 22.1171 29.3225 22.0102C29.3338 21.8621 29.3514 21.7411 29.3653 21.648C29.3976 21.4376 29.4296 21.2709 29.4623 21.1037C29.5283 20.7702 29.5991 20.4467 29.6658 20.1454C29.8039 19.5251 29.9374 18.9478 30.0676 18.378C30.3281 17.2407 30.5657 16.1817 30.7786 15.1726C31.2034 13.1592 31.5295 11.3648 31.7375 9.74048C31.7293 9.84695 31.688 10.0178 31.7972 10.3993C31.8497 10.6445 32.2124 11.235 32.7414 11.4258C32.8665 11.4772 32.9903 11.5098 33.1037 11.528C33.2 11.543 33.2608 11.5467 33.331 11.5485C33.466 11.5511 33.5771 11.5373 33.6685 11.5199C33.8509 11.4836 33.9588 11.436 34.0366 11.4C34.0854 11.3767 34.1181 11.3584 34.146 11.342C34.2005 11.3097 34.2289 11.2885 34.2442 11.2773C34.2878 11.2434 34.2473 11.2762 34.2128 11.3122C34.1362 11.3893 34.0361 11.4992 33.9312 11.6194C33.7283 11.8522 33.5242 12.1011 33.3193 12.356C32.9149 12.8601 32.521 13.3721 32.1418 13.8717C31.0909 15.2591 30.1248 16.5847 29.1707 17.9098C28.6439 18.6423 28.0953 19.4109 27.5383 20.2002C26.9862 20.9805 26.4165 21.7739 25.7693 22.6C25.4465 23.0088 25.1079 23.4283 24.6879 23.8714C24.4672 24.0976 24.2586 24.3191 23.8643 24.6054C23.6439 24.7415 23.4573 24.9359 22.772 25.0746C22.4482 25.1386 21.8098 25.1033 21.327 24.7728C20.8459 24.4506 20.657 24.0802 20.5461 23.8364C20.3241 23.2832 20.3404 23.0133 20.3207 22.7544C20.3121 22.504 20.323 22.2997 20.3384 22.1033C20.3702 21.7187 20.4242 21.3769 20.4838 21.0478C20.6049 20.3908 20.7564 19.7722 20.9192 19.1613C21.2474 17.939 21.6249 16.7526 22.0278 15.5632C22.2692 14.8521 22.5208 14.1419 22.7772 13.4365C23.8224 10.6115 24.8246 7.92592 26.1485 5.10026C26.1664 5.06519 26.1861 5.02787 26.2126 4.98148C26.226 4.9582 26.2412 4.93255 26.2601 4.9024C26.2753 4.88138 26.3026 4.82396 26.4316 4.66852C26.4995 4.59203 26.5826 4.49076 26.7919 4.34091C26.8988 4.26729 27.0418 4.17828 27.2657 4.101C27.3887 4.06193 27.4733 4.03307 27.6988 4.00877C27.952 3.98371 28.2696 4.01518 28.5603 4.13126C29.1656 4.36991 29.4676 4.83988 29.5842 5.10133C29.7076 5.37998 29.7264 5.54826 29.7434 5.67347C29.7573 5.79642 29.7566 5.88301 29.7554 5.94105C29.7549 5.96315 29.754 5.98322 29.753 6.00176C29.7441 6.14689 29.7304 6.21514 29.7196 6.27798C29.6879 6.44256 29.667 6.51021 29.6492 6.57857C29.6103 6.72092 29.5774 6.82785 29.5447 6.93364C29.4776 7.14891 29.4104 7.35104 29.3432 7.54877C29.2082 7.94532 29.0699 8.33067 28.9288 8.71194C28.6459 9.47547 28.3537 10.2169 28.0487 10.9474C27.4348 12.4076 26.7964 13.8058 26.0024 15.1594C25.2528 16.4259 24.4345 17.5609 23.6028 18.5736C22.2977 20.1167 20.8784 21.5269 19.1665 22.7693C19.0381 22.8611 18.8768 22.9597 18.658 23.0421C18.4152 23.1358 18.0147 23.2193 17.5933 23.1448C16.6232 22.9565 16.2654 22.3189 16.1351 22.1021C15.8602 21.5569 15.8864 21.4074 15.8422 21.1985C15.7943 20.8447 15.7975 20.6297 15.7982 20.4033C15.8047 19.9712 15.8374 19.5995 15.8751 19.2334C15.9524 18.5072 16.0598 17.8159 16.1787 17.1338C16.4191 15.7681 16.7118 14.4347 17.0481 13.1039C17.8176 9.99568 19.3266 6.44221 19.3452 4.60879C19.3566 4.69364 19.3756 4.8167 19.4475 4.99949C19.5048 5.16048 19.7647 5.6638 20.3073 5.9257C20.8838 6.22049 21.4739 6.0901 21.6241 6.03646C21.8439 5.96719 21.9645 5.88722 22.0126 5.85759C22.2402 5.69753 22.17 5.72802 22.1647 5.7428C22.1167 5.79336 22.0107 5.92608 21.9155 6.05573C21.7161 6.32652 21.5036 6.64314 21.2948 6.96292C20.8745 7.6078 20.4574 8.28253 20.0378 8.9633C19.1964 10.3256 18.3683 11.7082 17.4291 13.1074C15.908 15.1375 15.2171 16.9656 12.2009 19.118C12.0202 19.2071 11.804 19.2834 11.5578 19.3194C11.2872 19.3605 10.9812 19.3434 10.7136 19.2695C10.1566 19.1124 9.84824 18.8156 9.65628 18.6053C9.28867 18.1686 9.2155 17.9253 9.10849 17.6761C8.9312 17.2078 8.86115 16.863 8.79088 16.5152C8.65924 15.8237 8.59274 15.2073 8.53403 14.5826C8.4223 13.3437 8.36899 12.1449 8.32541 10.9498C8.27728 9.58883 8.25325 8.24837 8.23178 6.93225C8.23021 6.76848 8.21962 6.59816 8.21266 6.54456C8.22673 6.54146 8.15468 6.47385 8.34427 6.85237C8.41264 6.96142 8.50853 7.13798 8.81412 7.35718C9.12517 7.60537 9.78612 7.71639 10.1372 7.60374C10.4993 7.50866 10.6386 7.38742 10.74 7.31358C10.8286 7.24276 10.8736 7.19308 10.9017 7.16188C11.0021 7.04091 10.9618 7.07679 10.9455 7.10873C10.9223 7.14668 10.889 7.20779 10.8551 7.27471C10.7856 7.41159 10.7113 7.57315 10.6367 7.7417C8.53389 12.3762 6.02017 16.2716 3.61501 19.3849C3.39459 19.663 3.19165 19.9301 2.79326 20.2583C2.56367 20.399 2.36214 20.7118 1.48926 20.7103C1.04518 20.6888 0.608627 20.389 0.434998 20.1585C0.244476 19.9227 0.177444 19.7426 0.123199 19.593C0.0627136 19.4149 0.036438 19.2747 0.0166626 19.1466L-1.52588e-05 19.0215C0.0822754 16.2377 0.925751 14.6144 1.47141 13.2485L1.48441 13.2117C2.50761 11.3569 3.02139 10.5608 3.25119 10.5955C3.49854 10.6492 3.34114 11.8195 2.76866 13.6985L2.77713 13.6744C2.52425 15.0003 2.02081 16.9437 2.1933 18.8416L2.18051 18.7456C2.19258 18.7879 2.20711 18.8206 2.21176 18.8195C2.21329 18.818 2.21602 18.7904 2.149 18.7021C2.09387 18.6178 1.86975 18.4553 1.65129 18.4451C1.22879 18.453 1.29083 18.5364 1.30516 18.4863C1.37569 18.4111 1.52919 18.2076 1.66058 17.9967C3.66895 14.8386 5.91397 10.8649 7.73428 6.51219C7.81607 6.31208 7.90033 6.11156 8.00417 5.89071C8.12614 5.65772 8.16588 5.4819 8.5334 5.03232C8.66774 4.91946 8.71712 4.7166 9.39301 4.50308C9.73061 4.39762 10.3306 4.49833 10.629 4.73308C10.9208 4.94159 11.0294 5.1263 11.1107 5.25918C11.357 5.73565 11.3319 5.87151 11.3738 6.04992C11.4242 6.37203 11.4339 6.60789 11.4437 6.84636C11.4929 8.16385 11.5363 9.49244 11.5941 10.8204C11.6457 11.9841 11.7081 13.1449 11.8189 14.2688C11.8753 14.8298 11.9433 15.3797 12.0422 15.8734C12.0898 16.1118 12.1524 16.3466 12.2007 16.4642C12.2154 16.5154 12.2624 16.5468 12.137 16.3916C12.0678 16.3178 11.9175 16.1542 11.5811 16.058C11.4206 16.0133 11.2318 16.0031 11.074 16.0273C10.9301 16.0483 10.8127 16.0916 10.7272 16.1337C11.7475 15.4099 13.4043 13.0416 14.6176 11.2222C15.4633 9.94165 16.2818 8.55569 17.1161 7.17975C17.5353 6.48776 17.9548 5.79613 18.4048 5.09349C18.631 4.74193 18.8609 4.39054 19.1289 4.01968C19.264 3.83513 19.4034 3.64555 19.6111 3.41421C19.665 3.35518 19.7188 3.29756 19.8014 3.21926C19.877 3.14938 19.9718 3.05992 20.1486 2.94479C20.2195 2.89985 20.3761 2.80235 20.6021 2.73213C20.7646 2.67459 21.3229 2.5583 21.8486 2.82868C22.3447 3.06674 22.5975 3.54042 22.6605 3.71593C22.7362 3.90766 22.7632 4.0579 22.7797 4.18518C22.6694 8.51646 21.1155 10.9012 20.4748 13.9594C20.168 15.2111 19.9003 16.4767 19.688 17.7362C19.5831 18.3624 19.4908 18.9949 19.4314 19.5959C19.4021 19.8942 19.3809 20.1943 19.3796 20.438C19.3781 20.5561 19.3868 20.6737 19.3892 20.6776C19.3769 20.6605 19.4253 20.6748 19.2662 20.3524C19.1901 20.2309 18.9417 19.7556 18.1939 19.6078C17.871 19.5508 17.5706 19.6158 17.4007 19.6815C17.2466 19.7396 17.1432 19.8047 17.0697 19.8571C18.8152 18.5696 20.4268 16.8627 21.7547 15.0454C22.1659 14.48 22.5506 13.8989 22.9057 13.3024C23.6048 12.1181 24.2213 10.7713 24.7894 9.41626C25.0722 8.7383 25.3439 8.04836 25.5995 7.35882C25.7274 7.01343 25.8517 6.66688 25.9673 6.32755C26.0263 6.15396 26.0806 5.98975 26.1309 5.82793C26.1536 5.7548 26.1776 5.67468 26.1927 5.61796C26.1976 5.60323 26.2069 5.5496 26.1891 5.64301C26.1839 5.68657 26.1732 5.70123 26.1689 5.88886C26.1839 6.01349 26.1231 6.16703 26.367 6.68399C26.4918 6.93123 26.8205 7.34112 27.353 7.50699C27.6091 7.58982 27.8735 7.60195 28.0834 7.57464C28.2321 7.55524 28.3312 7.52728 28.4289 7.49414C28.8046 7.35481 28.9371 7.21272 29.0386 7.12465C29.1345 7.03301 29.1807 6.97317 29.2166 6.92712C29.292 6.82509 29.285 6.82871 29.2998 6.80678C29.3104 6.78966 29.3179 6.7768 29.3237 6.76668C29.3352 6.74656 29.34 6.73713 29.342 6.73333C27.91 9.82563 26.569 13.3609 25.397 16.7237C25.017 17.837 24.6605 18.95 24.3605 20.0519C24.2112 20.6029 24.0764 21.1511 23.9787 21.669C23.9305 21.9258 23.8919 22.1779 23.874 22.3868C23.865 22.4898 23.8622 22.5823 23.8641 22.6307C23.8565 22.668 23.9041 22.7097 23.7964 22.4232C23.7417 22.3066 23.6397 22.0765 23.3086 21.8357C22.9742 21.5858 22.4937 21.5309 22.2757 21.5673C21.8191 21.6468 21.8442 21.7152 21.8263 21.7088C21.8378 21.7038 21.984 21.5785 22.1102 21.4459C22.3777 21.1696 22.6733 20.8153 22.9608 20.454C23.5378 19.7268 24.1092 18.9422 24.673 18.152C25.8346 16.5232 27.0135 14.9018 28.2159 13.2922C28.8186 12.4865 29.4245 11.6867 30.0566 10.8826C30.3728 10.4811 30.6927 10.0812 31.0366 9.67358C31.2061 9.47339 31.388 9.26232 31.5944 9.04272C31.7021 8.9294 31.8099 8.81576 31.981 8.66406C32.0838 8.57996 32.1506 8.50079 32.4559 8.3261C32.5117 8.2977 32.6638 8.20885 32.9305 8.14302C33.0648 8.11122 33.2345 8.08373 33.4517 8.09367C33.5949 8.08791 34.1233 8.18711 34.4468 8.44953C34.7975 8.7074 34.998 9.06696 35.0822 9.3231C35.1343 9.47696 35.1574 9.60739 35.1699 9.71764C35.193 9.93799 35.178 10.0837 35.1631 10.2027C34.6206 14.2003 33.5979 18.0923 32.7749 21.7729C32.7458 21.9154 32.7188 22.0555 32.7003 22.1728C32.6922 22.2219 32.6855 22.2802 32.6864 22.2739C32.6856 22.2569 32.693 22.2808 32.684 22.1187C32.6806 22.0777 32.6751 22.0252 32.6614 21.9528C32.6543 21.9161 32.6457 21.8769 32.6317 21.8259C32.6067 21.737 32.5697 21.6243 32.4931 21.4795C32.3557 21.2075 31.9539 20.7022 31.2462 20.5799C30.5594 20.4755 30.16 20.7325 29.9761 20.8487C31.2482 19.9953 32.5048 18.4233 33.625 16.8908C35.6243 14.091 37.6252 11.1357 39.1769 8.2086C39.626 7.33393 40.0482 6.44697 40.453 5.54202C40.6555 5.09005 40.8524 4.6354 41.057 4.16374C41.1602 3.9269 41.2623 3.69058 41.3856 3.42458C41.4483 3.29111 41.5106 3.15663 41.6156 2.96673C41.6782 2.86176 41.7152 2.77292 41.9097 2.53166C41.9636 2.46922 42.0208 2.39937 42.1609 2.27958C42.2351 2.21923 42.2868 2.17507 42.4368 2.08661C42.585 2.00198 42.7854 1.91181 43.0493 1.86725C43.3373 1.81241 43.7615 1.84851 44.0809 1.99728C44.3885 2.13648 44.5678 2.30105 44.7076 2.45545C44.9632 2.76168 44.9889 2.87704 45.0555 3.02602C45.212 3.44929 45.1771 3.67907 45.1825 3.74647C45.1806 3.84157 45.1734 3.91243 45.1663 3.97114C45.1559 4.05575 45.1415 4.13347 45.1318 4.18189C45.111 4.28474 45.0925 4.35929 45.0738 4.43289C45.0386 4.56961 45.0046 4.68868 44.9711 4.80413C44.9045 5.03238 44.8386 5.24732 44.7741 5.45719C44.642 5.88575 44.5151 6.29321 44.3873 6.70946C44.1326 7.53817 43.885 8.36536 43.6455 9.19495C43.1653 10.8579 42.7191 12.5205 42.2989 14.2011C42.0266 15.2941 41.7737 16.3923 41.6033 17.4415C41.52 17.9595 41.4575 18.4917 41.462 18.8642C41.4628 18.9515 41.4695 19.0276 41.4733 19.0503C41.4674 19.0673 41.5065 19.0499 41.3488 18.7807C41.2663 18.6507 41.0784 18.4234 40.7591 18.2783C40.4424 18.1316 40.1249 18.1359 39.9565 18.1662C39.6257 18.2363 39.6355 18.2853 39.6401 18.2712C39.6484 18.2658 39.6762 18.2453 39.705 18.2216C40.4099 17.6083 41.3426 16.3708 42.14 15.2877C43.6496 13.1752 45.0882 10.9572 46.5677 8.7731C47.0743 8.02821 47.5875 7.29879 48.1388 6.57098C48.4153 6.20716 48.6971 5.84755 49.0127 5.47827C49.1724 5.29259 49.3356 5.10722 49.5468 4.89694C49.6638 4.78508 49.7571 4.68295 50.019 4.49222C50.1035 4.43541 50.162 4.38777 50.3738 4.28561C50.4646 4.24592 50.6136 4.17225 50.9032 4.12371C51.1243 4.07763 52.0281 4.0233 52.6599 4.78794C52.9504 5.16058 52.995 5.38082 53.0497 5.59718C53.0719 5.70107 53.0829 5.795 53.0881 5.87404C53.092 5.93319 53.0929 5.98699 53.0921 6.03643C53.0876 6.23702 53.0615 6.3583 53.0453 6.43732C53.004 6.61983 52.9765 6.68831 52.9442 6.77786C51.7351 10.0389 50.4937 13.1148 49.9709 15.84C49.923 16.098 49.8805 16.3458 49.8513 16.5649C49.821 16.7737 49.8109 17.0064 49.816 16.995C49.815 16.9856 49.8171 16.9543 49.7918 16.8455C49.7521 16.7398 49.748 16.509 49.3392 16.086C49.1392 15.8854 48.7831 15.6879 48.4667 15.6312C48.1523 15.5689 47.9093 15.6039 47.7617 15.636C47.4583 15.7106 47.3868 15.7762 47.3326 15.804C47.1938 15.9041 47.3853 15.7507 47.4942 15.6158C48.4456 14.483 49.4209 12.9867 50.2661 11.7241C51.3494 10.088 52.3354 8.55705 53.2741 7.13334C53.8262 6.29687 54.328 5.49472 54.8265 4.6948C55.0784 4.2927 55.3234 3.89688 55.6118 3.47109C55.7584 3.25714 55.912 3.03586 56.1319 2.77313C56.3975 2.5245 56.5089 2.13348 57.6278 1.74226C57.9781 1.61419 58.9163 1.63663 59.4791 2.20835C60.0233 2.7543 60.0489 3.21557 60.0833 3.44782C60.1137 3.91399 60.0403 4.05418 60.0347 4.11359C60.0184 4.18108 60.0038 4.22988 59.9904 4.27249C59.9637 4.35653 59.9411 4.41613 59.9185 4.47406C59.8856 4.55733 59.8633 4.60882 59.8339 4.67642C59.7701 4.82188 59.739 4.88732 59.6845 5.00425C59.5928 5.1997 59.493 5.40598 59.4094 5.57725C59.2233 5.95901 59.0534 6.30149 58.8793 6.65347C58.5343 7.35058 58.2051 8.01614 57.889 8.66626C57.2635 9.95333 56.6936 11.1622 56.1925 12.3382C55.9456 12.919 55.7113 13.5026 55.5199 14.0553C55.4279 14.3214 55.3422 14.5917 55.279 14.8405C55.2165 15.0461 55.1965 15.3685 55.1993 15.1854C55.1892 15.1227 55.2009 15.0698 55.1042 14.8238C55.0561 14.7106 54.9787 14.5687 54.8529 14.4235C54.7175 14.2641 54.504 14.0985 54.2804 14.0036C54.1696 13.9551 54.0531 13.9209 53.9538 13.9016C53.8707 13.8853 53.7926 13.877 53.7219 13.8741C53.5803 13.8684 53.4696 13.8833 53.389 13.8996C53.245 13.9315 53.2175 13.9505 53.1927 13.96C53.1657 13.9731 53.2218 13.9449 53.3078 13.8818C53.376 13.8323 53.4696 13.7593 53.5859 13.66C54.2067 13.1271 55.0195 12.2003 55.8638 11.1603C56.7213 10.1037 57.6475 8.88405 58.6482 7.55009C59.1508 6.88095 59.6643 6.19162 60.2235 5.46186C60.4974 5.10541 60.7899 4.72755 61.1118 4.33869C61.2709 4.14801 61.4467 3.9386 61.6741 3.70541C61.835 3.55999 61.8568 3.4676 62.3757 3.1486C62.4705 3.09671 62.586 3.03953 62.7495 2.98626C62.9326 2.94459 63.0442 2.85006 63.6491 2.91068C64.1887 2.94526 64.8815 3.50644 65.0282 3.83593C65.2012 4.13027 65.2563 4.3744 65.2857 4.55892C65.3335 4.9684 65.301 5.01367 65.2942 5.14092C65.2816 5.2512 65.2647 5.34216 65.2464 5.42654C64.1501 9.15153 62.7478 12.2567 61.3889 15.848C60.7961 17.4173 60.101 19.1467 59.8055 20.5066C59.7851 20.6065 59.7706 20.6974 59.7699 20.7082C59.7686 20.7099 59.7747 20.6962 59.7695 20.5879C59.7386 20.4829 59.8286 20.2405 59.3654 19.6361C59.1295 19.3462 58.6962 19.1174 58.3991 19.0665C58.0981 19.0073 57.9227 19.0338 57.8035 19.0505C57.5773 19.0917 57.5353 19.1249 57.5045 19.1355C57.4582 19.1583 57.5178 19.1293 57.5766 19.0899C58.8383 18.2343 60.1895 16.9474 61.3103 15.6504C62.6984 14.0404 64.0209 12.3787 65.2793 10.6948C66.4873 9.08167 67.6988 7.3491 68.9439 5.51838C69.0428 5.37333 69.1425 5.23211 69.2582 5.0784C69.3163 5.00144 69.3754 4.92463 69.4539 4.83C69.4933 4.78313 69.5346 4.73278 69.6167 4.64645C69.6404 4.62185 69.6596 4.60188 69.7045 4.55932C69.7468 4.522 69.791 4.47166 69.9599 4.35567C70.0031 4.32726 70.1061 4.25913 70.2598 4.1938C70.3394 4.16031 70.4384 4.1236 70.5745 4.09321C70.7339 4.05649 71.2222 3.97576 71.7445 4.23177C72.0026 4.35518 72.2423 4.56111 72.3982 4.77553C72.5442 4.97956 72.5877 5.08954 72.6414 5.2287C72.7349 5.49174 72.7464 5.68395 72.7488 5.82696C72.7409 6.14459 72.7197 6.14508 72.7056 6.23365C72.6331 6.51986 72.6156 6.51678 72.5861 6.59449C72.4389 6.90205 72.4114 6.91599 72.3485 7.02173C72.2943 7.10638 72.244 7.18137 72.1936 7.25517C72.0939 7.40086 71.9985 7.53477 71.9016 7.66865C70.3342 9.74078 68.8313 11.5804 67.541 13.6235C66.6155 15.0848 65.7246 16.576 64.8913 18.0678C64.301 19.1268 63.7329 20.1958 63.2374 21.2409C62.9912 21.7621 62.7607 22.282 62.5839 22.7656C62.4981 22.9994 62.4252 23.24 62.4007 23.368C62.38 23.4117 62.4214 23.5013 62.3636 23.1809C62.347 23.1128 62.2996 22.9528 62.1867 22.7853C62.0847 22.6213 61.8395 22.3901 61.588 22.2903C61.3607 22.1911 61.1266 22.1766 61.0069 22.1847C60.8888 22.1913 60.8082 22.2114 60.7547 22.2273C62.1502 21.5435 64.4253 19.4512 65.879 17.9595C67.8632 15.9328 69.2944 13.9612 70.2789 12.2295C70.6756 11.5411 71.0375 10.9199 71.3577 10.3701C72.6072 8.18863 74.1277 5.8634 75.2865 3.71677C75.3063 3.67792 75.3198 3.63701 75.3141 3.65427C75.3119 3.66712 75.301 3.68576 75.2928 3.801C75.2917 3.86527 75.2814 3.94361 75.3261 4.14263C75.3645 4.3104 75.5267 4.78641 76.0696 5.05059C76.5998 5.28317 76.9102 5.161 77.0435 5.13132C77.1896 5.08519 77.2437 5.05005 77.2854 5.02699C77.3595 4.98188 77.3611 4.97461 77.36 4.9767C77.3512 4.98361 77.3009 5.03245 77.2511 5.08823C74.4719 8.1823 72.0494 11.7656 70.6266 15.5165C70.1109 16.8804 69.6599 18.253 69.3065 19.5955C69.1097 20.3489 68.9426 21.0947 68.8505 21.7847C68.8051 22.1231 68.7826 22.4689 68.7986 22.6756C68.7971 22.7703 68.8522 22.8533 68.7592 22.6648C68.7118 22.576 68.5396 22.3515 68.2462 22.2466C67.9508 22.1422 67.7485 22.1938 67.6702 22.2151C70.641 20.9122 73.265 17.5166 74.9136 15.2737C75.6574 14.2331 76.2737 13.2504 76.791 12.4118C77.7626 10.8366 78.6764 9.30987 79.8143 7.77931C80.5844 6.74994 81.3683 5.70007 82.2086 4.58175C82.6285 4.02335 83.0602 3.45023 83.5201 2.84931C83.7506 2.54856 83.9826 2.24769 84.2354 1.929C84.3589 1.77375 84.491 1.60929 84.6344 1.43937C84.7057 1.35547 84.779 1.26936 84.8826 1.15865C84.9392 1.10053 84.9719 1.05934 85.1152 0.935806C85.1529 0.905401 85.1749 0.88368 85.2795 0.813549C85.328 0.782108 85.387 0.746178 85.4731 0.706066C85.5254 0.695831 85.7308 0.5334 86.2647 0.58412C86.5207 0.609396 86.873 0.771057 87.0709 0.978151C87.2728 1.17707 87.3771 1.39865 87.4288 1.56502C87.5272 1.90389 87.4872 2.07729 87.4887 2.12153C87.4754 2.26533 87.4531 2.34759 87.4341 2.4178C87.1693 3.18957 86.9684 3.40308 86.7537 3.79355C85.5013 5.83685 84.2456 8.0507 83.0972 10.8968C82.1753 13.1818 81.1584 15.7465 80.146 18.6604C79.684 20.0152 79.1804 21.5113 79.0439 22.4385C79.0283 22.5382 79.0547 22.6198 79.0175 22.4056C78.9971 22.3041 78.8991 22.0397 78.6618 21.8527C78.4274 21.6675 78.2239 21.643 78.1389 21.634C77.9636 21.627 78.0112 21.6431 78.0509 21.6281C78.0991 21.6162 78.1745 21.5918 78.2552 21.5615C78.5902 21.4346 78.9816 21.2397 79.3608 21.0402C83.3138 18.8754 86.3172 16.574 88.8268 14.4465C89.2265 14.1039 89.6139 13.7621 89.9907 13.4198C93.1387 10.5185 95.8834 7.5625 98.3557 4.34309C98.3464 4.36128 98.3271 4.38429 98.285 4.49784C98.2907 4.50109 98.2093 4.62974 98.2291 4.94843C98.2422 5.10916 98.3091 5.38481 98.5387 5.61817C98.6495 5.73201 98.7896 5.81976 98.9196 5.87005C99.0196 5.90892 99.1017 5.92637 99.1789 5.93668C99.4854 5.96767 99.6136 5.90369 99.7024 5.87572C99.7868 5.84338 99.836 5.81391 99.8568 5.80203C99.965 5.73474 99.9452 5.74053 99.9467 5.74172C99.9343 5.75251 99.9042 5.78027 99.8724 5.81101C99.809 5.87221 99.7326 5.94949 99.6642 6.02021C99.52 6.16928 99.3671 6.33305 99.2211 6.4923C98.9218 6.81878 98.6234 7.15561 98.3204 7.50572C97.7154 8.20556 97.1049 8.94293 96.4914 9.72912C96.0276 10.3242 95.5733 10.931 95.1504 11.5419C93.1079 14.5547 90.8974 17.649 90.0141 20.7313C89.8254 21.4133 89.6599 22.1061 89.6613 22.5493C89.6605 22.6514 89.6761 22.7286 89.676 22.7199C89.6794 22.7207 89.6273 22.5721 89.4691 22.4635C89.3126 22.3572 89.206 22.3674 89.2249 22.3657C89.2371 22.366 89.3197 22.3555 89.4212 22.3253C91.2235 21.6603 93.2917 20.0563 94.9707 18.7931C96.4787 17.634 98.0764 16.3022 99.7059 14.8578C100.802 13.8862 101.913 12.8628 103.026 11.8046C105.766 9.19064 108.552 6.37578 110.999 3.55871C111.407 3.08488 111.802 2.61002 112.18 2.1365C112.371 1.89794 112.556 1.66182 112.738 1.42234C112.828 1.304 112.918 1.18377 113.003 1.06897C113.047 1.00821 113.088 0.952215 113.127 0.897327C113.144 0.873217 113.169 0.837614 113.17 0.836519C113.169 0.838049 113.167 0.841446 113.161 0.851376C113.158 0.856058 113.162 0.848164 113.143 0.880943C113.134 0.897255 113.123 0.914486 113.095 0.972586C113.081 1.00458 113.062 1.0406 113.03 1.14363C113.015 1.19804 112.993 1.26678 112.982 1.41138C112.983 1.55016 112.932 1.81698 113.224 2.24578C113.37 2.45078 113.634 2.6353 113.876 2.70149C114.121 2.7723 114.318 2.75623 114.453 2.73252C114.722 2.67731 114.817 2.60502 114.894 2.56191C115.028 2.4757 115.077 2.41991 115.084 2.41518C115.111 2.39034 115.127 2.37384 115.139 2.3605C115.164 2.33431 115.175 2.32058 115.185 2.30968C115.24 2.24146 115.214 2.27204 115.219 2.26683C115.215 2.27186 115.205 2.28478 115.197 2.29595C114.793 2.86742 114.394 3.4801 114.009 4.07154C112.358 6.63168 110.938 8.88093 109.657 10.9041C109.165 11.6823 108.695 12.4301 108.243 13.1557C107.129 15.0339 106.018 16.9208 104.937 18.8042C104.433 19.6892 103.9 20.6012 103.508 21.4365C103.464 21.5396 103.423 21.6456 103.399 21.7231C103.386 21.7647 103.379 21.7972 103.379 21.8022C103.371 21.794 103.422 21.8161 103.364 21.5094C103.34 21.4184 103.301 21.3122 103.201 21.1819C103.104 21.0518 102.935 20.9348 102.814 20.8896C102.537 20.7894 102.429 20.828 102.359 20.8324C102.248 20.8529 102.266 20.8561 102.283 20.8433C102.328 20.8187 102.425 20.7585 102.521 20.6913C102.957 20.3857 103.452 19.9755 103.971 19.5427C105.773 18.0023 107.854 15.9162 110.496 13.6596C111.221 13.0454 111.938 12.4578 112.733 11.8948C113.136 11.6149 113.533 11.3464 114.057 11.0907C114.339 10.9664 114.583 10.8273 115.145 10.7672C115.426 10.7493 115.9 10.7553 116.374 11.1333C116.59 11.3057 116.756 11.5532 116.84 11.7516C116.919 11.9336 116.958 12.1074 116.979 12.2676C117.188 14.5904 116.649 16.3808 116.268 18.1908C116.064 19.083 115.851 19.961 115.699 20.7923C115.625 21.2034 115.566 21.6167 115.56 21.937C115.554 22.0925 115.575 22.2315 115.576 22.2284C115.573 22.2261 115.562 22.1704 115.475 22.0678C115.392 21.9653 115.213 21.8605 115.093 21.8387C114.783 21.7981 114.886 21.8566 115 21.7895C115.122 21.7369 115.292 21.6393 115.462 21.5269C115.805 21.3003 116.171 21.0105 116.528 20.7103C117.636 19.7718 118.727 18.6971 119.829 17.5813C122.32 15.0508 124.868 12.3006 127.841 9.37301C128.248 8.97775 128.675 8.56872 129.132 8.1629C129.371 7.95161 129.595 7.75664 129.885 7.53769C129.952 7.48693 130.029 7.43073 130.117 7.37206C130.198 7.31771 130.294 7.25569 130.425 7.18781C130.488 7.15641 130.556 7.12115 130.685 7.07587C130.826 7.04201 130.892 6.97027 131.34 7.00608C131.545 7.03514 131.797 7.11423 132.039 7.33681C132.27 7.55007 132.381 7.82555 132.419 8.01539C132.469 8.271 132.446 8.43893 132.424 8.57831C131.871 11.752 130.922 14.9765 130.201 18.1342C130.084 18.6619 129.974 19.1919 129.903 19.6789C129.867 19.924 129.844 20.1577 129.845 20.3177C129.842 20.3878 129.869 20.4595 129.831 20.3206C129.817 20.2789 129.796 20.2224 129.745 20.1401C129.686 20.0451 129.585 19.9218 129.428 19.8202C129.269 19.7127 129.047 19.652 128.902 19.6472C128.761 19.6395 128.654 19.6606 128.582 19.6808C130.999 18.8213 133.391 16.9025 135.013 15.0471C136.48 13.369 137.791 11.8032 138.897 10.4513C139.987 9.11706 140.939 7.9691 141.844 6.82407C141.848 6.81898 141.852 6.81389 141.856 6.80882C141.919 6.72892 141.976 6.65682 142.039 6.57546C142.25 6.28449 142.464 5.98357 142.666 5.69057C142.769 5.54117 142.868 5.39561 142.964 5.25109C143.009 5.18136 143.058 5.10663 143.097 5.04361C143.12 5.00767 143.135 4.98299 143.15 4.95711C143.155 4.94778 143.16 4.93745 143.155 4.9475C143.151 4.95559 143.149 4.95829 143.13 5.00008C143.116 5.04021 143.089 5.07654 143.053 5.26717C143.046 5.31746 143.037 5.3808 143.038 5.47241C143.04 5.52276 143.04 5.55666 143.054 5.64808C143.078 5.79513 143.14 6.02276 143.34 6.25171C143.535 6.48362 143.87 6.63173 144.108 6.65079C144.351 6.67559 144.508 6.63201 144.615 6.59877C144.825 6.52526 144.888 6.46761 144.944 6.43079C144.325 7.00591 143.387 8.4536 142.694 9.62445C141.077 12.387 139.566 15.3022 138.214 18.2121C137.902 18.8938 137.601 19.5773 137.353 20.24C137.23 20.5705 137.12 20.9004 137.059 21.1723C137.028 21.3017 137.016 21.4319 137.02 21.4237C137.015 21.4149 137.035 21.3602 136.942 21.1604C136.87 20.9545 136.477 20.6614 136.268 20.6494C135.925 20.6099 135.982 20.6685 136.028 20.6333C136.086 20.6092 136.188 20.5559 136.294 20.4904C136.506 20.3604 136.749 20.183 136.986 19.9976C137.463 19.6231 137.95 19.193 138.421 18.7599C139.372 17.8835 140.307 16.9518 141.229 16.0101C142.381 14.8324 143.525 13.6247 144.662 12.414C145.327 11.6928 145.996 10.9623 146.659 10.2364C149.189 7.46762 151.639 4.74115 153.599 2.59851C154.161 1.98888 154.66 1.44169 155.196 0.914255C155.286 0.826267 155.389 0.728468 155.518 0.616077C155.58 0.562645 155.653 0.500603 155.75 0.427876C155.867 0.350912 155.906 0.282551 156.306 0.116175C156.395 0.085453 156.566 0.016798 156.87 0.00698662C157.061 -0.0436821 157.922 0.182209 158.21 0.650881C158.369 0.8603 158.451 1.06923 158.495 1.2365C158.532 1.38555 158.54 1.46635 158.547 1.55898C158.557 1.74132 158.544 1.84261 158.535 1.91901C158.487 2.23889 158.444 2.32658 158.404 2.45558C158.326 2.68147 158.254 2.84718 158.18 3.0167C157.888 3.66988 157.563 4.30203 157.198 5.01405C155.549 8.25042 153.044 12.7872 150.769 17.6344C150.46 18.3125 150.164 18.9964 149.923 19.6532C149.79 20.017 149.671 20.3897 149.619 20.6525C149.589 20.7658 149.604 20.9121 149.592 20.7111C149.57 20.6236 149.566 20.2658 149.082 19.845C148.848 19.6511 148.56 19.5548 148.374 19.5295C148.18 19.5021 148.074 19.5172 148.002 19.5267C147.695 19.6 147.91 19.5531 148.039 19.4441C148.19 19.338 148.377 19.186 148.562 19.0235C148.937 18.6939 149.324 18.3136 149.707 17.921C150.472 17.1358 151.221 16.3063 151.951 15.4808C153.562 13.6529 155.089 11.8441 156.478 10.2023C158.288 8.06374 160.052 6.0776 161.953 4.05271C161.972 4.0324 161.991 4.01218 162.01 3.99205C162.633 3.33555 163.261 2.67685 163.986 1.99433C164.17 1.82319 164.358 1.65022 164.593 1.45785C164.721 1.35522 164.831 1.26451 165.046 1.12553C165.163 1.0563 165.273 0.972719 165.597 0.859102C165.699 0.825539 165.823 0.792154 165.984 0.772835C166.14 0.753111 166.467 0.740469 166.809 0.861925C167.193 0.973413 167.646 1.3876 167.788 1.68125C167.955 1.97301 168.004 2.27996 168.015 2.39474C168.043 2.70718 168.01 2.84983 167.992 2.97061C167.967 3.10432 167.951 3.16082 167.928 3.23945C167.886 3.38038 167.847 3.481 167.813 3.56405C167.739 3.74443 167.675 3.87577 167.61 4.00489C167.48 4.26319 167.354 4.48866 167.223 4.71639C166.763 5.50964 166.291 6.25733 165.809 7.03145C165.032 8.27239 164.2 9.59569 163.321 11.0089C162.549 12.2522 161.735 13.5648 160.922 14.9337C160.799 15.141 160.648 15.3937 160.482 15.6776C160.159 16.229 159.757 16.9181 159.353 17.7106C159.154 18.1013 158.949 18.5326 158.81 18.9149C158.742 19.0946 158.694 19.2992 158.696 19.2951C158.684 19.2805 158.748 19.2141 158.584 18.8081C158.5 18.6138 158.283 18.3372 158.028 18.1898C157.776 18.0383 157.568 18.0073 157.451 17.9974C157.171 17.9912 157.258 18.0191 157.335 17.9856C157.424 17.9579 157.56 17.9032 157.705 17.8345C157.999 17.6957 158.336 17.505 158.681 17.292C159.562 16.7459 160.505 16.0607 161.464 15.3139C162.745 14.3141 164.055 13.1941 165.356 11.988C166.303 11.0908 167.227 10.1663 168.128 9.21838C168.839 8.47108 169.541 7.705 170.249 6.92826C170.604 6.5399 170.959 6.14904 171.327 5.7533C171.511 5.55504 171.697 5.35563 171.901 5.14735C172.004 5.04231 172.108 4.93761 172.241 4.81365C172.306 4.75338 172.376 4.6883 172.497 4.59208C172.564 4.54246 172.608 4.49713 172.821 4.37563C172.876 4.34539 172.942 4.31204 173.031 4.2765C173.162 4.22743 173.358 4.14897 173.711 4.14557C173.834 4.14223 174.242 4.17109 174.599 4.38584C174.961 4.5773 175.263 5.01493 175.333 5.2115C175.51 5.63797 175.485 5.90758 175.475 6.08763C175.45 6.34925 175.396 6.48987 175.377 6.5508C175.353 6.62507 175.324 6.69531 175.309 6.73148C175.272 6.81942 175.241 6.88511 175.213 6.94212C175.156 7.0582 175.108 7.14719 175.06 7.23454C174.966 7.40599 174.874 7.56378 174.785 7.71379C174.605 8.01813 174.431 8.30311 174.255 8.5902C173.903 9.16194 173.553 9.72336 173.207 10.2837C172.515 11.4044 171.834 12.5216 171.183 13.6442C170.08 15.5721 168.869 17.7172 168.29 19.4589C168.262 19.564 168.247 19.6596 168.251 19.6703C168.252 19.6724 168.262 19.6525 168.259 19.5453C168.237 19.4345 168.285 19.1834 167.893 18.6844C167.681 18.4326 167.36 18.2498 167.105 18.1829C166.867 18.1166 166.692 18.1213 166.589 18.1276C166.376 18.1468 166.335 18.1732 166.31 18.177C166.276 18.1862 166.351 18.1459 166.423 18.0928C166.58 17.9832 166.781 17.8202 166.968 17.6562C167.347 17.324 167.707 16.9661 168.025 16.6328C168.587 16.041 169.046 15.496 169.513 14.9295C169.909 14.449 170.306 13.9539 170.773 13.3797C171.056 13.0308 171.365 12.6527 171.712 12.2315C172.429 11.3627 173.299 10.3507 173.911 9.69206C174.196 9.38577 174.424 9.1572 174.631 8.9501C174.868 8.71219 175.079 8.49959 175.318 8.22355C175.491 8.02416 175.659 7.80698 175.866 7.53899C176.196 7.11123 176.625 6.55495 177.324 5.74108C177.842 5.13847 178.378 4.51373 178.936 3.87514C179.2 3.57327 179.469 3.26713 179.753 2.95339C179.897 2.79463 180.045 2.63351 180.215 2.45612C180.303 2.36593 180.392 2.27401 180.524 2.14986C180.596 2.08451 180.656 2.02349 180.842 1.8807C180.898 1.83974 180.935 1.81111 181.043 1.74202C181.102 1.70526 181.171 1.66425 181.262 1.61798C181.377 1.56562 181.382 1.5423 181.734 1.43355C181.891 1.39033 182.091 1.34662 182.364 1.33979C182.5 1.33687 182.655 1.34429 182.827 1.37238C182.918 1.388 182.984 1.40055 183.111 1.43623C183.242 1.47352 183.378 1.52407 183.513 1.58957C184.069 1.84385 184.532 2.38717 184.715 2.82854C184.921 3.33882 184.896 3.44896 184.923 3.63392C184.95 3.96803 184.917 4.17015 184.89 4.32581C184.866 4.45305 184.852 4.50214 184.833 4.57106C184.753 4.83706 184.722 4.88679 184.683 4.98155C184.644 5.06737 184.624 5.10619 184.597 5.16099C184.548 5.25673 184.507 5.33006 184.472 5.392C184.399 5.5219 184.333 5.63117 184.272 5.72929C184.148 5.93261 184.026 6.12137 183.91 6.30091C183.672 6.6668 183.437 7.01772 183.2 7.36767C182.132 8.94403 181.041 10.5076 179.961 12.0629C178.231 14.5564 176.508 17.0232 175.028 19.2656C174.601 19.918 174.171 20.5865 173.897 21.0914C173.835 21.2031 173.779 21.3333 173.799 21.286C173.804 21.2697 173.817 21.237 173.838 21.1544C173.855 21.0616 173.905 20.9356 173.886 20.5388C173.863 20.3037 173.842 20.0209 173.583 19.5499C173.361 19.1195 172.8 18.6645 172.406 18.5309C171.549 18.247 171.349 18.3996 171.165 18.4065C170.877 18.471 170.893 18.4889 170.883 18.4877C170.886 18.4864 170.926 18.4667 170.97 18.4427C171.063 18.3922 171.189 18.3179 171.319 18.2383C171.383 18.1987 171.453 18.1549 171.519 18.1135C173.66 16.7496 176.386 14.562 179.071 11.981C180.51 10.5979 181.984 9.07242 183.485 7.53316C184.08 6.92378 184.676 6.31384 185.302 5.69827C185.616 5.39019 185.934 5.08281 186.295 4.75893C186.471 4.60244 186.668 4.42894 186.912 4.24174C187.045 4.14113 187.183 4.03622 187.415 3.89919C187.571 3.81479 187.657 3.74885 188.04 3.61995C188.13 3.59197 188.232 3.56495 188.353 3.54312C188.507 3.51529 188.721 3.49118 188.973 3.5094C189.392 3.49004 190.445 3.91311 190.827 4.61586C191.073 5.00937 191.149 5.34993 191.184 5.60199C191.212 5.82052 191.209 5.9388 191.205 6.06909C191.189 6.33914 191.166 6.42714 191.141 6.55936C191.091 6.79069 191.042 6.93412 191.001 7.05584C190.912 7.31506 190.833 7.49826 190.755 7.67643C190.597 8.03327 190.443 8.34108 190.287 8.64576C189.982 9.24059 189.672 9.80485 189.369 10.3462C188.761 11.4315 188.165 12.455 187.602 13.4259C187.056 14.3682 186.503 15.3227 185.981 16.263C185.736 16.7054 185.498 17.1432 185.299 17.5472C185.202 17.7441 185.114 17.9398 185.069 18.0618C185.047 18.117 185.038 18.1652 185.058 18.0853C185.066 18.0375 185.089 17.966 185.085 17.737C185.082 17.6337 185.066 17.4429 184.995 17.2199C184.914 16.9631 184.756 16.6442 184.46 16.3565C184.164 16.0692 183.832 15.9169 183.572 15.8449C183.345 15.7806 183.138 15.771 183.041 15.772C182.803 15.7769 182.733 15.8033 182.683 15.8132C182.599 15.8357 182.644 15.8243 182.694 15.7999C182.807 15.7485 182.991 15.6502 183.179 15.5411C183.556 15.3225 183.975 15.0544 184.386 14.7837C184.784 14.5213 185.184 14.2507 185.584 13.9761C189.126 11.5283 192.518 9.02208 195.461 6.98803C196.055 6.57641 196.827 6.1016 197.796 5.51167C198.021 5.3748 198.259 5.2298 198.501 5.08291C199.011 4.77322 199.571 4.43138 200.179 4.05881C200.687 3.70774 201.19 3.36271 201.724 3.01174C201.994 2.83547 202.265 2.66059 202.579 2.47505C202.74 2.38186 202.902 2.28721 203.146 2.17191C203.275 2.11431 203.402 2.04948 203.697 1.96812C203.866 1.93192 204.033 1.86553 204.509 1.89814C204.734 1.92025 205.086 1.98526 205.465 2.22951C205.84 2.46541 206.125 2.85807 206.247 3.15511C206.467 3.68479 206.421 4.03193 206.417 4.18222C206.401 4.37154 206.375 4.48738 206.355 4.57362C206.307 4.76715 206.273 4.85554 206.233 4.96428C206.164 5.14645 206.103 5.27984 206.041 5.40935C205.922 5.65772 205.816 5.8564 205.704 6.0621C205.487 6.45954 205.271 6.83176 205.056 7.19975C204.627 7.93464 204.202 8.64744 203.777 9.36683C202.934 10.795 202.106 12.2236 201.305 13.6642C201.235 13.8081 201.164 13.9536 201.093 14.1009C201.092 14.1032 201.091 14.1056 201.09 14.108C200.961 14.375 200.833 14.6433 200.697 14.9275C200.321 15.7145 199.895 16.5607 199.406 17.4541C199.164 17.8976 198.9 18.3615 198.64 18.8137C198.51 19.0405 198.381 19.2649 198.277 19.4596C198.177 19.6287 198.096 19.8888 198.193 19.6156C198.209 19.5464 198.228 19.4941 198.247 19.2792C198.255 19.1577 198.262 18.995 198.223 18.7525C198.164 18.4177 197.996 17.8012 197.327 17.2934C196.999 17.0476 196.614 16.9135 196.308 16.8691C196.143 16.8447 196.04 16.8432 195.956 16.843C195.868 16.8433 195.788 16.8485 195.717 16.8564C195.436 16.8871 195.239 16.9617 195.176 16.9849C195 17.0521 194.913 17.1049 194.875 17.1259C194.709 17.2254 194.762 17.1972 194.776 17.1807C194.828 17.1347 194.929 17.0454 195.028 16.9559C195.231 16.7723 195.458 16.5652 195.687 16.3598C196.146 15.947 196.635 15.5196 197.149 15.0876C198.169 14.2298 199.295 13.3455 200.512 12.4549C200.905 12.1667 201.306 11.8851 201.716 11.606C203.28 10.5477 204.288 9.97798 205.193 9.45366C206.081 8.94244 206.875 8.49118 207.974 7.76697C208.927 7.13464 210.008 6.37884 211.018 5.54918C211.354 5.2719 211.686 4.99617 212.035 4.70577C212.834 4.04189 213.663 3.34583 214.533 2.63152C214.966 2.276 215.41 1.9143 215.884 1.54504C216.122 1.36033 216.365 1.17457 216.644 0.976971C216.791 0.87409 216.933 0.774702 217.148 0.646582C217.27 0.577618 217.367 0.513353 217.645 0.398657C217.712 0.372236 217.795 0.340477 217.928 0.303839C217.992 0.286394 218.064 0.26943 218.147 0.254795C218.253 0.236292 218.387 0.219585 218.547 0.219118C218.766 0.209663 219.596 0.273836 220.195 0.932018C220.809 1.65404 220.77 2.14301 220.791 2.46651C220.718 3.91702 220.353 4.57606 220.035 5.37828C219.94 5.59687 219.833 5.82788 219.721 6.05918C219.153 7.23457 218.377 8.57035 217.467 9.97575C216.674 11.197 215.805 12.4768 214.921 13.7409C213.457 16.0194 211.972 18.2841 210.527 20.5397C209.714 21.8319 208.765 23.2631 208.287 24.3418C208.25 24.4284 208.216 24.5186 208.215 24.5203C208.214 24.4941 208.236 24.5613 208.26 24.1791C208.255 24.0703 208.281 23.9076 208.134 23.5129C208.05 23.3081 207.896 23.0278 207.58 22.7783C207.265 22.5296 206.906 22.4272 206.636 22.4051C206.148 22.3773 205.977 22.4777 205.856 22.5148C205.741 22.5608 205.687 22.5927 205.643 22.6173C205.495 22.7083 205.517 22.7054 205.516 22.7037C205.522 22.6984 205.545 22.6784 205.571 22.6537C205.624 22.6038 205.691 22.5355 205.76 22.4625C207.412 20.6202 209.291 18.5581 211.209 16.7423C212.962 15.0724 214.758 13.543 216.515 12.0039C217.878 10.8081 219.248 9.61125 220.437 8.39126C221.188 7.61468 221.891 6.80911 222.545 5.96251C222.872 5.53965 223.184 5.10833 223.501 4.65306C223.661 4.42501 223.821 4.19012 224.018 3.92206C224.121 3.78342 224.226 3.64026 224.408 3.4416C224.501 3.34284 224.613 3.22258 224.828 3.06758C225.029 2.93119 225.449 2.64975 226.131 2.69262C226.441 2.71055 226.807 2.85134 227.049 3.04473C227.302 3.24431 227.415 3.42023 227.501 3.56979C227.648 3.84458 227.67 3.98898 227.697 4.11467C227.733 4.3219 227.728 4.42774 227.728 4.50859C227.724 4.67198 227.711 4.75547 227.7 4.83731C227.677 4.99286 227.653 5.10117 227.629 5.20817C227.582 5.41194 227.533 5.58909 227.483 5.76099C227.384 6.10285 227.28 6.4233 227.175 6.73937C226.964 7.37298 226.747 7.98237 226.522 8.59782C225.032 12.6483 223.442 16.6305 221.982 20.6067C221.718 21.3339 221.394 22.2366 221.306 22.6729C221.304 22.6847 221.304 22.6906 221.306 22.6522C221.298 22.6008 221.344 22.5807 221.234 22.2071C221.18 22.0531 221.015 21.6502 220.525 21.3857C220.046 21.1359 219.642 21.2165 219.507 21.2453C219.161 21.3401 219.162 21.386 219.118 21.4047C219.048 21.4608 219.214 21.3241 219.317 21.2141C219.555 20.9706 219.814 20.6745 220.073 20.3736C222.673 17.2923 225.192 14.004 227.8 10.7896C228.293 10.1863 228.78 9.5915 229.364 8.97281C229.485 8.84598 229.611 8.71752 229.763 8.57749C229.937 8.4316 230.015 8.30696 230.5 8.04892C230.65 7.99088 230.812 7.86768 231.339 7.87667C231.603 7.88481 232.01 8.01103 232.289 8.26684C232.561 8.50931 232.678 8.77155 232.737 8.94013C232.847 9.28611 232.83 9.43129 232.832 9.57164C232.829 9.69169 232.818 9.78959 232.807 9.86544C232.758 10.1741 232.701 10.3494 232.644 10.5363C231.273 14.9116 229.152 18.8301 228.237 22.1967C228.209 22.2992 228.195 22.4439 228.193 22.3414C228.188 22.3055 228.195 22.2489 228.132 22.0725C228.098 21.9837 228.04 21.8537 227.899 21.7047C227.761 21.5552 227.529 21.4275 227.342 21.3896C226.957 21.319 226.838 21.4035 226.763 21.4215C226.693 21.4491 226.675 21.4634 226.666 21.4697C226.654 21.4867 226.796 21.389 226.899 21.3048C227.012 21.2153 227.132 21.1136 227.254 21.0096C227.498 20.8003 227.748 20.5799 228.019 20.3555C228.939 19.5939 229.816 18.71 230.613 17.9113C234.481 13.9725 236.542 11.6193 236.875 11.8416C237.211 12.0709 235.755 14.9295 232.256 19.3695C231.518 20.2867 230.738 21.25 229.709 22.2551C229.503 22.4559 229.278 22.688 229.034 22.9313C228.759 23.1879 228.621 23.3934 228.023 23.7943C227.941 23.8427 227.848 23.8969 227.685 23.9586C227.517 24.0073 227.289 24.1319 226.731 24.0266C226.461 23.9706 226.137 23.7919 225.939 23.5772C225.736 23.3631 225.646 23.1664 225.588 23.0185C225.484 22.7243 225.484 22.5722 225.474 22.4472C225.465 21.9973 225.513 21.8552 225.54 21.662C226.425 17.4493 228.348 13.7019 229.54 9.59033C229.571 9.48916 229.594 9.37519 229.587 9.40566C229.585 9.41616 229.58 9.44232 229.579 9.50659C229.583 9.58521 229.558 9.67644 229.662 10.0089C229.693 10.0983 229.732 10.1911 229.803 10.3118C229.88 10.4405 229.989 10.5814 230.132 10.7078C230.433 10.9851 230.878 11.1215 231.152 11.129C231.697 11.1359 231.809 11.0199 231.911 10.9869C232.077 10.9021 232.059 10.8986 232.058 10.904C232.049 10.9116 232.019 10.9379 231.986 10.9692C231.918 11.0342 231.831 11.1232 231.743 11.2174C231.302 11.6946 230.827 12.2802 230.368 12.8561C227.829 16.0567 225.375 19.3412 222.691 22.5951C222.411 22.9272 222.139 23.2494 221.793 23.6121C221.601 23.8018 221.484 23.9598 221.029 24.2823C220.959 24.3285 220.904 24.3646 220.781 24.4288C220.665 24.4853 220.541 24.5511 220.269 24.6164C220.063 24.6617 219.518 24.7605 218.903 24.438C218.274 24.0988 218.047 23.5687 217.966 23.3376C217.875 23.0635 217.865 22.9046 217.854 22.7766C217.845 22.6359 217.848 22.5635 217.851 22.4792C217.86 22.3171 217.875 22.2146 217.889 22.1202C218.142 20.8809 218.42 20.2663 218.697 19.4327C220.144 15.3561 221.691 11.3587 223.109 7.37258C223.32 6.77564 223.523 6.18716 223.71 5.60519C223.802 5.31669 223.892 5.02754 223.966 4.76051C224.003 4.62861 224.037 4.49737 224.057 4.40191C224.068 4.35507 224.075 4.3122 224.072 4.3229C224.072 4.33251 224.066 4.34492 224.063 4.44872C224.064 4.50223 224.057 4.57896 224.092 4.78163C224.119 4.90537 224.138 5.05449 224.301 5.3578C224.396 5.52301 224.522 5.72096 224.81 5.94769C225.084 6.16748 225.503 6.32841 225.854 6.34862C226.26 6.38192 226.602 6.25555 226.761 6.17312C226.936 6.08269 227.004 6.02048 227.048 5.98442C227.129 5.91255 227.111 5.92246 227.091 5.94939C227.042 6.01071 226.945 6.14565 226.847 6.28669C226.65 6.5723 226.429 6.90221 226.201 7.22719C225.797 7.81297 225.368 8.39432 224.92 8.95784C224.351 9.67299 223.767 10.3464 223.163 10.9971C220.171 14.1128 217.231 16.5328 214.568 19.1806C214.394 19.352 214.224 19.5231 214.056 19.6931C213.498 20.2591 212.952 20.8316 212.413 21.4142Z" fill="#9D6A4F" fill-opacity="0.6"/>
</svg>
