<svg width="237" height="27" viewBox="0 0 237 27" fill="none" xmlns="http://www.w3.org/2000/svg">
<path d="M24.5088 5.27391C25.5527 4.15685 26.6109 2.91725 28.044 1.29527C28.1423 1.18924 28.2445 1.0811 28.3729 0.955348C28.4379 0.892022 28.5096 0.823716 28.6038 0.741459C28.7046 0.65762 28.7941 0.56785 29.0838 0.386939C29.1741 0.333689 29.2505 0.287583 29.4276 0.210177C29.5111 0.174991 29.602 0.138086 29.7574 0.0941582C29.9033 0.055408 30.0835 0.0097568 30.3882 0.00106311C30.6442 -0.00821805 31.1367 0.0395427 31.591 0.279182C32.0836 0.526447 32.4565 0.958719 32.6351 1.29466C32.979 1.97437 32.9313 2.26977 32.9512 2.49269C32.9493 2.90193 32.9059 3.02238 32.8813 3.15705C32.8531 3.28272 32.8298 3.36141 32.808 3.43391C32.7222 3.70788 32.6625 3.84689 32.604 3.99338C31.7785 5.85675 30.9455 7.02028 30.0625 8.46966C27.8302 12.0086 25.3948 15.6969 23.3109 19.0662C22.6582 20.1273 22.0637 21.1618 21.5844 22.1277C21.3466 22.6075 21.1369 23.0738 20.983 23.4861C20.8273 23.8709 20.7417 24.342 20.7574 24.2308C20.749 23.9762 20.7515 23.6784 20.4969 23.1506C20.2347 22.5843 19.567 22.0823 19.0881 21.9545C18.5464 21.7999 18.3612 21.8434 18.1493 21.8526C17.9377 21.8754 17.8698 21.897 17.7818 21.9191C17.4794 22.0093 17.4743 22.0352 17.4353 22.0506C17.3895 22.0763 17.4447 22.0463 17.4912 22.0154C17.5982 21.9461 17.7446 21.8422 17.8888 21.7365C18.0028 21.6529 18.1227 21.563 18.2388 21.475C19.8025 20.277 21.3351 19.0306 23.1294 17.6224C23.1316 17.6208 23.1338 17.6191 23.1359 17.6174C25.8284 15.5157 29.1659 13.6118 33.5447 10.44C34.441 9.76979 35.3749 9.05105 36.3562 8.25742C36.8445 7.86256 37.3447 7.4482 37.8597 7.0103C38.1182 6.79066 38.374 6.57026 38.6535 6.33021C38.7905 6.21292 38.935 6.08828 39.1127 5.9428C39.2116 5.86358 39.2896 5.79551 39.4963 5.65161C39.5414 5.62091 39.6226 5.56665 39.7239 5.50939C39.7672 5.48488 39.8535 5.43743 39.9611 5.38981C40.0775 5.34336 40.1721 5.28572 40.5358 5.21349C40.7209 5.18537 40.8758 5.15598 41.2425 5.19356C41.6385 5.23403 42.1848 5.43772 42.5779 5.81394C43.3255 6.53926 43.3124 7.28442 43.3321 7.4414C43.3387 7.99199 43.284 8.03595 43.2559 8.19583C43.0675 8.87561 42.8863 9.12774 42.7395 9.40555C42.5919 9.66383 42.4563 9.8802 42.3256 10.0889C42.0638 10.5049 41.8143 10.8952 41.5634 11.3007C41.0639 12.1061 40.5697 12.9473 40.072 13.8477C39.7929 14.3529 39.5084 14.8606 39.2132 15.3801C38.4162 16.813 37.5919 18.2371 36.7663 19.6383C36.3539 20.3392 35.9406 21.0342 35.5415 21.7199C35.3435 22.0606 35.148 22.4008 34.9775 22.7147C34.8908 22.8744 34.8116 23.0267 34.7577 23.1408C34.7303 23.1981 34.7109 23.2464 34.7155 23.2353C34.7187 23.2245 34.7276 23.2095 34.7533 23.1036C34.7636 23.0563 34.7837 22.9742 34.7953 22.8159C34.7967 22.6948 34.8442 22.3592 34.6187 21.8164C34.4951 21.5148 34.1944 21.0982 33.7991 20.8502C33.4001 20.5932 33.0382 20.5293 32.8208 20.5077C32.3592 20.4772 32.2442 20.5385 32.133 20.559C31.9526 20.61 31.9565 20.6202 31.9551 20.6183C31.9703 20.6119 32.0686 20.5597 32.164 20.5031C32.3638 20.3856 32.6011 20.2339 32.8378 20.0786C33.3144 19.7655 33.8018 19.4313 34.2947 19.0906C34.8191 18.7278 35.3467 18.3585 35.8764 17.9862C40.5459 14.7015 45.1321 11.292 50.0451 8.05174C50.5018 7.75778 50.9697 7.46201 51.4891 7.1669C51.757 7.01648 52.0255 6.86865 52.3896 6.70697C52.5738 6.628 52.7743 6.54067 53.1104 6.45245C53.2932 6.40907 53.4888 6.3587 53.8618 6.35335C54.0193 6.35172 54.308 6.37035 54.5912 6.45326C54.9243 6.54825 55.3112 6.73484 55.6527 7.07196C55.994 7.41065 56.1771 7.7805 56.2778 8.10326C56.364 8.37668 56.39 8.64632 56.394 8.8051C56.4012 9.16404 56.36 9.3609 56.3252 9.53947C56.2514 9.87644 56.1772 10.0697 56.1057 10.2606C55.9627 10.6276 55.83 10.8997 55.6974 11.1679C55.4307 11.7001 55.1718 12.1673 54.9095 12.6379C54.0306 14.2046 53.1411 15.7161 52.2831 17.2281C51.8537 17.9844 51.4327 18.7352 51.038 19.4783C50.8423 19.8477 50.6521 20.2174 50.4914 20.5578C50.4095 20.7316 50.3387 20.8912 50.29 21.0165C50.2675 21.0732 50.2507 21.1267 50.2561 21.1088C50.2577 21.1004 50.2698 21.0644 50.284 20.9579C50.2909 20.9008 50.3029 20.7929 50.2947 20.6345C50.2855 20.5144 50.2693 20.1023 49.9655 19.6176C49.7581 19.2776 49.3692 18.9358 48.9718 18.7743C48.5735 18.6123 48.3255 18.6023 48.0923 18.6008C47.8643 18.605 47.7149 18.6397 47.6341 18.6587C47.5416 18.6813 47.4707 18.7051 47.4137 18.7265C47.2089 18.8079 47.1872 18.8348 47.1642 18.8464C47.1312 18.8685 47.1852 18.8322 47.2352 18.7914C47.3479 18.7011 47.4967 18.5693 47.6486 18.4286C47.953 18.1462 48.2769 17.8258 48.5987 17.5018C49.2442 16.8506 49.8972 16.1686 50.5525 15.486C51.8658 14.1177 53.1908 12.7319 54.5891 11.3689C57.2066 8.84415 59.9119 6.48 63.1628 4.44494C63.3479 4.33308 63.5378 4.22008 63.7735 4.09501C63.8944 4.03153 64.0234 3.96553 64.203 3.88896C64.4064 3.82085 64.5285 3.69963 65.2504 3.63685C65.4731 3.63315 65.7077 3.62406 66.142 3.76536C66.5162 3.87166 67.1129 4.29555 67.3599 4.73777C67.6435 5.21497 67.6794 5.53619 67.7071 5.80995C67.724 6.02588 67.7068 6.22496 67.6914 6.33833C67.6143 6.82952 67.5294 6.9795 67.4632 7.15954C67.3269 7.48622 67.2138 7.69163 67.1003 7.90023C66.6536 8.69701 66.2375 9.32296 65.8043 9.98567C63.0937 14.059 60.2857 17.9816 57.5972 21.929C57.3741 22.2585 57.1547 22.5853 56.9436 22.9085C56.8426 23.0633 56.7358 23.2294 56.6458 23.3748C56.6015 23.4464 56.5588 23.517 56.5251 23.5753C56.5003 23.6109 56.449 23.7358 56.5318 23.5384C56.544 23.5059 56.5683 23.4409 56.5942 23.3401C56.5916 23.2687 56.745 23.0502 56.5924 22.3074C56.5173 21.9967 56.3088 21.5333 55.8852 21.1823C55.679 21.0089 55.4363 20.8772 55.2075 20.7987C54.946 20.7135 54.8612 20.7083 54.7089 20.6899C54.1603 20.6475 53.8815 20.7721 53.7196 20.8289C53.5126 20.913 53.4197 20.9772 53.3563 21.0175C53.1834 21.1376 53.2117 21.1288 53.2062 21.1304C53.2184 21.12 53.2721 21.0679 53.3271 21.0112C53.4367 20.8988 53.5668 20.7585 53.6919 20.6214C53.9472 20.3411 54.2097 20.0446 54.4728 19.7451C57.2113 16.608 59.958 13.3681 62.8956 10.2528C63.8234 9.27255 64.7666 8.30835 65.7776 7.35972C66.2851 6.88578 66.8047 6.41667 67.3941 5.9463C67.6931 5.71015 67.9975 5.47702 68.4029 5.22476C68.6113 5.09904 68.8238 4.96973 69.1926 4.8245C69.394 4.75207 69.604 4.66861 70.0317 4.63047C70.2349 4.61603 70.5328 4.61552 70.8867 4.71638C71.2628 4.81908 71.6977 5.07176 71.9948 5.42069C72.5816 6.15858 72.5415 6.61328 72.5812 6.91441C72.5954 7.20759 72.571 7.40502 72.5482 7.57225C72.4981 7.90579 72.4328 8.13699 72.3683 8.35562C72.2364 8.7892 72.0961 9.14272 71.952 9.48882C71.6629 10.1752 71.3573 10.8012 71.0432 11.4185C70.4139 12.6486 69.7503 13.8251 69.0661 14.9884C68.378 16.1563 67.6699 17.2988 66.9612 18.4272C66.6076 18.9905 66.2522 19.5518 65.9066 20.1048C65.7339 20.3814 65.5648 20.6538 65.4052 20.9194C65.3275 21.0489 65.2492 21.1818 65.1871 21.2929C65.1563 21.3478 65.1282 21.4003 65.1141 21.4283C65.1076 21.4408 65.1045 21.4487 65.114 21.4259C65.1176 21.417 65.1288 21.3905 65.1451 21.3417C65.1552 21.3031 65.2015 21.2011 65.2288 20.9287C65.2385 20.7422 65.269 20.4462 65.0694 19.9625C64.9898 19.7401 64.6445 19.2394 64.2306 19.0204C63.8217 18.7748 63.3592 18.7428 63.222 18.7465C62.8255 18.7506 62.6159 18.8373 62.483 18.8864C62.3934 18.9224 62.3313 18.9542 62.2826 18.9806C62.1013 19.0847 62.1055 19.0953 62.0817 19.1109C62.0533 19.1342 62.0814 19.1118 62.1052 19.0896C62.161 19.0387 62.2406 18.9609 62.3205 18.8805C62.4824 18.7174 62.6571 18.534 62.8311 18.3495C63.1804 17.9786 63.5368 17.5926 63.8947 17.2063C64.6118 16.432 65.3375 15.6513 66.0862 14.8757C68.2889 12.5967 70.6196 10.4318 73.1353 8.44738C73.9752 7.78714 74.8318 7.14593 75.76 6.53119C76.2251 6.22503 76.7058 5.9246 77.2511 5.63693C77.5266 5.49293 77.8181 5.35045 78.1692 5.2164C78.5481 5.09514 78.8734 4.905 79.7804 4.94068C80.108 4.96811 80.5961 5.07 81.0636 5.42981C81.5353 5.78661 81.7978 6.31465 81.8912 6.6699C82.071 7.40377 81.9733 7.74764 81.9302 8.07052C81.814 8.67877 81.6511 9.08257 81.4932 9.47811C81.1697 10.2578 80.8177 10.9274 80.4582 11.5859C80.2138 12.0366 79.9604 12.4822 79.7015 12.925C79.6377 13.0341 79.5724 13.1449 79.5058 13.2574C77.4565 16.7112 74.9853 20.2909 72.9151 23.7938C72.8106 23.9788 72.7137 24.1576 72.6376 24.312C72.6004 24.3874 72.5684 24.4579 72.5534 24.4956C72.5469 24.5112 72.5445 24.5212 72.5539 24.4912C72.5588 24.4368 72.6039 24.4561 72.6063 24.0126C72.5754 23.8669 72.652 23.1472 71.704 22.4945C71.2419 22.2255 70.934 22.2169 70.6743 22.2149C70.4357 22.2238 70.3426 22.2518 70.2346 22.2792C69.9005 22.3851 69.9062 22.4184 69.8679 22.4342C69.8317 22.4584 69.888 22.4198 69.9407 22.3749C70.0543 22.2803 70.2015 22.1444 70.3467 22.0043C70.9411 21.4276 71.5634 20.754 72.1666 20.0909C75.7642 16.0844 79.1547 12.0126 82.1645 8.68954C82.9255 7.85 83.6657 7.05451 84.3997 6.31462C84.8695 5.8426 85.3446 5.38012 85.8736 4.92265C86.142 4.69225 86.4181 4.46546 86.7575 4.23039C87.1257 4.00445 87.4166 3.71836 88.3571 3.52974C88.6921 3.48391 89.3916 3.41558 90.119 3.96691C90.8124 4.53645 90.9056 5.1547 90.9605 5.47218C91.0334 6.13502 90.9445 6.42864 90.8896 6.7452C90.7612 7.33852 90.6031 7.77555 90.4414 8.21371C90.1161 9.07315 89.7695 9.83135 89.4198 10.5716C86.8978 15.7259 84.5944 19.7014 82.6824 23.2421C82.3676 23.8229 82.0627 24.3835 81.8073 24.898C81.744 25.0263 81.6876 25.1451 81.645 25.2433C81.6244 25.2905 81.6084 25.332 81.6057 25.3381C81.6042 25.3407 81.6081 25.3304 81.6171 25.2881C81.62 25.2183 81.6743 25.201 81.6224 24.764C81.5948 24.5729 81.4315 23.9379 80.7541 23.5894C80.0512 23.2889 79.8351 23.4364 79.6315 23.4606C79.3566 23.5393 79.3207 23.5854 79.283 23.603C79.2249 23.6406 79.2576 23.6224 79.2843 23.6008C79.3449 23.5544 79.4465 23.4661 79.5383 23.3826C80.0134 22.9396 80.5183 22.4163 81.0233 21.8934C85.2007 17.5234 89.3153 13.0116 93.6296 8.64416C94.5809 7.6879 95.5467 6.73848 96.5681 5.81114C97.077 5.35106 97.6059 4.8882 98.1869 4.43871C98.4789 4.21441 98.7872 3.98806 99.1537 3.76604C99.343 3.65303 99.5443 3.5396 99.8147 3.42793C100.098 3.33525 100.399 3.1413 101.189 3.25366C101.657 3.30407 102.328 3.80474 102.509 4.24992C102.718 4.68595 102.721 4.97001 102.733 5.1933C102.737 5.63335 102.675 5.89124 102.618 6.14973C102.499 6.64896 102.356 7.04514 102.206 7.44239C101.907 8.22231 101.583 8.93975 101.25 9.65326C99.8155 12.6794 98.2877 15.5781 96.572 18.466C95.7063 19.8013 95.2224 20.9186 93.5692 22.4398C93.5153 22.4782 93.4478 22.5271 93.3129 22.591C93.1756 22.6461 92.968 22.7611 92.5086 22.7211C92.0429 22.7118 91.4113 22.2013 91.2953 21.8035C91.1406 21.3516 91.198 21.3599 91.1825 21.2508C91.1882 20.9164 91.2405 20.829 91.2641 20.7409C91.3251 20.5733 91.3309 20.5782 91.3466 20.5421C91.3729 20.4881 91.402 20.4361 91.4134 20.4159C91.4402 20.3685 91.4755 20.3102 91.494 20.2803C91.5417 20.2032 91.5833 20.1386 91.6282 20.0701C91.7125 19.9415 91.7938 19.8217 91.8806 19.6952C92.0468 19.4538 92.2089 19.2251 92.3783 18.9893C92.7099 18.5283 93.049 18.0711 93.3893 17.6203C94.0699 16.7196 94.7667 15.8307 95.4711 14.9553C96.8855 13.1984 98.333 11.4915 99.8238 9.80676C101.962 7.47007 104.318 5.55501 107.592 4.4088C107.75 4.36372 107.94 4.33087 108.16 4.34181C108.386 4.3488 108.708 4.43425 108.944 4.58902C109.179 4.73739 109.342 4.92317 109.453 5.09553C109.552 5.25201 109.602 5.37128 109.644 5.4928C109.781 5.9261 109.765 6.13626 109.772 6.36081C109.768 6.77608 109.726 7.0699 109.68 7.38657C109.586 7.98993 109.464 8.54491 109.337 9.09444C109.081 10.1917 108.8 11.2461 108.523 12.3047C107.973 14.4091 107.414 16.5028 107.042 18.5561C107.049 18.4867 107.083 18.3861 107.02 18.0993C106.975 17.9021 106.827 17.5951 106.554 17.3872C106.282 17.1794 106.022 17.1276 105.837 17.1153C105.644 17.1062 105.556 17.1314 105.505 17.1412C105.448 17.1543 105.41 17.1674 105.382 17.1775C105.325 17.1998 105.326 17.2022 105.321 17.2044C105.326 17.204 105.434 17.1335 105.522 17.0662C105.717 16.919 105.939 16.7305 106.156 16.5389C106.592 16.1521 107.033 15.7327 107.471 15.308C108.35 14.4534 109.213 13.5764 110.076 12.6906C111.803 10.9177 113.511 9.11023 115.255 7.31933C116.156 6.39819 117.069 5.48578 118.047 4.597C118.537 4.15437 119.041 3.7151 119.611 3.2906C119.9 3.07743 120.2 2.86774 120.578 2.66405C120.975 2.49621 121.354 2.14707 122.423 2.31468C123.082 2.42977 123.656 3.11363 123.777 3.51856C123.937 3.94183 123.956 4.26991 123.969 4.53961C123.985 5.09588 123.924 5.53738 123.861 5.97136C123.727 6.83116 123.544 7.61585 123.368 8.39472C123.017 9.94009 122.651 11.4564 122.535 12.87C122.501 13.309 122.497 13.7351 122.542 14.0942C122.531 14.0371 122.526 13.9517 122.42 13.7728C122.319 13.5984 122.091 13.4177 121.903 13.3592C121.542 13.2593 121.526 13.336 121.549 13.3158C121.62 13.2987 121.839 13.1988 122.047 13.0766C122.47 12.831 122.929 12.5035 123.377 12.1646C124.281 11.4783 125.169 10.7274 126.055 9.96241C127.84 8.42749 129.53 6.82936 131.452 5.26091C131.902 4.90439 132.337 4.56031 132.848 4.20126C133.131 4.01965 133.291 3.85282 133.903 3.61598C134.012 3.58277 134.087 3.5541 134.304 3.53149C134.472 3.52153 134.85 3.49328 135.281 3.79682C135.735 4.13331 135.826 4.57994 135.852 4.77377C135.877 4.98836 135.86 5.12048 135.847 5.22043C135.784 5.60379 135.708 5.75082 135.641 5.93014C135.103 7.15489 134.547 8.04096 133.988 9.03383C131.727 12.9484 129.418 16.8159 127.075 20.6768C126.407 21.7744 125.734 22.8734 125.047 23.9639C124.778 24.3903 124.505 24.8175 124.225 25.2416C124.082 25.4571 123.949 25.6579 123.778 25.8986C123.758 25.9269 123.766 25.9174 123.716 25.9827C123.707 25.9934 123.698 26.0056 123.678 26.0285C123.668 26.0403 123.656 26.0547 123.633 26.0781C123.622 26.0899 123.609 26.104 123.589 26.1232C123.577 26.1339 123.576 26.1371 123.518 26.1862C123.458 26.2286 123.412 26.2945 123.135 26.4054C122.993 26.4508 122.745 26.5428 122.329 26.4318C121.9 26.3302 121.53 25.8727 121.462 25.5959C121.318 25.0309 121.437 24.9393 121.446 24.8301C121.5 24.654 121.522 24.633 121.539 24.5946C121.57 24.5353 121.582 24.5167 121.588 24.5063C121.593 24.499 121.596 24.493 121.6 24.4877C121.613 24.4666 121.622 24.4529 121.632 24.4379C121.655 24.4038 121.68 24.3677 121.698 24.341C121.741 24.2797 121.781 24.2239 121.817 24.1733C121.897 24.0622 121.97 23.9629 122.051 23.8539C122.666 23.0278 123.308 22.2363 123.969 21.4607C127.573 17.3146 131.443 13.5314 135.503 9.89835C137.29 8.31429 139.116 6.77953 141.036 5.32188C142.814 4.02204 144.324 2.71565 146.777 1.81658C147.263 1.71222 148.004 1.41007 149.036 2.09831C149.985 2.913 149.886 3.72443 149.916 4.20744C149.884 5.22465 149.657 5.95623 149.47 6.67564C148.669 9.48909 147.223 11.695 145.893 13.7883C145.243 14.7864 144.59 15.7434 143.936 16.6816C143.096 17.88 142.228 18.9691 141.355 20.0161C140.919 20.5373 140.479 21.0487 140.037 21.545C139.814 21.795 139.59 22.042 139.359 22.2876C139.238 22.4165 139.128 22.5319 138.995 22.666C138.93 22.7311 138.866 22.7945 138.776 22.8778C138.736 22.9135 138.689 22.9594 138.58 23.0436C138.545 23.0697 138.506 23.0991 138.444 23.1377C138.429 23.1477 138.414 23.1568 138.391 23.1697C138.349 23.1943 138.296 23.2229 138.218 23.2566C138.054 23.2902 137.831 23.5334 137.006 23.2641C136.421 23.0572 136.063 22.325 136.065 22.0017C136.035 21.6488 136.094 21.4951 136.124 21.3787C136.162 21.2581 136.175 21.2354 136.197 21.185C136.235 21.0994 136.264 21.0492 136.29 21.0051C138.613 17.8514 140.622 15.7302 142.686 13.5689C143.447 12.7868 144.236 12.0085 145.056 11.2451C148.39 8.16872 152.082 5.38661 156.206 3.11622C156.659 2.87801 157.096 2.64827 157.674 2.42714C157.824 2.37129 157.98 2.31713 158.183 2.26603C158.395 2.22238 158.619 2.14304 159.133 2.19781C159.388 2.2315 159.809 2.34251 160.176 2.68992C160.541 3.03582 160.673 3.44773 160.721 3.68595C160.804 4.1751 160.751 4.34456 160.748 4.48575C159.672 9.44578 157.988 12.9893 156.508 16.8597C155.334 19.9245 153.312 23.3019 152.296 25.0541C152.304 25.0247 152.315 24.9845 152.326 24.9201C152.331 24.8878 152.336 24.8492 152.34 24.8006C152.341 24.7641 152.354 24.6725 152.329 24.4827C152.301 24.3049 152.235 24.0148 151.969 23.7082C151.725 23.3936 151.15 23.1746 150.84 23.1999C150.524 23.1996 150.293 23.3066 150.271 23.3143C150.205 23.3422 150.156 23.368 150.117 23.3904C149.958 23.4857 149.95 23.5052 149.924 23.525C149.902 23.5438 149.894 23.5518 149.892 23.5538C149.885 23.5621 149.92 23.5255 149.95 23.4909C151.052 22.1587 152.188 20.5805 153.196 19.2501C153.713 18.5497 154.234 17.8473 154.758 17.1452C156.433 14.8824 157.866 12.2438 159.673 9.72544C162.038 6.68153 164.024 3.6041 168.437 1.65368C168.774 1.54821 169.432 1.48006 170.022 1.84565C170.599 2.21491 170.766 2.64056 170.878 2.91711C171.071 3.47873 171.062 3.81019 171.074 4.14023C171.077 4.77951 171.005 5.29768 170.923 5.8178C170.753 6.84647 170.514 7.80288 170.249 8.75187C170.054 9.37783 169.842 10.0002 169.615 10.6254C169.428 11.1419 169.23 11.6624 169.02 12.1887C167.537 15.8934 165.197 19.6492 161.752 23.4719C161.652 23.5814 161.548 23.6927 161.393 23.8276C161.314 23.8943 161.226 23.9683 161.071 24.0627C160.992 24.1093 160.894 24.1658 160.726 24.2224C160.559 24.2668 160.265 24.3857 159.743 24.2031C159.493 24.1101 159.253 23.914 159.118 23.7242C158.985 23.5409 158.926 23.3803 158.89 23.2527C158.826 23.0074 158.833 22.8708 158.836 22.7533C158.848 22.5328 158.882 22.4069 158.913 22.2885C158.978 22.0593 159.051 21.8944 159.131 21.7317C160.692 18.8861 162.456 16.2676 164.262 13.088C165.476 10.952 167.092 8.81934 168.995 6.83359C169.004 6.82407 169.013 6.81454 169.022 6.805C170.845 5.0451 172.153 3.30752 175.355 1.71197C175.564 1.66058 175.749 1.59159 176.196 1.6749C176.597 1.72769 177.115 2.1903 177.222 2.48266C177.485 3.10297 177.391 3.31897 177.39 3.55131C177.344 3.97547 177.26 4.24804 177.176 4.52988C177.003 5.08068 176.803 5.57 176.595 6.05603C176.176 7.02154 175.708 7.96322 175.217 8.90544C174.231 10.7916 173.138 12.696 171.935 14.6427C171.256 15.7382 170.512 16.8064 169.73 17.8674C168.906 18.9887 168.117 19.9717 167.515 20.7913C167.424 20.9165 167.338 21.0384 167.259 21.154C167.221 21.209 167.182 21.2674 167.152 21.3136C167.138 21.3359 167.125 21.3576 167.118 21.3687C167.115 21.3732 167.114 21.3758 167.118 21.366C167.129 21.3314 167.122 21.406 167.201 21.128C167.212 21.0648 167.22 21.09 167.233 20.8845C167.234 20.7945 167.233 20.6744 167.185 20.5035C167.161 20.4185 167.124 20.3206 167.065 20.2163C167.018 20.1257 166.863 19.9225 166.696 19.811C166.341 19.558 165.953 19.5586 165.758 19.593C165.61 19.6194 165.563 19.6402 165.496 19.665C165.378 19.7124 165.311 19.7558 165.271 19.7816C165.158 19.8588 165.138 19.8846 165.119 19.9008C165.085 19.9337 165.086 19.9347 165.084 19.9365C165.085 19.9369 165.099 19.9213 165.113 19.9037C165.143 19.8682 165.18 19.8206 165.216 19.7734C165.289 19.6769 165.364 19.5728 165.436 19.4682C166.916 17.3068 168.009 15.8315 168.985 14.5694C169.44 13.981 169.874 13.4326 170.314 12.8817C171.272 11.6839 172.253 10.4392 173.353 9.1069C174.009 8.31465 174.734 7.51992 175.563 6.72903C176.181 6.1459 176.819 5.57123 177.644 4.99759C177.775 4.91009 177.914 4.81883 178.122 4.71917C178.233 4.66898 178.354 4.61125 178.584 4.56434C178.705 4.54312 178.853 4.52017 179.085 4.55236C179.307 4.57981 179.634 4.71216 179.85 4.93537C180.278 5.4076 180.24 5.71375 180.272 5.88735C180.286 6.06991 180.276 6.18683 180.267 6.29242C180.248 6.49889 180.22 6.64754 180.195 6.79222C179.827 8.60066 179.189 10.1743 178.513 11.988C177.919 13.5355 177.253 15.1811 176.533 16.953C175.827 18.7124 175.073 20.5153 174.673 21.9166C174.67 21.9242 174.675 21.911 174.678 21.8479C174.678 21.8351 174.688 21.7289 174.646 21.5648C174.623 21.4806 174.585 21.372 174.506 21.2495C174.417 21.0964 174.175 20.8731 173.93 20.7967C173.694 20.7093 173.438 20.7363 173.377 20.7497C173.291 20.7647 173.228 20.7855 173.179 20.8042C173.085 20.8413 173.035 20.8755 173.02 20.8851C172.986 20.908 172.984 20.9126 172.994 20.9048C173.033 20.8747 173.143 20.7638 173.239 20.657C173.441 20.4337 173.633 20.2019 173.84 19.9475C174.237 19.4583 174.626 18.9556 175.006 18.4635C175.762 17.4827 176.488 16.529 177.192 15.6254C178.619 13.8201 179.857 12.182 181.429 10.7778C181.635 10.6044 181.779 10.4884 182.012 10.3286C182.128 10.2496 182.238 10.1814 182.361 10.1162C182.53 10.0293 182.672 9.96177 182.914 9.90495C183.062 9.87246 183.231 9.85361 183.424 9.87506C183.597 9.88738 183.922 9.99172 184.124 10.1651C184.539 10.5067 184.613 10.9343 184.643 11.0971C184.678 11.3134 184.673 11.4948 184.666 11.6262C184.658 11.7671 184.638 11.9152 184.622 12.0202C184.459 12.9417 184.197 13.6276 183.953 14.3111C183.453 15.6601 182.937 16.843 182.456 17.9399C181.972 19.0361 181.517 20.034 181.088 20.9746C180.879 21.4316 180.664 21.9006 180.472 22.3279C180.373 22.5469 180.274 22.7692 180.191 22.9603C180.142 23.0748 180.104 23.1638 180.065 23.2589C180.045 23.3099 180.029 23.3504 180.021 23.3746C180.015 23.3913 180.012 23.4045 180.018 23.3881C180.021 23.3798 180.026 23.365 180.034 23.3343C180.029 23.3365 180.068 23.2753 180.067 23.0121C180.052 22.8774 180.076 22.6176 179.755 22.2173C179.595 22.026 179.317 21.8555 179.059 21.8042C178.799 21.7483 178.591 21.7812 178.451 21.8185C178.161 21.9124 178.2 21.9489 178.223 21.9059C178.255 21.8682 178.318 21.788 178.381 21.6975C179.171 20.4909 179.967 19.0001 180.812 17.6943C180.925 17.5155 181.041 17.3339 181.157 17.1508C182.741 14.7169 184.446 11.8112 186.9 8.81916C187.139 8.57014 187.306 8.34216 187.833 8.00144C187.992 7.91364 188.147 7.80742 188.548 7.73727C188.742 7.7083 189.02 7.70218 189.324 7.80702C189.625 7.90733 189.888 8.11565 190.041 8.30473C190.338 8.68715 190.368 8.92309 190.415 9.10637C190.453 9.29007 190.461 9.41995 190.467 9.54008C190.473 10.4154 190.334 10.9076 190.23 11.4794C189.686 14.0525 188.784 16.29 187.997 18.3C187.683 19.09 187.314 20.0117 186.925 21.0243C186.929 21.0105 186.934 21.0019 186.95 20.9374C186.957 20.9035 186.965 20.8775 186.974 20.7875C186.975 20.7012 187.005 20.603 186.915 20.3007C186.874 20.1748 186.771 19.946 186.555 19.7566C186.337 19.5628 186.091 19.4805 185.909 19.4534C185.498 19.4134 185.444 19.4776 185.327 19.5049C185.175 19.561 185.143 19.5909 185.116 19.6057C185.041 19.6587 185.112 19.6085 185.152 19.5685C185.249 19.4763 185.372 19.3445 185.493 19.2073C185.738 18.9305 185.993 18.6144 186.247 18.2878C186.757 17.629 187.276 16.9053 187.796 16.147C190.15 12.8711 192.001 9.17694 195.494 5.81817C195.705 5.68041 195.907 5.52885 196.376 5.41828C196.619 5.36717 196.951 5.34762 197.311 5.46757C197.678 5.58607 197.975 5.84345 198.136 6.05473C198.46 6.4924 198.503 6.79024 198.559 7.02181C198.607 7.2602 198.623 7.45272 198.633 7.6373C198.657 9.55115 198.221 11.2365 197.746 13.2641C197.319 14.9945 196.816 16.8929 196.225 18.9149C196.013 19.6439 195.79 20.3836 195.559 21.1372C195.444 21.5132 195.325 21.8959 195.21 22.2709C195.152 22.4616 195.096 22.6473 195.045 22.8252C195.019 22.9169 194.996 23.001 194.978 23.0715C194.97 23.1044 194.963 23.1369 194.962 23.141C194.962 23.1426 194.963 23.1379 194.967 23.1027C194.97 23.0805 194.973 23.0474 194.974 22.991C194.969 22.9411 194.993 22.794 194.877 22.4791C194.84 22.3945 194.819 22.3143 194.658 22.1128C194.568 22.0058 194.432 21.8775 194.238 21.7746C194.016 21.6533 193.707 21.5901 193.455 21.6151C193.005 21.6605 192.79 21.8499 192.715 21.9025C192.616 21.9807 192.572 22.0332 192.546 22.0616C192.446 22.1831 192.474 22.1604 192.478 22.148C192.501 22.1083 192.547 22.0165 192.591 21.9213C192.681 21.7278 192.778 21.5026 192.876 21.2779C193.07 20.827 193.274 20.3515 193.483 19.8798C193.905 18.9275 194.357 17.9649 194.849 16.9955C195.626 15.4799 196.499 14.052 197.411 12.6033C198.502 10.8816 199.562 9.30823 200.6 7.84749C201.94 6.01168 203.2 4.34297 205.059 3.04412C205.247 2.92433 205.628 2.68559 206.264 2.78724C206.916 2.90571 207.28 3.37152 207.41 3.6311C207.482 3.76834 207.519 3.88257 207.543 3.96957C207.556 4.0193 207.566 4.06362 207.574 4.10396C207.589 4.18454 207.596 4.24954 207.601 4.30649C207.615 4.54663 207.605 4.57099 207.599 4.67794C207.588 4.82596 207.57 4.94699 207.556 5.0401C207.524 5.25048 207.492 5.41716 207.459 5.58437C207.393 5.91792 207.323 6.24139 207.256 6.54272C207.118 7.16301 206.984 7.74031 206.854 8.31008C206.594 9.4474 206.356 10.5064 206.143 11.5155C205.718 13.5289 205.392 15.3233 205.184 16.9476C205.192 16.8411 205.234 16.6703 205.124 16.2888C205.072 16.0436 204.709 15.4531 204.18 15.2623C204.055 15.2109 203.931 15.1783 203.818 15.1601C203.722 15.1451 203.661 15.1414 203.591 15.1396C203.456 15.137 203.345 15.1507 203.253 15.1682C203.071 15.2045 202.963 15.2521 202.885 15.2881C202.836 15.3114 202.804 15.3297 202.776 15.3461C202.721 15.3784 202.693 15.3996 202.677 15.4108C202.634 15.4447 202.674 15.4119 202.709 15.3759C202.785 15.2988 202.886 15.1889 202.99 15.0687C203.193 14.8359 203.397 14.587 203.602 14.3321C204.007 13.828 204.401 13.316 204.78 12.8164C205.831 11.429 206.797 10.1034 207.751 8.77828C208.278 8.0458 208.826 7.27716 209.383 6.48786C209.935 5.70756 210.505 4.91424 211.152 4.08812C211.475 3.67926 211.814 3.25977 212.234 2.81671C212.454 2.59049 212.663 2.36896 213.057 2.08266C213.278 1.9466 213.464 1.75223 214.15 1.61349C214.473 1.54954 215.112 1.58484 215.595 1.91526C216.076 2.23747 216.265 2.60786 216.376 2.85171C216.598 3.40487 216.581 3.67482 216.601 3.93368C216.61 4.18411 216.599 4.38842 216.583 4.58482C216.551 4.96938 216.497 5.31115 216.438 5.64028C216.317 6.29728 216.165 6.91589 216.002 7.52683C215.674 8.74907 215.297 9.93545 214.894 11.1249C214.652 11.836 214.401 12.5462 214.144 13.2516C213.099 16.0766 212.097 18.7622 210.773 21.5878C210.755 21.6229 210.736 21.6602 210.709 21.7066C210.696 21.7299 210.68 21.7555 210.662 21.7857C210.646 21.8067 210.619 21.8641 210.49 22.0196C210.422 22.0961 210.339 22.1973 210.13 22.3472C210.023 22.4208 209.88 22.5098 209.656 22.5871C209.533 22.6262 209.448 22.655 209.223 22.6793C208.97 22.7044 208.652 22.6729 208.361 22.5568C207.756 22.3182 207.454 21.8482 207.337 21.5868C207.214 21.3081 207.195 21.1398 207.178 21.0146C207.164 20.8917 207.165 20.8051 207.166 20.747C207.167 20.7249 207.168 20.7049 207.169 20.6863C207.178 20.5412 207.191 20.473 207.202 20.4101C207.234 20.2455 207.255 20.1779 207.272 20.1095C207.311 19.9672 207.344 19.8602 207.377 19.7545C207.444 19.5392 207.511 19.3371 207.578 19.1393C207.713 18.7428 207.852 18.3574 207.993 17.9762C208.276 17.2126 208.568 16.4712 208.873 15.7406C209.487 14.2805 210.125 12.8823 210.919 11.5287C211.669 10.2622 212.487 9.12715 213.319 8.11446C214.624 6.57135 216.043 5.16115 217.755 3.91877C217.884 3.82697 218.045 3.72838 218.264 3.64601C218.506 3.55233 218.907 3.46884 219.328 3.5433C220.298 3.73163 220.656 4.36922 220.787 4.58603C221.061 5.13119 221.035 5.28069 221.079 5.48964C221.127 5.84338 221.124 6.05844 221.123 6.2848C221.117 6.71689 221.084 7.08859 221.047 7.45474C220.969 8.1809 220.862 8.87218 220.743 9.55425C220.503 10.92 220.21 12.2534 219.874 13.5842C219.104 16.6924 217.595 20.2459 217.576 22.0793C217.565 21.9945 217.546 21.8714 217.474 21.6886C217.417 21.5276 217.157 21.0243 216.614 20.7624C216.038 20.4676 215.448 20.598 215.298 20.6516C215.078 20.7209 214.957 20.8009 214.909 20.8305C214.682 20.9906 214.752 20.9601 214.757 20.9453C214.805 20.8947 214.911 20.762 215.006 20.6324C215.206 20.3616 215.418 20.045 215.627 19.7252C216.047 19.0803 216.464 18.4056 216.884 17.7248C217.725 16.3625 218.553 14.9799 219.493 13.5807C221.014 11.5506 221.705 9.72249 224.721 7.57005C224.901 7.48095 225.118 7.4047 225.364 7.36866C225.634 7.32755 225.94 7.34465 226.208 7.41864C226.765 7.57566 227.073 7.87252 227.265 8.0828C227.633 8.51948 227.706 8.76279 227.813 9.012C227.99 9.48031 228.061 9.82511 228.131 10.1729C228.262 10.8644 228.329 11.4808 228.388 12.1055C228.499 13.3444 228.553 14.5432 228.596 15.7383C228.644 17.0993 228.668 18.4397 228.69 19.7558C228.691 19.9196 228.702 20.0899 228.709 20.1435C228.695 20.1466 228.767 20.2142 228.577 19.8357C228.509 19.7267 228.413 19.5501 228.108 19.3309C227.796 19.0827 227.136 18.9717 226.785 19.0844C226.422 19.1794 226.283 19.3007 226.182 19.3745C226.093 19.4453 226.048 19.495 226.02 19.5262C225.92 19.6472 225.96 19.6113 225.976 19.5794C225.999 19.5414 226.033 19.4803 226.067 19.4134C226.136 19.2765 226.21 19.1149 226.285 18.9464C228.388 14.3119 230.901 10.4165 233.307 7.30324C233.527 7.02506 233.73 6.75799 234.128 6.42984C234.358 6.28908 234.56 5.97627 235.432 5.97782C235.876 5.99925 236.313 6.29907 236.487 6.52963C236.677 6.76535 236.744 6.94552 236.798 7.09506C236.859 7.27316 236.885 7.41338 236.905 7.54152L236.922 7.66656C236.839 10.4504 235.996 12.0737 235.45 13.4396L235.437 13.4764C234.414 15.3312 233.9 16.1273 233.67 16.0926C233.423 16.0389 233.581 14.8686 234.153 12.9896L234.145 13.0137C234.397 11.6878 234.901 9.74438 234.728 7.84647L234.741 7.94245C234.729 7.90017 234.715 7.86746 234.71 7.8686C234.708 7.87011 234.706 7.89769 234.773 7.98602C234.828 8.0703 235.052 8.23283 235.27 8.24303C235.693 8.23511 235.631 8.15168 235.617 8.20179C235.546 8.277 235.392 8.48048 235.261 8.69138C233.253 11.8495 231.008 15.8232 229.187 20.1759C229.106 20.376 229.021 20.5765 228.917 20.7974C228.796 21.0304 228.756 21.2062 228.388 21.6558C228.254 21.7686 228.205 21.9715 227.529 22.185C227.191 22.2905 226.591 22.1898 226.293 21.955C226.001 21.7465 225.892 21.5618 225.811 21.4289C225.565 20.9524 225.59 20.8166 225.548 20.6382C225.497 20.3161 225.488 20.0802 225.478 19.8417C225.429 18.5242 225.385 17.1957 225.328 15.8676C225.276 14.704 225.214 13.5432 225.103 12.4193C225.046 11.8583 224.978 11.3084 224.879 10.8147C224.832 10.5763 224.769 10.3415 224.721 10.2239C224.706 10.1727 224.659 10.1413 224.785 10.2965C224.854 10.3703 225.004 10.5339 225.341 10.6301C225.501 10.6748 225.69 10.685 225.848 10.6608C225.992 10.6398 226.109 10.5965 226.194 10.5544C225.174 11.2782 223.517 13.6465 222.304 15.4659C221.458 16.7464 220.64 18.1324 219.806 19.5083C219.386 20.2003 218.967 20.892 218.517 21.5946C218.291 21.9462 218.061 22.2976 217.793 22.6684C217.658 22.853 217.518 23.0425 217.311 23.2739C217.257 23.3329 217.203 23.3905 217.12 23.4688C217.045 23.5387 216.95 23.6282 216.773 23.7433C216.702 23.7882 216.546 23.8857 216.32 23.956C216.157 24.0135 215.599 24.1298 215.073 23.8594C214.577 23.6214 214.324 23.1477 214.261 22.9722C214.185 22.7804 214.158 22.6302 214.142 22.5029C214.252 18.1716 215.806 15.7869 216.447 12.7287C216.754 11.477 217.021 10.2114 217.234 8.95192C217.339 8.32571 217.431 7.69315 217.49 7.09216C217.52 6.7939 217.541 6.49376 217.542 6.25011C217.544 6.13201 217.535 6.01438 217.532 6.01052C217.545 6.02759 217.496 6.01332 217.656 6.3357C217.732 6.45718 217.98 6.93248 218.728 7.08031C219.051 7.13734 219.351 7.07231 219.521 7.00656C219.675 6.94849 219.778 6.88336 219.852 6.83096C218.106 8.11854 216.495 9.82544 215.167 11.6427C214.756 12.2081 214.371 12.7891 214.016 13.3857C213.317 14.57 212.7 15.9168 212.132 17.2718C211.849 17.9498 211.578 18.6397 211.322 19.3293C211.194 19.6747 211.07 20.0212 210.954 20.3605C210.895 20.5341 210.841 20.6983 210.791 20.8602C210.768 20.9333 210.744 21.0134 210.729 21.0701C210.724 21.0849 210.715 21.1385 210.733 21.0451C210.738 21.0015 210.749 20.9869 210.753 20.7992C210.738 20.6746 210.799 20.5211 210.555 20.0041C210.43 19.7569 210.101 19.347 209.569 19.1811C209.313 19.0983 209.048 19.0861 208.838 19.1135C208.69 19.1329 208.59 19.1608 208.493 19.194C208.117 19.3333 207.985 19.4754 207.883 19.5634C207.787 19.6551 207.741 19.7149 207.705 19.761C207.63 19.863 207.637 19.8594 207.622 19.8813C207.611 19.8984 207.604 19.9113 207.598 19.9214C207.586 19.9415 207.582 19.951 207.58 19.9548C209.012 16.8625 210.353 13.3272 211.525 9.96435C211.905 8.85105 212.261 7.73813 212.561 6.63615C212.71 6.08518 212.845 5.53695 212.943 5.01908C212.991 4.76231 213.03 4.51015 213.048 4.30129C213.057 4.19832 213.059 4.10578 213.058 4.05741C213.065 4.02008 213.018 3.97842 213.125 4.2649C213.18 4.38147 213.282 4.61158 213.613 4.85241C213.947 5.10227 214.428 5.15723 214.646 5.1208C215.103 5.04133 215.077 4.97288 215.095 4.9793C215.084 4.9843 214.938 5.1096 214.812 5.24224C214.544 5.51852 214.248 5.87275 213.961 6.23409C213.384 6.96134 212.812 7.74585 212.249 8.53614C211.087 10.1649 209.908 11.7863 208.706 13.3959C208.103 14.2016 207.497 15.0014 206.865 15.8055C206.549 16.2069 206.229 16.6069 205.885 17.0145C205.716 17.2147 205.534 17.4258 205.327 17.6454C205.22 17.7587 205.112 17.8723 204.941 18.024C204.838 18.1081 204.771 18.1873 204.466 18.362C204.41 18.3904 204.258 18.4792 203.991 18.5451C203.857 18.5769 203.687 18.6044 203.47 18.5944C203.327 18.6002 202.798 18.501 202.475 18.2386C202.124 17.9807 201.924 17.6211 201.839 17.365C201.787 17.2111 201.764 17.0807 201.752 16.9705C201.729 16.7501 201.744 16.6044 201.759 16.4854C202.301 12.4878 203.324 8.59581 204.147 4.91522C204.176 4.77267 204.203 4.63261 204.221 4.5153C204.229 4.4662 204.236 4.40792 204.235 4.41424C204.236 4.43116 204.229 4.40725 204.238 4.56935C204.241 4.61042 204.247 4.66292 204.26 4.73527C204.267 4.77197 204.276 4.81122 204.29 4.86215C204.315 4.95114 204.352 5.06382 204.429 5.20861C204.566 5.48058 204.968 5.98587 205.676 6.10823C206.362 6.21256 206.762 5.9556 206.946 5.83941C205.673 6.69284 204.417 8.26478 203.297 9.79733C201.297 12.5971 199.297 15.5524 197.745 18.4795C197.296 19.3542 196.873 20.2411 196.469 21.1461C196.266 21.598 196.069 22.0527 195.865 22.5244C195.761 22.7612 195.659 22.9975 195.536 23.2635C195.473 23.397 195.411 23.5315 195.306 23.7214C195.243 23.8263 195.206 23.9152 195.012 24.1564C194.958 24.2189 194.901 24.2887 194.761 24.4085C194.687 24.4689 194.635 24.513 194.485 24.6015C194.337 24.6861 194.136 24.7763 193.872 24.8208C193.584 24.8757 193.16 24.8396 192.841 24.6908C192.533 24.5516 192.354 24.387 192.214 24.2326C191.958 23.9264 191.933 23.8111 191.866 23.6621C191.71 23.2388 191.745 23.009 191.739 22.9416C191.741 22.8465 191.748 22.7757 191.755 22.717C191.766 22.6323 191.78 22.5546 191.79 22.5062C191.811 22.4034 191.829 22.3288 191.848 22.2552C191.883 22.1185 191.917 21.9994 191.951 21.884C192.017 21.6557 192.083 21.4408 192.148 21.2309C192.28 20.8023 192.407 20.3949 192.534 19.9786C192.789 19.1499 193.037 18.3227 193.276 17.4931C193.756 15.8302 194.203 14.1676 194.623 12.487C194.895 11.394 195.148 10.2958 195.318 9.24657C195.402 8.72855 195.464 8.19641 195.46 7.82386C195.459 7.73661 195.452 7.66046 195.448 7.63775C195.454 7.62077 195.415 7.63815 195.573 7.90743C195.655 8.03742 195.843 8.26467 196.163 8.40982C196.479 8.55649 196.797 8.55219 196.965 8.52191C197.296 8.45179 197.286 8.4028 197.282 8.41689C197.273 8.42229 197.245 8.44282 197.217 8.46653C196.512 9.07978 195.579 10.3173 194.782 11.4003C193.272 13.5129 191.834 15.7309 190.354 17.915C189.847 18.6599 189.334 19.3893 188.783 20.1171C188.506 20.4809 188.225 20.8405 187.909 21.2098C187.749 21.3955 187.586 21.5809 187.375 21.7912C187.258 21.903 187.165 22.0051 186.903 22.1959C186.818 22.2527 186.76 22.3003 186.548 22.4025C186.457 22.4422 186.308 22.5158 186.018 22.5644C185.797 22.6105 184.894 22.6648 184.262 21.9002C183.971 21.5275 183.927 21.3073 183.872 21.0909C183.85 20.987 183.839 20.8931 183.834 20.8141C183.83 20.7549 183.829 20.7011 183.83 20.6517C183.834 20.4511 183.86 20.3298 183.876 20.2508C183.918 20.0683 183.945 19.9998 183.977 19.9102C185.187 16.6492 186.428 13.5733 186.951 10.8481C186.999 10.5901 187.041 10.3423 187.07 10.1232C187.101 9.91437 187.111 9.68169 187.106 9.69311C187.107 9.70252 187.105 9.7338 187.13 9.84262C187.17 9.94833 187.174 10.1791 187.582 10.6021C187.782 10.8027 188.139 11.0001 188.455 11.0569C188.769 11.1192 189.012 11.0842 189.16 11.0521C189.463 10.9775 189.535 10.9119 189.589 10.8841C189.728 10.784 189.536 10.9374 189.427 11.0723C188.476 12.2051 187.501 13.7014 186.656 14.964C185.572 16.6001 184.586 18.131 183.648 19.5548C183.095 20.3912 182.594 21.1934 182.095 21.9933C181.843 22.3954 181.598 22.7912 181.31 23.217C181.163 23.431 181.01 23.6522 180.79 23.915C180.524 24.1636 180.413 24.5546 179.294 24.9458C178.944 25.0739 178.005 25.0515 177.443 24.4797C176.898 23.9338 176.873 23.4725 176.838 23.2403C176.808 22.7741 176.881 22.6339 176.887 22.5745C176.903 22.507 176.918 22.4582 176.931 22.4156C176.958 22.3316 176.981 22.272 177.003 22.214C177.036 22.1308 177.058 22.0793 177.088 22.0117C177.152 21.8662 177.183 21.8008 177.237 21.6838C177.329 21.4884 177.429 21.2821 177.512 21.1108C177.698 20.7291 177.868 20.3866 178.042 20.0346C178.387 19.3375 178.717 18.672 179.033 18.0218C179.658 16.7348 180.228 15.5259 180.729 14.3499C180.976 13.7691 181.21 13.1855 181.402 12.6328C181.494 12.3667 181.579 12.0964 181.643 11.8476C181.705 11.642 181.725 11.3196 181.722 11.5027C181.732 11.5654 181.721 11.6183 181.817 11.8643C181.866 11.9775 181.943 12.1194 182.069 12.2646C182.204 12.424 182.418 12.5896 182.641 12.6845C182.752 12.733 182.869 12.7672 182.968 12.7865C183.051 12.8028 183.129 12.8111 183.2 12.814C183.341 12.8197 183.452 12.8048 183.533 12.7885C183.677 12.7566 183.704 12.7376 183.729 12.7281C183.756 12.7149 183.7 12.7432 183.614 12.8063C183.546 12.8558 183.452 12.9288 183.336 13.0281C182.715 13.561 181.902 14.4878 181.058 15.5278C180.2 16.5844 179.274 17.804 178.273 19.138C177.771 19.8071 177.257 20.4965 176.698 21.2262C176.424 21.5827 176.132 21.9605 175.81 22.3494C175.651 22.5401 175.475 22.7495 175.248 22.9827C175.087 23.1281 175.065 23.2205 174.546 23.5395C174.451 23.5914 174.336 23.6486 174.172 23.7018C173.989 23.7435 173.878 23.838 173.273 23.7774C172.733 23.7428 172.04 23.1817 171.894 22.8522C171.72 22.5578 171.665 22.3137 171.636 22.1292C171.588 21.7197 171.621 21.6744 171.627 21.5472C171.64 21.4369 171.657 21.3459 171.675 21.2616C172.772 17.5366 174.174 14.4314 175.533 10.8401C176.126 9.2708 176.821 7.5414 177.116 6.18147C177.137 6.08161 177.151 5.99074 177.152 5.97988C177.153 5.97819 177.147 5.99189 177.152 6.10019C177.183 6.2052 177.093 6.44761 177.556 7.05204C177.792 7.34187 178.225 7.57069 178.523 7.62156C178.824 7.68082 178.999 7.65428 179.118 7.63761C179.344 7.59636 179.386 7.56321 179.417 7.55259C179.463 7.52976 179.404 7.55884 179.345 7.59821C178.083 8.4538 176.732 9.74068 175.611 11.0377C174.223 12.6477 172.901 14.3094 171.642 15.9933C170.434 17.6064 169.223 19.339 167.978 21.1697C167.879 21.3148 167.779 21.456 167.663 21.6097C167.605 21.6867 167.546 21.7635 167.468 21.8581C167.428 21.905 167.387 21.9553 167.305 22.0416C167.281 22.0662 167.262 22.0862 167.217 22.1288C167.175 22.1661 167.131 22.2164 166.962 22.3324C166.919 22.3608 166.816 22.429 166.662 22.4943C166.582 22.5278 166.483 22.5645 166.347 22.5949C166.188 22.6316 165.699 22.7123 165.177 22.4563C164.919 22.3329 164.679 22.127 164.523 21.9126C164.377 21.7085 164.334 21.5986 164.28 21.4594C164.187 21.1964 164.175 21.0041 164.173 20.8611C164.181 20.5435 164.202 20.543 164.216 20.4544C164.289 20.1682 164.306 20.1713 164.336 20.0936C164.483 19.786 164.51 19.7721 164.573 19.6664C164.627 19.5817 164.678 19.5067 164.728 19.4329C164.828 19.2872 164.923 19.1533 165.02 19.0194C166.587 16.9473 168.09 15.1077 169.381 13.0646C170.306 11.6033 171.197 10.1121 172.03 8.62034C172.621 7.5613 173.189 6.49232 173.684 5.44716C173.93 4.92597 174.161 4.40614 174.338 3.9225C174.424 3.68874 174.496 3.4481 174.521 3.32011C174.542 3.27639 174.5 3.18678 174.558 3.50715C174.575 3.57533 174.622 3.73533 174.735 3.90281C174.837 4.0668 175.082 4.29801 175.334 4.39784C175.561 4.497 175.795 4.51154 175.915 4.5034C176.033 4.49681 176.113 4.47674 176.167 4.46079C174.771 5.14459 172.496 7.23686 171.043 8.72855C169.059 10.7552 167.627 12.7269 166.643 14.4586C166.246 15.147 165.884 15.7682 165.564 16.318C164.314 18.4995 162.794 20.8247 161.635 22.9713C161.615 23.0102 161.602 23.0511 161.608 23.0338C161.61 23.021 161.621 23.0023 161.629 22.8871C161.63 22.8228 161.64 22.7445 161.596 22.5455C161.557 22.3777 161.395 21.9017 160.852 21.6375C160.322 21.4049 160.011 21.5271 159.878 21.5568C159.732 21.6029 159.678 21.638 159.636 21.6611C159.562 21.7062 159.561 21.7135 159.562 21.7114C159.57 21.7045 159.621 21.6556 159.671 21.5999C162.45 18.5058 164.872 14.9225 166.295 11.1716C166.811 9.80773 167.262 8.43507 167.615 7.09256C167.812 6.33922 167.979 5.59338 168.071 4.90336C168.117 4.56499 168.139 4.21921 168.123 4.01252C168.125 3.91781 168.069 3.83477 168.162 4.02329C168.21 4.11206 168.382 4.33662 168.675 4.44151C168.971 4.54594 169.173 4.49431 169.251 4.47303C166.281 5.7759 163.657 9.17147 162.008 11.4144C161.264 12.455 160.648 13.4377 160.131 14.2763C159.159 15.8515 158.245 17.3782 157.107 18.9088C156.337 19.9382 155.553 20.988 154.713 22.1063C154.293 22.6647 153.861 23.2379 153.402 23.8388C153.171 24.1395 152.939 24.4404 152.686 24.7591C152.563 24.9143 152.431 25.0788 152.287 25.2487C152.216 25.3326 152.143 25.4187 152.039 25.5294C151.982 25.5876 151.95 25.6288 151.807 25.7523C151.769 25.7827 151.747 25.8044 151.642 25.8745C151.594 25.906 151.535 25.9419 151.449 25.982C151.396 25.9923 151.191 26.1547 150.657 26.104C150.401 26.0787 150.049 25.917 149.851 25.7099C149.649 25.511 149.545 25.2894 149.493 25.1231C149.394 24.7842 149.434 24.6108 149.433 24.5666C149.446 24.4228 149.469 24.3405 149.488 24.2703C149.752 23.4985 149.953 23.285 150.168 22.8945C151.42 20.8512 152.676 18.6374 153.824 15.7913C154.746 13.5063 155.763 10.9416 156.776 8.0277C157.238 6.67289 157.741 5.17679 157.878 4.24955C157.893 4.1499 157.867 4.0683 157.904 4.28246C157.925 4.38396 158.023 4.64838 158.26 4.83543C158.494 5.02055 158.698 5.04513 158.783 5.05407C158.958 5.06114 158.91 5.04504 158.871 5.05998C158.823 5.07193 158.747 5.09627 158.666 5.12663C158.331 5.25345 157.94 5.44844 157.561 5.64794C153.608 7.81267 150.604 10.1141 148.095 12.2416C147.695 12.5842 147.308 12.926 146.931 13.2683C143.783 16.1696 141.038 19.1256 138.566 22.345C138.575 22.3268 138.595 22.3038 138.637 22.1903C138.631 22.187 138.712 22.0584 138.693 21.7397C138.679 21.5789 138.613 21.3033 138.383 21.0699C138.272 20.9561 138.132 20.8683 138.002 20.818C137.902 20.7792 137.82 20.7617 137.743 20.7514C137.436 20.7204 137.308 20.7844 137.219 20.8124C137.135 20.8447 137.086 20.8742 137.065 20.8861C136.957 20.9534 136.977 20.9476 136.975 20.9464C136.987 20.9356 137.017 20.9078 137.049 20.8771C137.113 20.8159 137.189 20.7386 137.257 20.6679C137.402 20.5188 137.555 20.355 137.701 20.1958C138 19.8693 138.298 19.5325 138.601 19.1824C139.206 18.4825 139.817 17.7452 140.43 16.959C140.894 16.3639 141.348 15.7571 141.771 15.1462C143.814 12.1334 146.024 9.03908 146.908 5.95677C147.096 5.2748 147.262 4.58195 147.26 4.13883C147.261 4.03668 147.246 3.95948 147.246 3.96822C147.242 3.9674 147.294 4.11604 147.453 4.22457C147.609 4.33094 147.716 4.32066 147.697 4.32237C147.685 4.32212 147.602 4.33261 147.501 4.36281C145.698 5.02779 143.63 6.63183 141.951 7.89503C140.443 9.0541 138.845 10.3859 137.216 11.8303C136.12 12.8018 135.008 13.8253 133.896 14.8835C131.156 17.4975 128.37 20.3123 125.923 23.1294C125.515 23.6032 125.12 24.0781 124.742 24.5516C124.551 24.7902 124.366 25.0263 124.184 25.2658C124.094 25.3841 124.003 25.5043 123.919 25.6191C123.874 25.6799 123.834 25.7359 123.795 25.7908C123.777 25.8149 123.753 25.8505 123.752 25.8516C123.753 25.85 123.755 25.8466 123.761 25.8367C123.764 25.832 123.76 25.8399 123.779 25.8072C123.788 25.7908 123.799 25.7736 123.826 25.7155C123.84 25.6835 123.859 25.6475 123.891 25.5445C123.906 25.4901 123.928 25.4213 123.94 25.2767C123.939 25.1379 123.989 24.8711 123.698 24.4423C123.552 24.2373 123.288 24.0528 123.045 23.9866C122.801 23.9158 122.604 23.9319 122.469 23.9556C122.199 24.0108 122.105 24.0831 122.028 24.1262C121.893 24.2124 121.844 24.2682 121.837 24.2729C121.811 24.2978 121.795 24.3143 121.782 24.3276C121.758 24.3538 121.746 24.3675 121.737 24.3784C121.682 24.4466 121.707 24.4161 121.703 24.4213C121.707 24.4162 121.716 24.4033 121.724 24.3921C122.128 23.8207 122.528 23.208 122.913 22.6166C124.563 20.0564 125.983 17.8072 127.265 15.784C127.756 15.0058 128.226 14.258 128.679 13.5324C129.793 11.6542 130.904 9.76734 131.985 7.88385C132.488 6.99888 133.021 6.08691 133.414 5.25161C133.458 5.14845 133.499 5.04253 133.523 4.96502C133.536 4.92336 133.543 4.89089 133.542 4.8859C133.55 4.89407 133.499 4.87204 133.557 5.17873C133.582 5.26973 133.62 5.37586 133.72 5.50621C133.817 5.63626 133.987 5.75334 134.108 5.79851C134.385 5.89866 134.492 5.86009 134.563 5.85569C134.674 5.83517 134.656 5.832 134.638 5.84477C134.594 5.86939 134.497 5.92964 134.401 5.99676C133.964 6.30242 133.47 6.71263 132.951 7.14537C131.148 8.68581 129.068 10.7719 126.426 13.0285C125.701 13.6427 124.984 14.2303 124.188 14.7933C123.786 15.0732 123.389 15.3417 122.865 15.5974C122.583 15.7217 122.338 15.8608 121.776 15.9209C121.496 15.9388 121.022 15.9328 120.547 15.5548C120.332 15.3824 120.166 15.1349 120.082 14.9365C120.003 14.7545 119.963 14.5807 119.943 14.4205C119.734 12.0977 120.273 10.3073 120.653 8.49732C120.857 7.60513 121.071 6.7271 121.222 5.89583C121.297 5.48468 121.355 5.0714 121.362 4.75114C121.367 4.59556 121.347 4.45658 121.346 4.45972C121.349 4.46199 121.36 4.51765 121.447 4.62027C121.53 4.72279 121.709 4.82764 121.829 4.84942C122.138 4.89001 122.036 4.83148 121.921 4.89856C121.8 4.95123 121.63 5.04877 121.46 5.16121C121.117 5.38776 120.75 5.67763 120.393 5.97783C119.286 6.91634 118.195 7.99101 117.093 9.10676C114.602 11.6373 112.054 14.3875 109.08 17.3151C108.674 17.7103 108.246 18.1194 107.79 18.5252C107.551 18.7365 107.326 18.9315 107.037 19.1504C106.969 19.2012 106.892 19.2574 106.805 19.316C106.723 19.3704 106.628 19.4324 106.497 19.5003C106.434 19.5317 106.366 19.5669 106.236 19.6122C106.096 19.6461 106.03 19.7178 105.582 19.682C105.377 19.653 105.124 19.5739 104.883 19.3513C104.652 19.138 104.54 18.8625 104.503 18.6727C104.452 18.4171 104.476 18.2492 104.498 18.1098C105.05 14.9361 106 11.7116 106.721 8.55385C106.838 8.02619 106.948 7.4962 107.019 7.00923C107.055 6.76413 107.078 6.53037 107.076 6.37035C107.08 6.30034 107.053 6.22861 107.09 6.3675C107.105 6.40916 107.126 6.46567 107.176 6.54802C107.235 6.64295 107.337 6.76627 107.493 6.86785C107.652 6.97537 107.874 7.03614 108.02 7.04087C108.16 7.0486 108.268 7.02747 108.339 7.00731C105.923 7.86683 103.531 9.78562 101.909 11.641C100.442 13.3191 99.1306 14.8849 98.025 16.2367C96.9346 17.571 95.9827 18.719 95.0777 19.864C95.0736 19.8691 95.0694 19.8742 95.0653 19.8793C95.0024 19.9592 94.9456 20.0313 94.8822 20.1126C94.6719 20.4036 94.4579 20.7045 94.2556 20.9975C94.1524 21.1469 94.0535 21.2925 93.9582 21.437C93.9122 21.5067 93.8638 21.5815 93.8245 21.6445C93.802 21.6804 93.787 21.7051 93.772 21.731C93.7666 21.7403 93.7612 21.7506 93.7666 21.7406C93.7706 21.7325 93.773 21.7298 93.7915 21.688C93.8058 21.6479 93.833 21.6116 93.8683 21.4209C93.8761 21.3706 93.8842 21.3073 93.8832 21.2157C93.8819 21.1653 93.8818 21.1314 93.8679 21.04C93.8432 20.893 93.7819 20.6653 93.5818 20.4364C93.3868 20.2045 93.0519 20.0564 92.8138 20.0373C92.5702 20.0125 92.4138 20.0561 92.3067 20.0893C92.097 20.1628 92.0334 20.2205 91.9778 20.2573C92.5969 19.6822 93.5346 18.2345 94.2279 17.0636C95.8445 14.3011 97.3553 11.3859 98.7076 8.47601C99.0195 7.79429 99.3207 7.11077 99.5686 6.44813C99.6916 6.11755 99.8014 5.78769 99.8628 5.51579C99.8937 5.38644 99.9052 5.25618 99.902 5.26436C99.9063 5.27321 99.8864 5.32794 99.9792 5.52772C100.051 5.73358 100.445 6.02668 100.653 6.03868C100.997 6.07815 100.939 6.01958 100.894 6.05475C100.836 6.07887 100.734 6.13224 100.628 6.19773C100.416 6.3277 100.172 6.5051 99.9357 6.69051C99.4585 7.06504 98.9716 7.49509 98.5003 7.92823C97.5493 8.80464 96.6147 9.73632 95.6924 10.678C94.5411 11.8557 93.397 13.0634 92.2599 14.2741C91.5952 14.9953 90.9258 15.7258 90.2629 16.4516C87.7328 19.2205 85.2831 21.9469 83.3226 24.0896C82.7609 24.6992 82.2618 25.2464 81.7257 25.7738C81.6353 25.8618 81.5329 25.9596 81.4037 26.072C81.342 26.1255 81.2686 26.1875 81.1716 26.2602C81.0544 26.3372 81.0159 26.4055 80.6161 26.5719C80.5268 26.6026 80.3557 26.6713 80.0521 26.6811C79.8609 26.7318 78.9992 26.5059 78.7114 26.0372C78.5522 25.8278 78.4707 25.6189 78.4269 25.4516C78.3894 25.3025 78.382 25.2217 78.3748 25.1291C78.3642 24.9468 78.3778 24.8455 78.3864 24.7691C78.4342 24.4492 78.4773 24.3615 78.5172 24.2325C78.5953 24.0066 78.6672 23.8409 78.7415 23.6714C79.0334 23.0182 79.3591 22.3861 79.7233 21.674C81.373 18.4377 83.8778 13.9009 86.1528 9.05372C86.4618 8.37559 86.7582 7.69172 86.999 7.03486C87.1321 6.67109 87.2507 6.29838 87.3028 6.03561C87.3326 5.92234 87.3178 5.77597 87.33 5.97702C87.3518 6.06448 87.3554 6.42227 87.8393 6.84311C88.0739 7.03704 88.362 7.13332 88.5476 7.15855C88.7413 7.18595 88.8472 7.17085 88.9196 7.1614C89.2264 7.08806 89.0119 7.13497 88.8831 7.24402C88.7321 7.35008 88.5451 7.50207 88.36 7.6646C87.9847 7.99422 87.5981 8.37451 87.2147 8.76707C86.4499 9.55232 85.701 10.3818 84.9709 11.2073C83.3598 13.0352 81.8326 14.844 80.4438 16.4858C78.634 18.6244 76.8701 20.6105 74.9688 22.6354C74.9497 22.6557 74.9306 22.6759 74.9116 22.696C74.2888 23.3525 73.6602 24.0112 72.9358 24.6938C72.7521 24.8649 72.5633 25.0379 72.3284 25.2302C72.2007 25.3329 72.0902 25.4236 71.8752 25.5626C71.7585 25.6318 71.6485 25.7154 71.325 25.829C71.2222 25.8626 71.0989 25.8959 70.9374 25.9153C70.7813 25.935 70.4549 25.9476 70.1131 25.8262C69.7287 25.7147 69.2758 25.3005 69.1339 25.0068C68.9663 24.7151 68.9175 24.4081 68.9067 24.2934C68.8786 23.9809 68.9112 23.8383 68.9294 23.7175C68.9543 23.5838 68.971 23.5273 68.9935 23.4486C69.0355 23.3077 69.075 23.2071 69.1086 23.124C69.1826 22.9437 69.2468 22.8123 69.3113 22.6832C69.4416 22.4249 69.5678 22.1994 69.6986 21.9717C70.1582 21.1785 70.6303 20.4308 71.1131 19.6566C71.8895 18.4157 72.7217 17.0924 73.6005 15.6792C74.3728 14.4359 75.1862 13.1233 75.9998 11.7544C76.1228 11.5471 76.2733 11.2944 76.44 11.0105C76.7626 10.4591 77.1644 9.76995 77.5691 8.97745C77.7675 8.58675 77.9723 8.15546 78.1118 7.77315C78.1801 7.59353 78.2279 7.3889 78.2255 7.39302C78.2381 7.40757 78.1733 7.47398 78.338 7.88C78.4214 8.07434 78.6389 8.35085 78.8933 8.49826C79.1454 8.64981 79.3535 8.68077 79.4705 8.69073C79.7503 8.69686 79.6633 8.66901 79.5868 8.7025C79.4976 8.7302 79.362 8.78494 79.2169 8.85362C78.9228 8.99239 78.5859 9.18313 78.241 9.39613C77.3596 9.94219 76.4163 10.6274 75.4582 11.3742C74.1769 12.374 72.8665 13.494 71.5657 14.7C70.6183 15.5973 69.6946 16.5218 68.7932 17.4697C68.0826 18.217 67.3809 18.9831 66.6723 19.7598C66.3177 20.1482 65.9623 20.5391 65.5952 20.9348C65.4109 21.1331 65.2243 21.3325 65.0207 21.5407C64.9176 21.6458 64.8139 21.7505 64.6811 21.8744C64.6157 21.9347 64.546 21.9998 64.4249 22.096C64.358 22.1456 64.3141 22.191 64.1008 22.3125C64.0452 22.3427 63.9792 22.3761 63.8907 22.4116C63.7594 22.4607 63.5632 22.5391 63.2103 22.5425C63.0875 22.5459 62.68 22.517 62.3228 22.3023C61.961 22.1108 61.6588 21.6732 61.5882 21.4766C61.412 21.0501 61.4365 20.7805 61.4466 20.6005C61.4716 20.3388 61.5261 20.1982 61.5444 20.1373C61.569 20.063 61.5974 19.9928 61.6125 19.9566C61.6494 19.8687 61.6809 19.803 61.7088 19.746C61.766 19.6299 61.814 19.5409 61.8619 19.4536C61.9561 19.2821 62.048 19.1243 62.1365 18.9743C62.3164 18.67 62.4906 18.385 62.6669 18.0979C63.0185 17.5262 63.3682 16.9647 63.7143 16.4044C64.4069 15.2837 65.088 14.1665 65.7387 13.0439C66.8415 11.116 68.0529 8.97093 68.6321 7.2292C68.6593 7.12414 68.6744 7.02852 68.6704 7.01782C68.6693 7.01568 68.6594 7.03564 68.6629 7.14281C68.6845 7.25361 68.6363 7.50466 69.0291 8.00374C69.2407 8.25547 69.5621 8.43829 69.8162 8.50522C70.0547 8.5715 70.2294 8.56679 70.3328 8.56047C70.5459 8.54127 70.5862 8.51489 70.6119 8.51113C70.6459 8.5019 70.5711 8.54224 70.4982 8.59531C70.342 8.70493 70.1405 8.86792 69.9537 9.03188C69.5751 9.36408 69.2148 9.722 68.8971 10.0553C68.3351 10.6471 67.8756 11.1921 67.4084 11.7586C67.0129 12.2391 66.6155 12.7342 66.1488 13.3084C65.8655 13.6573 65.5568 14.0354 65.2095 14.4566C64.4923 15.3254 63.6222 16.3374 63.0104 16.996C62.7256 17.3023 62.4972 17.5309 62.2907 17.738C62.0536 17.9759 61.8424 18.1885 61.6033 18.4645C61.4306 18.6639 61.2628 18.8811 61.0557 19.1491C60.7252 19.5769 60.2965 20.1331 59.5977 20.947C59.08 21.5496 58.5436 22.1744 57.986 22.813C57.7221 23.1148 57.4528 23.421 57.1687 23.7347C57.0246 23.8935 56.8771 24.0546 56.7063 24.232C56.619 24.3222 56.5298 24.4141 56.3973 24.5382C56.3253 24.6036 56.2655 24.6646 56.0794 24.8074C56.0241 24.8484 55.9868 24.877 55.8786 24.9461C55.82 24.9828 55.7509 25.0238 55.66 25.0701C55.5448 25.1225 55.5392 25.1458 55.1872 25.2545C55.0305 25.2978 54.8306 25.3415 54.5576 25.3483C54.4214 25.3512 54.2667 25.3438 54.095 25.3157C54.0037 25.3001 53.9378 25.2875 53.8103 25.2519C53.6798 25.2146 53.5437 25.164 53.4082 25.0985C52.853 24.8442 52.3899 24.3009 52.2071 23.8596C52.0004 23.3493 52.026 23.2391 51.9984 23.0542C51.9716 22.7201 52.0048 22.5179 52.0314 22.3623C52.0556 22.235 52.0697 22.186 52.0886 22.117C52.1684 21.851 52.1994 21.8013 52.239 21.7065C52.2777 21.6207 52.2973 21.5819 52.325 21.5271C52.3737 21.4314 52.4145 21.358 52.4495 21.2961C52.5231 21.1662 52.5891 21.0569 52.6493 20.9588C52.7741 20.7555 52.8953 20.5667 53.0119 20.3872C53.2499 20.0213 53.4851 19.6704 53.7215 19.3204C54.79 17.7441 55.8811 16.1805 56.9605 14.6251C58.6902 12.1317 60.4134 9.66493 61.8933 7.42249C62.3208 6.77006 62.7509 6.10159 63.0246 5.5967C63.0864 5.485 63.1431 5.35476 63.1229 5.40211C63.1172 5.41844 63.1043 5.45106 63.0837 5.53367C63.0667 5.62647 63.0164 5.75251 63.0354 6.14926C63.0589 6.38442 63.0801 6.66715 63.3382 7.1382C63.5607 7.56857 64.1213 8.02355 64.5154 8.15717C65.3727 8.44114 65.5725 8.28852 65.7562 8.2816C66.0447 8.21705 66.0291 8.19917 66.0387 8.20037C66.0357 8.20168 65.9956 8.22139 65.9518 8.24535C65.8585 8.29593 65.7327 8.37017 65.6029 8.44983C65.5384 8.48941 65.4682 8.53318 65.4028 8.57456C63.2612 9.93853 60.5352 12.1261 57.8511 14.707C56.412 16.0902 54.938 17.6157 53.4369 19.1549C52.8418 19.7643 52.2458 20.3743 51.6197 20.9898C51.3054 21.2979 50.9874 21.6053 50.6267 21.9292C50.4511 22.0857 50.2532 22.2592 50.0098 22.4464C49.8769 22.547 49.7384 22.6519 49.5062 22.7889C49.3509 22.8733 49.2651 22.9392 48.8818 23.0681C48.7918 23.0961 48.6895 23.1231 48.569 23.145C48.415 23.1728 48.2006 23.1969 47.9486 23.1787C47.5292 23.1981 46.477 22.775 46.0943 22.0722C45.8482 21.6787 45.773 21.3382 45.7373 21.0861C45.7097 20.8676 45.7126 20.7493 45.7171 20.619C45.7327 20.349 45.7553 20.261 45.7808 20.1287C45.8309 19.8974 45.8794 19.754 45.9203 19.6323C46.0101 19.373 46.089 19.1898 46.167 19.0117C46.3252 18.6548 46.4786 18.347 46.6342 18.0423C46.9395 17.4475 47.25 16.8832 47.5525 16.3419C48.1604 15.2566 48.7565 14.2331 49.3193 13.2622C49.8656 12.3198 50.4183 11.3654 50.9405 10.4251C51.1855 9.98265 51.4235 9.54491 51.6224 9.14089C51.7194 8.94402 51.808 8.7483 51.853 8.62625C51.8747 8.57107 51.8832 8.5229 51.8639 8.60279C51.8558 8.65064 51.8325 8.72209 51.8364 8.95113C51.8395 9.05441 51.8554 9.24521 51.9263 9.46823C52.0075 9.72498 52.166 10.0439 52.4621 10.3316C52.7581 10.6188 53.0901 10.7712 53.35 10.8432C53.5763 10.9075 53.7835 10.9171 53.8808 10.9161C54.1189 10.9112 54.1885 10.8848 54.2391 10.8749C54.3229 10.8524 54.2772 10.8638 54.2274 10.8882C54.1145 10.9396 53.9302 11.0379 53.7425 11.147C53.3657 11.3656 52.9465 11.6337 52.5354 11.9043C52.1372 12.1668 51.7378 12.4374 51.3377 12.712C47.7958 15.1598 44.404 17.666 41.4609 19.7001C40.8665 20.1117 40.0945 20.5865 39.1258 21.1764C38.9011 21.3133 38.663 21.4583 38.4205 21.6052C37.9103 21.9149 37.3502 22.2567 36.7425 22.6293C36.2344 22.9804 35.7318 23.3254 35.1974 23.6764C34.9278 23.8526 34.6571 24.0275 34.3423 24.213C34.1819 24.3062 34.0193 24.4009 33.7753 24.5162C33.6462 24.5738 33.5195 24.6386 33.2245 24.72C33.0554 24.7562 32.8886 24.8226 32.4122 24.79C32.1881 24.7678 31.8359 24.7028 31.4572 24.4586C31.0818 24.2227 30.7968 23.83 30.6743 23.533C30.4543 23.0033 30.5003 22.6562 30.5049 22.5059C30.5202 22.3166 30.5471 22.2007 30.567 22.1145C30.6149 21.9209 30.6486 21.8326 30.6883 21.7238C30.7573 21.5416 30.819 21.4083 30.8803 21.2787C30.9994 21.0304 31.1058 20.8317 31.2177 20.626C31.4351 20.2286 31.6508 19.8563 31.8654 19.4883C32.2949 18.7535 32.72 18.0407 33.1442 17.3213C33.9876 15.893 34.8153 14.4645 35.6167 13.0239C35.6869 12.88 35.7575 12.7345 35.8285 12.5872C35.8296 12.5849 35.8307 12.5825 35.8317 12.5801C35.9607 12.3131 36.0889 12.0448 36.2243 11.7606C36.6008 10.9735 37.0269 10.1274 37.5157 9.23399C37.7577 8.79051 38.0222 8.32656 38.282 7.87435C38.4119 7.64763 38.5409 7.42315 38.6446 7.22846C38.7448 7.05936 38.8254 6.79925 38.7287 7.07253C38.7131 7.14169 38.6937 7.19395 38.6746 7.40892C38.6665 7.53037 38.6598 7.69308 38.699 7.93555C38.7579 8.27041 38.9258 8.88686 39.5948 9.39474C39.9231 9.64049 40.3081 9.77463 40.6137 9.81898C40.7782 9.84336 40.8819 9.84487 40.9661 9.84514C41.0539 9.84483 41.1333 9.83955 41.205 9.83172C41.4854 9.801 41.6824 9.72637 41.746 9.70317C41.9221 9.63602 42.0085 9.58323 42.0471 9.56219C42.2124 9.46265 42.1599 9.49092 42.1458 9.50744C42.0933 9.55337 41.9929 9.6427 41.8941 9.73217C41.6911 9.91577 41.464 10.1229 41.235 10.3283C40.7756 10.7411 40.2863 11.1685 39.7724 11.6005C38.7524 12.4583 37.6271 13.3425 36.41 14.2332C36.0166 14.5214 35.6154 14.803 35.2055 15.0821C33.6412 16.1404 32.6332 16.7101 31.7282 17.2344C30.8409 17.7457 30.0464 18.1969 28.948 18.9211C27.995 19.5535 26.9133 20.3093 25.9036 21.1389C25.5673 21.4162 25.2354 21.6919 24.8863 21.9823C24.088 22.6462 23.2583 23.3423 22.3889 24.0566C21.9554 24.4121 21.5112 24.7738 21.0373 25.1431C20.7994 25.3278 20.5568 25.5135 20.2776 25.7111C20.1308 25.814 19.9883 25.9134 19.7735 26.0415C19.6521 26.1105 19.5547 26.1747 19.2768 26.2894C19.2094 26.3159 19.1266 26.3476 18.9936 26.3843C18.9294 26.4017 18.8576 26.4187 18.7746 26.4333C18.669 26.4518 18.535 26.4685 18.3745 26.469C18.1555 26.4784 17.3255 26.4143 16.7263 25.7561C16.1125 25.0341 16.1517 24.5451 16.1303 24.2216C16.2036 22.7711 16.5685 22.112 16.8862 21.3098C16.9817 21.0912 17.0885 20.8602 17.2005 20.6289C17.7689 19.4535 18.5447 18.1177 19.455 16.7123C20.2474 15.4911 21.1169 14.2113 22.0002 12.9472C23.4649 10.6687 24.9499 8.40399 26.3943 6.14844C27.2075 4.85617 28.1565 3.42497 28.6351 2.34628C28.6721 2.25972 28.706 2.16946 28.7063 2.16775C28.7081 2.19396 28.6852 2.12681 28.6613 2.50898C28.6669 2.61782 28.6404 2.7805 28.7878 3.17523C28.8714 3.37998 29.0255 3.66032 29.3413 3.90981C29.6571 4.15851 30.0158 4.26094 30.2855 4.28301C30.7738 4.31082 30.945 4.21037 31.0654 4.17328C31.1809 4.12727 31.235 4.09543 31.2784 4.07083C31.4262 3.97976 31.4045 3.98267 31.4058 3.98441C31.3992 3.98968 31.3766 4.00972 31.3507 4.03441C31.2981 4.08428 31.2308 4.15258 31.1615 4.22556C29.5096 6.06794 27.6308 8.12998 25.713 9.94582C23.96 11.6157 22.1638 13.145 20.4065 14.6841C19.0438 15.88 17.6732 17.0768 16.4846 18.2968C15.7341 19.0734 15.0306 19.879 14.377 20.7256C14.05 21.1484 13.7381 21.5798 13.4204 22.035C13.2604 22.2631 13.1005 22.498 12.9038 22.766C12.8003 22.9047 12.6959 23.0478 12.514 23.2465C12.4204 23.3453 12.3086 23.4655 12.0938 23.6205C11.893 23.7569 11.4729 24.0383 10.7903 23.9955C10.4808 23.9775 10.1143 23.8368 9.87271 23.6434C9.6199 23.4438 9.50693 23.2679 9.42048 23.1183C9.27338 22.8435 9.25205 22.6991 9.22505 22.5734C9.18896 22.3662 9.19367 22.2604 9.19363 22.1795C9.19768 22.0161 9.21053 21.9326 9.22157 21.8508C9.24456 21.6952 9.26844 21.5869 9.29267 21.4799C9.33981 21.2762 9.38895 21.099 9.43853 20.9271C9.53781 20.5852 9.64122 20.2648 9.74623 19.9487C9.95751 19.3151 10.175 18.7057 10.3992 18.0903C11.8899 14.0398 13.4797 10.0576 14.9401 6.08143C15.2036 5.35421 15.5277 4.45149 15.6156 4.01517C15.6181 4.00338 15.6175 3.99754 15.6155 4.0359C15.6236 4.08728 15.5779 4.10737 15.6876 4.48104C15.7417 4.63498 15.9071 5.03788 16.3962 5.30236C16.8758 5.55222 17.2801 5.47162 17.4144 5.44278C17.7609 5.34795 17.7596 5.30209 17.8034 5.2834C17.8735 5.22731 17.7081 5.36395 17.6051 5.47404C17.3671 5.7175 17.1073 6.01363 16.8487 6.31452C14.2485 9.39583 11.7301 12.6841 9.12199 15.8985C8.62854 16.5018 8.14134 17.0966 7.55797 17.7153C7.43688 17.8421 7.31074 17.9706 7.15909 18.1106C6.98467 18.2565 6.90648 18.3811 6.42185 18.6392C6.27161 18.6972 6.10935 18.8204 5.58266 18.8114C5.31829 18.8033 4.91136 18.6771 4.63313 18.4213C4.36099 18.1788 4.2434 17.9165 4.18417 17.748C4.07421 17.402 4.09216 17.2568 4.08944 17.1165C4.09226 16.9964 4.10403 16.8985 4.11505 16.8227C4.16385 16.514 4.22096 16.3387 4.27724 16.1518C5.64857 11.7765 7.77015 7.85796 8.68417 4.49142C8.71286 4.38891 8.72624 4.24424 8.72832 4.34668C8.73368 4.38262 8.72675 4.43918 8.78921 4.61562C8.82394 4.70436 8.88173 4.83435 9.02298 4.98338C9.16033 5.13285 9.39295 5.2606 9.57937 5.29851C9.96481 5.36908 10.0837 5.2846 10.1585 5.26664C10.2289 5.23895 10.2466 5.22468 10.256 5.21842C10.2672 5.2014 10.1262 5.29906 10.0223 5.38329C9.90964 5.47275 9.78924 5.57445 9.66768 5.67853C9.42321 5.88784 9.17415 6.10816 8.90278 6.33264C7.98253 7.09418 7.10577 7.97813 6.30824 8.77682C2.44064 12.7156 0.3799 15.0688 0.0471236 14.8465C-0.289241 14.6172 1.16696 11.7586 4.66575 7.31861C5.40386 6.40144 6.18366 5.43808 7.21239 4.433C7.41822 4.23222 7.64351 4.00011 7.88781 3.75679C8.16289 3.50015 8.30097 3.29467 8.89835 2.8938C8.98035 2.84542 9.07374 2.79117 9.23654 2.72951C9.40459 2.68076 9.63263 2.55619 10.1902 2.66149C10.4604 2.71746 10.7849 2.89621 10.9827 3.11087C11.1856 3.32498 11.2761 3.5217 11.3332 3.66964C11.4379 3.96376 11.438 4.11587 11.4477 4.24088C11.4563 4.6908 11.4087 4.8329 11.3819 5.0261C10.4966 9.23882 8.57381 12.9862 7.38119 17.0978C7.35042 17.1989 7.32731 17.3129 7.33487 17.2824C7.33645 17.2719 7.34121 17.2458 7.34307 17.1815C7.33852 17.1029 7.36414 17.0117 7.25979 16.6792C7.2283 16.5898 7.18987 16.497 7.11834 16.3763C7.04165 16.2476 6.93258 16.1067 6.78927 15.9803C6.48858 15.703 6.04353 15.5666 5.77011 15.5591C5.22463 15.5522 5.11289 15.6682 5.01055 15.7012C4.8442 15.786 4.8628 15.7895 4.86385 15.7841C4.87276 15.7765 4.90269 15.7502 4.93556 15.7189C5.00402 15.6539 5.0907 15.5649 5.17828 15.4707C5.61944 14.9935 6.09434 14.4079 6.55342 13.832C9.09256 10.6314 11.5462 7.34688 14.2302 4.09297C14.5103 3.76088 14.7828 3.43865 15.1282 3.07601C15.3207 2.88626 15.4379 2.72828 15.8925 2.40579C15.963 2.3596 16.0179 2.32347 16.1409 2.25932C16.2563 2.20283 16.3808 2.13696 16.6531 2.0717C16.8589 2.02635 17.4036 1.92763 18.019 2.25014C18.6481 2.58925 18.8747 3.11943 18.9552 3.3505C19.0468 3.6246 19.0569 3.78354 19.068 3.91147C19.0768 4.05224 19.074 4.12455 19.0705 4.20889C19.062 4.37102 19.0468 4.47351 19.0322 4.5679C18.7795 5.80716 18.5015 6.42182 18.2247 7.25535C16.7775 11.332 15.2311 15.3294 13.8122 19.3155C13.6017 19.9125 13.399 20.5009 13.2118 21.0829C13.1192 21.3714 13.0298 21.6606 12.9555 21.9276C12.9188 22.0595 12.8849 22.1907 12.8643 22.2862C12.8539 22.333 12.847 22.3759 12.8493 22.3652C12.8501 22.3556 12.8554 22.3432 12.8584 22.2394C12.8576 22.1859 12.8646 22.1091 12.8297 21.9065C12.8025 21.7827 12.7832 21.6336 12.6211 21.3303C12.5255 21.1651 12.3992 20.9671 12.1121 20.7404C11.8377 20.5206 11.4187 20.3597 11.0673 20.3395C10.6613 20.3062 10.3194 20.4325 10.1609 20.515C9.98589 20.6054 9.91809 20.6676 9.87381 20.7037C9.79311 20.7755 9.81093 20.7656 9.83063 20.7387C9.88012 20.6774 9.97705 20.5424 10.0743 20.4014C10.2713 20.1158 10.493 19.7859 10.7211 19.4609C11.125 18.8751 11.5533 18.2938 12.0018 17.7303C12.5708 17.0151 13.1546 16.3417 13.759 15.691C16.7508 12.5753 19.6905 10.1553 22.354 7.50745C22.5272 7.33612 22.6981 7.16501 22.8655 6.99498C23.4232 6.42902 23.9699 5.85651 24.5088 5.27391Z" fill="#9D6A4F" fill-opacity="0.6"/>
</svg>
