<svg width="153" height="28" viewBox="0 0 153 28" fill="none" xmlns="http://www.w3.org/2000/svg">
<path d="M14.5454 6.31C15.3124 5.02588 16.0904 3.59746 17.1273 1.72858C17.1924 1.61747 17.2602 1.50386 17.3507 1.36444C17.3991 1.29074 17.4467 1.21871 17.5282 1.10903C17.569 1.05491 17.6143 0.99496 17.6965 0.900696C17.8004 0.800054 17.8143 0.713067 18.3001 0.38346C18.4035 0.319239 18.6586 0.167381 19.0189 0.0764973C19.2533 0.0171413 19.5552 -0.023042 19.9022 0.014657C20.2629 0.0477562 20.7273 0.209985 21.0574 0.448059C21.3808 0.675433 21.5839 0.922395 21.7283 1.14529C21.8697 1.3705 21.9188 1.4956 21.9737 1.63914C22.0766 1.93481 22.0847 2.03868 22.1073 2.18048C22.1552 2.62563 22.122 2.71042 22.1157 2.83923C22.0928 3.05281 22.0709 3.14996 22.0519 3.24818C22.0137 3.43389 21.9812 3.5609 21.9495 3.68594C21.4751 5.40527 20.9201 6.66625 20.3555 8.12521C18.914 11.7367 17.3363 15.4994 16.0154 18.8576C15.1688 21.0102 14.4025 23.2994 14.3008 24.4337C14.2985 24.4643 14.2976 24.4886 14.2972 24.4996C14.297 24.4033 14.2923 24.2821 14.2654 24.1196C14.2426 23.9921 14.1858 23.6701 13.9572 23.2881C13.7874 22.9501 13.1543 22.3454 12.5285 22.2064C11.9508 22.0593 11.604 22.1291 11.3321 22.1877C10.9294 22.2915 10.765 22.4101 10.6875 22.4522C10.5964 22.5077 10.5394 22.5511 10.5111 22.5727C10.3365 22.7166 10.4278 22.6478 10.4586 22.61C10.5054 22.5605 10.5633 22.496 10.6262 22.4238C10.752 22.2794 10.8877 22.117 11.0242 21.9514C11.2986 21.6182 11.5824 21.2646 11.8661 20.9102C12.4374 20.196 13.0305 19.4493 13.6734 18.6485C13.7884 18.5052 13.8976 18.3693 14.0161 18.2222C15.7946 16.0321 18.0722 13.9636 20.7099 10.9335C21.296 10.2417 21.9017 9.50487 22.5274 8.70556C22.8386 8.30807 23.1559 7.89298 23.4813 7.45628C23.6449 7.23693 23.8047 7.01978 23.9835 6.77763C24.0715 6.65894 24.1618 6.5359 24.2814 6.38145C24.3517 6.29346 24.3931 6.23147 24.5699 6.03841C24.6092 5.99684 24.69 5.91167 24.8039 5.8149C24.8869 5.74547 24.9966 5.65544 25.1889 5.54485C25.246 5.51185 25.5036 5.36865 25.8211 5.29519C26.15 5.23217 26.6177 5.11839 27.3977 5.46189C28.1194 5.79472 28.4744 6.46351 28.5455 6.64308C28.6637 6.91323 28.7026 7.11391 28.7267 7.26974C28.7617 7.53507 28.7528 7.6121 28.7513 7.72685C28.7419 7.92298 28.7302 7.97618 28.7177 8.06374C28.5295 9.01643 28.3387 9.32138 28.1725 9.77788C28.0034 10.2001 27.8392 10.6028 27.6746 11.0197C27.347 11.848 27.0232 12.7116 26.6984 13.6315C26.3787 14.5377 26.0418 15.4686 25.6815 16.4407C25.2395 17.6714 24.7838 18.9006 24.3312 20.1117C24.1037 20.7216 23.8771 21.3254 23.6625 21.9148C23.5553 22.2101 23.4504 22.5035 23.3609 22.7718C23.3149 22.9098 23.2757 23.0337 23.2476 23.1333C23.2345 23.1792 23.2249 23.2204 23.2264 23.2145C23.2267 23.2121 23.2321 23.1905 23.2393 23.13C23.2334 23.0299 23.3123 23.0015 23.174 22.3747C23.0984 22.1434 22.9471 21.5415 22.1438 21.0504C21.2968 20.5977 20.7398 20.7707 20.4863 20.8202C20.0026 20.9659 19.9858 21.0339 19.9121 21.0691C19.8135 21.1369 19.8464 21.1183 19.8694 21.0963C19.9279 21.045 20.0357 20.9413 20.1394 20.8368C20.3512 20.6235 20.5821 20.3786 20.8132 20.13C21.2728 19.6352 21.7432 19.1154 22.2089 18.599C22.2251 18.581 22.2415 18.5629 22.2579 18.5446C25.2464 15.2255 28.1376 11.8255 31.3608 8.46537C31.6945 8.12737 32.0184 7.79963 32.4516 7.42153C32.698 7.22459 32.8349 7.04987 33.4842 6.70664C33.6791 6.62516 33.8696 6.49307 34.4926 6.43367C34.7661 6.41241 35.283 6.44241 35.77 6.69916C36.2884 6.96286 36.6363 7.40247 36.8027 7.73036C37.11 8.37092 37.0737 8.65351 37.0948 8.88484C37.1001 9.09673 37.0867 9.24286 37.0729 9.37093C36.8052 10.9193 36.496 11.4836 36.1975 12.4027C35.6329 13.9908 35.0546 15.5412 34.4987 17.087C34.2209 17.8595 33.9477 18.6285 33.6934 19.386C33.5666 19.7643 33.4448 20.1387 33.3393 20.4936C33.2866 20.6713 33.2392 20.8412 33.2053 20.9809C33.1883 21.0504 33.1759 21.1113 33.1733 21.127C33.1719 21.1338 33.1745 21.125 33.1786 21.0715C33.1809 21.0362 33.1842 20.9828 33.1807 20.8926C33.1734 20.8126 33.1791 20.5946 33.0316 20.2137C32.9183 19.9271 32.6561 19.4744 32.1356 19.1545C31.6143 18.8211 30.95 18.7805 30.5781 18.8592C30.3617 18.9009 30.2895 18.9313 30.1961 18.9645C30.1086 18.9975 30.0364 19.031 29.975 19.0625C29.8566 19.1229 29.7584 19.1905 29.7228 19.2163C29.5469 19.3469 29.5248 19.3847 29.5047 19.4028C29.4759 19.4347 29.5125 19.3944 29.5453 19.3509C29.6163 19.2591 29.7192 19.113 29.8132 18.974C30.0106 18.6823 30.217 18.3585 30.4215 18.0327C30.831 17.379 31.2454 16.6958 31.6593 16.0154C32.4907 14.6485 33.3284 13.2658 34.2277 11.882C35.8578 9.41128 37.5224 7.05072 39.8014 4.78402C39.9477 4.64543 40.0914 4.50608 40.3352 4.31047C40.4785 4.20695 40.5607 4.10561 41.0218 3.88317C41.1571 3.82568 41.3009 3.75981 41.6119 3.70184C41.8732 3.6612 42.4431 3.58256 43.136 3.95415C43.8112 4.3215 44.1153 4.94956 44.2062 5.23107C44.3235 5.59627 44.3214 5.7285 44.336 5.90659C44.347 6.44737 44.2873 6.56678 44.2567 6.7478C44.2196 6.91466 44.1862 7.03161 44.153 7.14418C44.0862 7.36824 44.021 7.55642 43.9561 7.73793C43.6987 8.4481 43.4395 9.07015 43.1749 9.70646C41.446 13.8024 39.6296 17.8032 37.9017 21.8003C37.6364 22.4183 37.2965 23.2177 37.1711 23.5819C37.1711 23.5814 37.1742 23.5718 37.1815 23.5427C37.1845 23.5305 37.1912 23.5034 37.1998 23.4588C37.2083 23.4026 37.2184 23.3946 37.2324 23.1802C37.2331 23.0636 37.2502 22.9967 37.1948 22.6739C37.1433 22.4418 37.0581 22.0601 36.6505 21.6097C36.2493 21.143 35.4666 20.8758 34.9768 20.9199C34.4675 20.9463 34.1894 21.0942 34.0059 21.1906C33.8305 21.2921 33.826 21.3032 33.7588 21.3512C33.6532 21.4313 33.5922 21.4898 33.5456 21.5357C33.415 21.6693 33.4026 21.6976 33.3865 21.7164C33.3426 21.7778 33.3955 21.7032 33.4231 21.6574C33.4936 21.5449 33.5787 21.4005 33.662 21.2567C33.8317 20.9635 34.0035 20.6575 34.1768 20.3465C35.9316 17.1778 37.6786 13.9261 39.5898 10.7285C40.1586 9.78097 40.7405 8.84088 41.3736 7.89717C41.693 7.42333 42.0195 6.95337 42.4016 6.46113C42.5957 6.21359 42.7976 5.96199 43.0774 5.67094C43.2274 5.52021 43.3697 5.36847 43.6837 5.14175C43.8576 5.03185 44.0249 4.8768 44.5852 4.72333C44.8836 4.65362 45.3617 4.58552 45.9542 4.81029C46.2383 4.91893 46.51 5.10025 46.7078 5.29509C46.8895 5.4721 47.0213 5.65989 47.1157 5.83131C47.4709 6.56763 47.3921 6.76003 47.4245 7.00264C47.4316 7.20925 47.4217 7.36102 47.4103 7.49848C47.386 7.76938 47.3519 7.96927 47.315 8.17009C47.2414 8.56086 47.1563 8.90542 47.068 9.24153C46.8908 9.91012 46.6977 10.5365 46.4964 11.1609C46.0937 12.4034 45.6611 13.6123 45.2118 14.8141C44.7724 15.9874 44.3164 17.1457 43.8583 18.2933C43.6297 18.8665 43.3997 19.438 43.1758 20.002C43.0638 20.2842 42.9545 20.5613 42.8504 20.8343C42.8005 20.9651 42.7489 21.1033 42.7076 21.2199C42.6874 21.2768 42.6683 21.3327 42.6565 21.3699C42.6512 21.3863 42.6473 21.4001 42.6497 21.3908C42.6514 21.3633 42.6647 21.4029 42.6917 21.0933C42.6955 20.9921 42.7038 20.855 42.6569 20.6043C42.6445 20.5413 42.6277 20.4707 42.6028 20.3911C42.5731 20.2926 42.4939 20.08 42.3618 19.8811C42.1337 19.4639 41.3967 18.9864 40.8734 18.9661C39.9499 18.9011 39.6044 19.2611 39.5077 19.2995C39.3951 19.3762 39.3301 19.4338 39.2806 19.4788C39.1281 19.6251 39.1307 19.6389 39.1129 19.6578C39.0904 19.6874 39.1098 19.6627 39.1251 19.64C39.1606 19.5885 39.2143 19.5053 39.2646 19.4252C39.3695 19.258 39.4814 19.0726 39.5926 18.8865C39.8156 18.513 40.0433 18.1244 40.2712 17.7367C40.7285 16.9584 41.1918 16.173 41.6737 15.386C43.0543 13.1356 44.5404 10.94 46.2236 8.84315C46.7376 8.20562 47.2671 7.57698 47.8612 6.94846C48.1615 6.63291 48.4715 6.32033 48.8529 5.99171C49.0472 5.82648 49.2518 5.65914 49.5402 5.4723C49.6857 5.37994 49.8535 5.27843 50.1018 5.17256C50.3584 5.08054 50.679 4.90585 51.4186 4.97765C51.8603 5.0203 52.4463 5.30575 52.7641 5.66961C53.0942 6.03163 53.211 6.34822 53.287 6.5805C53.4224 7.04505 53.4116 7.297 53.4147 7.52583C53.406 7.9683 53.3527 8.25798 53.2997 8.54781C53.1898 9.11121 53.0529 9.59207 52.9116 10.0613C52.6259 10.9972 52.3086 11.8757 51.9819 12.7455C51.3212 14.4926 50.6237 16.1865 49.9285 17.8778C49.7236 18.3843 49.5151 18.8985 49.3052 19.4169C48.7366 20.8281 48.1245 22.3136 47.6071 23.7394C47.5442 23.9159 47.4871 24.0821 47.4372 24.2391C47.3891 24.3854 47.3411 24.5756 47.3483 24.5509C47.3481 24.5232 47.3676 24.5383 47.3599 24.2575C47.3557 24.1985 47.3497 24.0777 47.2979 23.8872C47.2665 23.783 47.2499 23.7137 47.1539 23.5224C47.0574 23.3366 46.8976 23.1081 46.6483 22.91C46.156 22.4602 45.2266 22.4546 45.0246 22.5413C44.7341 22.6091 44.55 22.7216 44.4887 22.7575C44.3195 22.8627 44.2724 22.9139 44.2354 22.9454C44.1976 22.9804 44.1874 22.992 44.1782 23.0017C44.1624 23.0189 44.1707 23.0101 44.1815 22.9962C44.2325 22.9326 44.3345 22.7875 44.4277 22.6458C44.8151 22.055 45.2225 21.3565 45.6165 20.6711C47.7975 16.8327 49.9184 12.7923 52.0123 9.11067C52.517 8.22686 53.0191 7.36614 53.5531 6.5179C53.824 6.08968 54.0958 5.67249 54.4154 5.23525C54.5778 5.01498 54.7445 4.79616 54.9714 4.54353C55.0867 4.41694 55.2122 4.28409 55.4001 4.12366C55.6065 3.97014 55.7902 3.74726 56.4865 3.54795C56.7818 3.47407 57.3339 3.41141 57.9168 3.68714C58.4984 3.96419 58.7891 4.41376 58.9221 4.68404C59.17 5.23039 59.151 5.46665 59.1765 5.68568C59.1983 6.10241 59.1666 6.34157 59.1394 6.58898C59.0794 7.06545 58.9972 7.45238 58.9122 7.83154C58.7402 8.58366 58.5516 9.25458 58.364 9.89558C58.3111 10.0757 58.2599 10.247 58.2057 10.4259C56.6166 15.5185 55.0977 19.6404 53.8483 23.2566C53.6919 23.707 53.539 24.1491 53.4003 24.5667C53.3308 24.7763 53.2636 24.9841 53.208 25.1696C53.1814 25.2579 53.155 25.3519 53.14 25.4113C53.1319 25.4429 53.127 25.4664 53.1278 25.4582C53.1281 25.4535 53.1309 25.4389 53.1343 25.3913C53.1357 25.3685 53.1382 25.3372 53.1371 25.2695C53.1312 25.1876 53.145 25.1711 53.0896 24.9188C53.0606 24.8051 53.0144 24.6579 52.909 24.4757C52.7991 24.267 52.4588 23.8806 52.0223 23.7293C51.1709 23.4476 50.7108 23.7887 50.6213 23.8165C50.326 23.9872 50.3248 24.0281 50.2767 24.0666C50.2189 24.1262 50.2327 24.1166 50.2419 24.1048C50.2672 24.0749 50.3186 24.0062 50.3696 23.9338C50.4729 23.7876 50.585 23.6182 50.6946 23.4496C50.917 23.1067 51.1381 22.753 51.3544 22.405C52.2045 21.0326 52.9977 19.7193 53.7513 18.4786C55.6404 15.3159 57.5151 12.1454 59.4923 8.99497C60.077 8.06879 60.6744 7.14226 61.3122 6.22343C61.6365 5.75825 61.9634 5.3024 62.3417 4.82979C62.5313 4.5948 62.7334 4.35259 62.9888 4.09405C63.1209 3.96258 63.2629 3.82435 63.4853 3.6601C63.6066 3.57386 63.7295 3.48622 63.9671 3.38033C64.1934 3.29419 64.5897 3.10793 65.2648 3.29235C65.7372 3.42592 66.1123 3.80493 66.2617 4.06399C66.4262 4.33766 66.4705 4.51838 66.5097 4.67636C66.5743 4.97324 66.5728 5.15414 66.5739 5.31626C66.5699 5.63561 66.5381 5.86736 66.5048 6.09501C66.4356 6.54205 66.3478 6.92865 66.2545 7.31645C66.0677 8.08144 65.8588 8.80764 65.6439 9.53152C64.7346 12.5422 63.7536 15.4741 62.6382 18.4263C62.0826 19.7539 61.859 20.7505 60.69 22.4645C60.6167 22.5347 60.5722 22.6403 60.2048 22.8379C60.0206 22.9247 59.6628 23.0697 59.1517 22.9441C58.633 22.8215 58.2658 22.3809 58.1575 22.1227C58.0338 21.8575 58.0229 21.6657 58.015 21.5953C58.0121 21.5613 58.0107 21.5312 58.01 21.5041C58.0087 21.45 58.0103 21.4072 58.0125 21.3709C58.0226 21.2291 58.0379 21.171 58.0485 21.12C58.0733 21.0152 58.0776 21.01 58.0851 20.9836C58.0984 20.9402 58.1129 20.899 58.1211 20.876C58.1361 20.8341 58.1559 20.782 58.1682 20.7508C58.1955 20.6808 58.2228 20.614 58.2492 20.5505C58.302 20.4235 58.3522 20.3067 58.4057 20.1838C58.5088 19.9475 58.6116 19.7186 58.7188 19.4835C58.9272 19.0269 59.1419 18.5703 59.3584 18.1182C59.7922 17.2129 60.2365 16.3192 60.6917 15.4273C61.6005 13.6474 62.5437 11.8931 63.5221 10.1514C64.8122 7.99901 66.0604 6.042 68.7469 4.49906C69.0273 4.37033 69.5266 4.24877 70.0748 4.50765C70.3187 4.61977 70.5283 4.82532 70.6077 4.92753C70.7029 5.04383 70.7662 5.15224 70.8139 5.24865C70.9153 5.46575 70.924 5.52909 70.9545 5.64153C70.9798 5.7466 70.9916 5.82433 71.0004 5.88802C71.036 6.16949 71.0316 6.34473 71.0301 6.51114C71.0229 6.85731 70.9969 7.14745 70.9677 7.44026C70.9082 8.01797 70.8304 8.56767 70.7493 9.1136C70.5854 10.2049 70.4043 11.2706 70.2256 12.3386C69.8699 14.4661 69.5087 16.585 69.2666 18.6698C69.2684 18.648 69.275 18.6016 69.2666 18.4954C69.2628 18.4645 69.256 18.3222 69.1739 18.1231C69.0837 17.9289 68.942 17.6222 68.4439 17.3967C67.986 17.203 67.573 17.3356 67.512 17.3568C67.3844 17.3992 67.3101 17.4419 67.2579 17.4732C67.1566 17.5381 67.1609 17.5423 67.142 17.557C67.1126 17.5864 67.1909 17.5073 67.2492 17.4346C67.3725 17.2855 67.5263 17.077 67.6614 16.8868C67.9463 16.4855 68.2299 16.0585 68.5104 15.6282C69.073 14.7632 69.6239 13.88 70.1729 12.9915C71.2708 11.2141 72.3503 9.4135 73.4597 7.61744C74.0082 6.73336 74.5689 5.84923 75.1749 4.97289C75.483 4.52981 75.7939 4.09643 76.1645 3.64587C76.3534 3.41903 76.5471 3.194 76.816 2.94443C76.9537 2.82008 77.1017 2.68847 77.3517 2.53849C77.5886 2.42405 78.0281 2.09508 78.8785 2.36201C79.5489 2.62516 79.7756 3.12133 79.8837 3.37299C79.9912 3.64458 80.0242 3.84401 80.0512 4.02505C80.0982 4.3723 80.0976 4.6634 80.0927 4.92444C80.079 5.46005 80.0294 5.93966 79.9755 6.41298C79.865 7.35402 79.7246 8.26201 79.5956 9.1577C79.3451 10.9339 79.0712 12.7579 79.1692 14.3012C79.1674 14.295 79.1704 14.2704 79.1376 14.17C79.1178 14.1127 79.0844 14.0333 79.021 13.9397C78.9614 13.8476 78.8204 13.6934 78.6529 13.6005C78.2998 13.3953 77.9478 13.4514 77.8551 13.4779C77.7233 13.5138 77.7104 13.5314 77.6975 13.5365C77.6954 13.5441 77.8766 13.4017 78.0214 13.2537C78.3228 12.9537 78.6469 12.5721 78.9592 12.1866C79.5883 11.4069 80.1984 10.5781 80.8066 9.73925C81.8167 8.35324 82.7636 6.95044 83.8831 5.51287C84.2022 5.11628 84.501 4.73698 84.9016 4.30703C85.0073 4.19746 85.1096 4.08695 85.3021 3.93041C85.3495 3.89287 85.4102 3.84623 85.4961 3.79195C85.5712 3.74737 85.6972 3.66198 85.9477 3.59396C86.1113 3.55626 86.2885 3.51702 86.6071 3.58119C86.9332 3.64341 87.2672 3.89405 87.409 4.09968C87.4888 4.20626 87.5439 4.31188 87.5815 4.40214C87.6105 4.47182 87.6309 4.53576 87.6463 4.59419C87.6768 4.70986 87.6879 4.81246 87.6923 4.86686C87.7092 5.34139 87.6496 5.44127 87.6193 5.62112C87.584 5.77816 87.5465 5.91554 87.5074 6.052C87.2003 7.08081 86.8598 7.97929 86.5242 8.90979C84.6632 13.9682 82.7694 18.9886 80.7867 24.0122C80.6282 24.4084 80.4642 24.8128 80.299 25.2094C80.215 25.4108 80.1309 25.6104 80.0419 25.8142C80.0163 25.8725 79.9977 25.9151 79.9645 25.9873C79.9592 25.9987 79.9589 25.9996 79.9478 26.0227C79.9398 26.0386 79.9362 26.048 79.9077 26.1C79.8995 26.1145 79.8898 26.132 79.8687 26.1653C79.8497 26.1916 79.874 26.1682 79.7721 26.2977C79.7024 26.3584 79.7009 26.4564 79.2757 26.6649C79.0769 26.7621 78.5205 26.8647 78.0617 26.5511C77.6181 26.2409 77.5477 25.8952 77.5071 25.735C77.4507 25.3986 77.492 25.3364 77.4965 25.2608C77.5075 25.1953 77.5162 25.1631 77.5229 25.137C77.5363 25.0873 77.5435 25.0673 77.5493 25.0498C77.56 25.0186 77.5671 25.0006 77.5688 24.9962C77.5844 24.9562 77.5954 24.931 77.6003 24.9194C77.6142 24.8868 77.6265 24.8589 77.6386 24.8316C77.6862 24.7239 77.7338 24.6201 77.7798 24.5207C78.1521 23.7205 78.5459 22.9461 78.9544 22.1809C78.9978 22.0998 79.0421 22.0174 79.0874 21.9337C81.3313 17.8565 83.8143 14.0007 86.4874 10.2273C88.7095 7.33882 90.2199 4.53769 93.9189 1.94058C94.1933 1.832 94.5997 1.62883 95.2972 1.805C96.0429 2.0178 96.3814 2.66269 96.485 2.97458C96.7008 3.65226 96.6564 4.04117 96.6515 4.44957C96.6131 5.23584 96.4911 5.91697 96.3763 6.57998C96.299 7.0181 96.2057 7.4545 96.1005 7.88246C95.3012 11.0819 94.0483 13.8608 92.8858 16.5608C92.3818 17.7042 91.8427 18.7853 91.2908 19.8398C91.0143 20.3666 90.7353 20.8832 90.4466 21.3992C90.3025 21.6566 90.1569 21.9124 90.0054 22.1697C89.9284 22.3005 89.8526 22.4274 89.7664 22.5658C89.7252 22.6316 89.6825 22.6996 89.6213 22.79C89.5933 22.8304 89.5621 22.8785 89.489 22.9696C89.4621 23.0023 89.4316 23.0393 89.3753 23.0962C89.361 23.1105 89.3448 23.1262 89.3255 23.144C89.2768 23.1872 89.2142 23.2461 89.0745 23.33C88.9321 23.3991 88.7002 23.5783 88.1236 23.5166C87.4963 23.4544 87.0179 22.8312 86.9551 22.5316C86.8579 22.2095 86.8837 22.0592 86.8883 21.9481C86.8969 21.8459 86.9178 21.7561 86.9181 21.7541C86.9276 21.7109 86.9366 21.678 86.9447 21.6498C86.9611 21.5939 86.9747 21.5557 86.9873 21.5215C87.0697 21.3083 87.1011 21.2499 87.1546 21.1311C88.878 17.5936 90.649 14.5139 92.5364 11.6743C94.2198 9.17558 95.9933 7.01059 97.7776 5.16777C98.3841 4.54516 99.0088 3.93525 99.7132 3.33434C100.026 3.07529 100.299 2.83152 100.813 2.52758C100.953 2.45121 101.097 2.36452 101.405 2.27152C101.557 2.23136 101.771 2.17059 102.133 2.20078C102.484 2.21221 103.078 2.48425 103.345 2.85378C103.848 3.58841 103.722 3.84634 103.763 4.0505C103.77 4.24753 103.761 4.36635 103.757 4.46498C103.158 8.98158 102.071 12.7767 101.077 16.8477C100.378 19.7514 99.1262 23.0924 98.3638 25.1954C98.3673 25.1749 98.3725 25.1446 98.3774 25.0894C98.3797 25.0574 98.3819 25.041 98.3824 24.969C98.3781 24.8714 98.3894 24.7364 98.2869 24.441C98.2594 24.3669 98.222 24.2821 98.166 24.1876C98.1379 24.1404 98.1052 24.0908 98.0665 24.04C98.0006 23.9531 97.9146 23.8596 97.809 23.7738C97.3762 23.3894 96.6551 23.3746 96.3607 23.4939C96.2026 23.5421 96.0686 23.6173 96.0224 23.6457C95.985 23.6682 95.9531 23.6895 95.925 23.7095C95.8689 23.7495 95.8278 23.7839 95.7944 23.8136C95.6638 23.9338 95.6396 23.9772 95.622 23.9971C95.5524 24.0909 95.5768 24.0629 95.5798 24.0555C95.5965 24.0284 95.6318 23.9652 95.6622 23.9083C95.728 23.7859 95.7989 23.647 95.8679 23.5098C96.0079 23.2313 96.1486 22.9428 96.2874 22.6565C96.5648 22.0833 96.8403 21.5052 97.1121 20.9348C97.6566 19.7916 98.1894 18.6716 98.715 17.5799C99.3006 16.3585 99.8128 15.0869 100.315 13.861C100.847 12.5577 101.364 11.2926 101.917 10.0993C102.048 9.81701 102.178 9.54266 102.309 9.27427C103.725 6.6723 104.387 4.21 107.75 1.78087C107.995 1.67265 108.361 1.55209 108.864 1.66392C109.354 1.7755 109.689 2.09989 109.841 2.30723C110.138 2.73066 110.159 2.95099 110.212 3.13972C110.293 3.50642 110.301 3.75372 110.311 3.9912C110.324 4.46846 110.299 4.8746 110.268 5.28253C110.202 6.09387 110.098 6.85813 109.979 7.62585C109.739 9.1527 109.437 10.6499 109.091 12.142C108.454 14.8722 107.525 17.5118 106.374 20.0454C106.116 20.5702 105.845 21.0933 105.56 21.62C105.214 22.2578 104.847 22.9026 104.456 23.5558C104.387 23.6712 104.317 23.7885 104.19 23.9561C104.116 24.0458 104.069 24.1322 103.828 24.3328C103.767 24.3798 103.68 24.4475 103.522 24.5249C103.365 24.5922 103.116 24.722 102.63 24.6595C102.405 24.6273 102.153 24.522 101.972 24.3851C101.802 24.2613 101.673 24.1022 101.607 23.9991C101.459 23.7661 101.428 23.6257 101.398 23.5181C101.315 23.1162 101.354 23.0264 101.358 22.8913C101.37 22.771 101.386 22.6792 101.403 22.5925C101.438 22.4226 101.479 22.2791 101.526 22.1375C102.537 19.3668 103.71 16.6872 104.901 13.428C105.643 11.3998 106.654 9.24321 107.961 7.09978C108.474 6.25402 109.026 5.40823 109.64 4.55026C109.947 4.12152 110.269 3.69078 110.628 3.2535C110.807 3.03532 110.997 2.81334 111.215 2.58544C111.463 2.35175 111.579 2.14053 112.222 1.79303C112.347 1.73531 112.505 1.67795 112.713 1.65634C112.903 1.62808 113.299 1.67108 113.568 1.83901C113.84 1.99838 113.994 2.19584 114.094 2.36625C114.186 2.53092 114.212 2.61704 114.245 2.72189C114.34 3.08957 114.318 3.23166 114.32 3.39429C114.311 3.68918 114.276 3.91664 114.242 4.12868C114.17 4.55789 114.079 4.94657 113.981 5.3381C113.784 6.11512 113.56 6.87278 113.318 7.64797C112.621 9.86243 111.801 12.1601 110.858 14.5788C110.061 16.6348 109.014 18.7427 108.038 20.8049C107.984 20.9239 107.932 21.0419 107.884 21.1553C107.838 21.259 107.776 21.4181 107.779 21.4134C107.781 21.4075 107.782 21.4021 107.789 21.3775C107.793 21.3456 107.807 21.3546 107.824 21.1342C107.822 21.0389 107.851 20.9125 107.728 20.5824C107.663 20.421 107.509 20.1515 107.199 19.962C106.891 19.7665 106.5 19.7427 106.271 19.7929C106.138 19.8199 106.093 19.8402 106.053 19.8543C106.011 19.8701 105.974 19.8864 105.941 19.9025C105.876 19.9346 105.826 19.9653 105.785 19.993C105.626 20.1026 105.572 20.1747 105.554 20.1913C105.529 20.2196 105.511 20.2412 105.497 20.259C105.445 20.326 105.444 20.3321 105.434 20.3477C105.41 20.3863 105.424 20.364 105.431 20.3509C105.448 20.3179 105.473 20.2671 105.497 20.2159C105.547 20.111 105.596 19.9983 105.646 19.8815C106.366 18.1822 107.136 16.4 107.988 14.581C109.022 12.3717 109.915 10.6812 110.685 9.31298C111.668 7.591 112.518 6.43836 113.465 5.42323C113.513 5.37288 113.565 5.32024 113.617 5.26939C113.735 5.15925 113.817 5.05747 114.106 4.87731C114.183 4.83396 114.285 4.77381 114.476 4.72321C114.651 4.67262 115.075 4.63252 115.443 4.87738C115.796 5.11815 115.88 5.37292 115.933 5.50602C115.982 5.64926 115.994 5.74394 116.004 5.81914C116.04 6.34501 115.976 6.49254 115.948 6.74114C115.926 6.88879 115.901 7.03917 115.875 7.18704C115.58 8.74278 115.225 10.224 114.859 11.8993C114.696 12.636 114.524 13.4075 114.346 14.21C113.859 16.4757 113.183 19.1899 112.641 22.0811C112.638 22.1037 112.64 22.1066 112.641 22.0595C112.639 22.0187 112.651 21.9424 112.589 21.731C112.564 21.6686 112.576 21.6513 112.457 21.4489C112.355 21.2808 112.135 21.0497 111.826 20.9386C111.535 20.8187 111.159 20.8701 111.077 20.8991C110.956 20.9304 110.867 20.9709 110.799 21.0071C110.536 21.1616 110.527 21.2184 110.503 21.2349C110.482 21.2588 110.475 21.2685 110.474 21.2696C110.474 21.2698 110.486 21.2535 110.502 21.2272C110.566 21.127 110.658 20.962 110.743 20.8024C110.916 20.4774 111.096 20.1193 111.275 19.7602C111.639 19.0271 112.012 18.2648 112.414 17.4615C113.597 15.1441 114.555 13.0423 115.966 11.0429C116.121 10.8424 116.203 10.7362 116.417 10.5141C116.522 10.412 116.58 10.3458 116.796 10.1952C116.906 10.1262 116.964 10.0801 117.196 9.9997C117.438 9.92074 117.821 9.88293 118.199 10.082C118.568 10.2698 118.752 10.63 118.792 10.7322C118.858 10.8843 118.887 11.0119 118.907 11.1284C118.933 11.2939 118.938 11.4461 118.937 11.5774C118.935 11.8029 118.912 12.0257 118.888 12.2112C118.784 12.9802 118.628 13.6257 118.475 14.2657C118.161 15.5405 117.828 16.7034 117.508 17.8033C117.187 18.9047 116.879 19.925 116.585 20.901C116.442 21.3781 116.295 21.8632 116.163 22.3083C116.094 22.5421 116.027 22.7685 115.969 22.9743C115.936 23.0898 115.907 23.1911 115.881 23.2918C115.865 23.3482 115.854 23.3946 115.846 23.4271C115.841 23.4492 115.836 23.4715 115.836 23.4713C115.836 23.4713 115.837 23.4669 115.84 23.4527C115.838 23.4544 115.852 23.4228 115.85 23.2786C115.838 23.1965 115.871 23.0882 115.704 22.7627C115.618 22.6066 115.409 22.3626 115.083 22.2587C114.759 22.1513 114.458 22.2228 114.301 22.2924C114.055 22.4088 114.039 22.4738 114.016 22.4897C114 22.5082 114.01 22.4963 114.022 22.4753C114.048 22.4317 114.089 22.3518 114.128 22.2667C114.207 22.0963 114.29 21.8933 114.369 21.695C114.527 21.2937 114.68 20.8815 114.829 20.4849C115.127 19.6866 115.415 18.9273 115.696 18.2126C116.402 16.4121 116.996 14.8463 117.562 13.4062C118.155 11.9258 118.644 10.6199 119.396 9.17259C119.476 9.02635 119.554 8.88915 119.669 8.71832C119.77 8.58058 119.833 8.45595 120.124 8.19671C120.196 8.13647 120.314 8.04357 120.49 7.95932C120.594 7.90935 120.729 7.85894 120.89 7.8304C121.071 7.79723 121.304 7.7942 121.534 7.85445C122.031 7.98243 122.313 8.31992 122.425 8.49057C122.555 8.69097 122.592 8.80571 122.631 8.91649C122.743 9.29735 122.732 9.4455 122.745 9.61726C122.752 9.77877 122.75 9.91855 122.746 10.0497C122.728 10.5721 122.676 11.0303 122.622 11.4985C122.244 14.6297 121.341 17.9612 120.547 21.1199C120.548 21.1158 120.55 21.1115 120.556 21.0698C120.558 21.0488 120.562 21.0263 120.565 20.9651C120.564 20.908 120.581 20.8305 120.523 20.5838C120.502 20.5055 120.409 20.1645 120.086 19.8892C119.753 19.5521 119.04 19.5189 118.884 19.5887C118.437 19.7149 118.415 19.8052 118.335 19.8526C118.226 19.9456 118.219 19.965 118.204 19.9806C118.171 20.024 118.225 19.9542 118.259 19.9012C118.338 19.7803 118.426 19.6287 118.513 19.4742C118.687 19.162 118.858 18.8326 119.024 18.5033C119.355 17.843 119.669 17.1772 119.968 16.5251C120.135 16.1601 120.299 15.7993 120.46 15.4444C121.555 13.2359 122.469 10.088 124.996 6.14371C125.096 6.0374 125.193 5.93358 125.398 5.79518C125.499 5.72924 125.65 5.64067 125.87 5.58088C126.109 5.51417 126.457 5.4971 126.79 5.63002C127.446 5.92273 127.558 6.31978 127.649 6.48708C127.735 6.69057 127.764 6.82834 127.79 6.94866C127.879 7.42848 127.872 7.72914 127.875 8.05899C127.87 8.69639 127.823 9.28334 127.769 9.86607C127.658 11.0294 127.505 12.1579 127.347 13.2584C127.184 14.3805 127.02 15.4652 126.857 16.5044C126.708 17.4512 126.524 18.5282 126.308 19.7071C126.2 20.2961 126.083 20.9145 125.959 21.5564C125.897 21.8759 125.834 22.2025 125.771 22.5285C125.74 22.6918 125.71 22.8539 125.682 23.0119C125.668 23.0874 125.655 23.1664 125.645 23.2302C125.641 23.2606 125.637 23.2908 125.636 23.3025C125.635 23.3063 125.635 23.3113 125.637 23.2874C125.63 23.2465 125.669 23.284 125.598 22.9174C125.579 22.8575 125.583 22.8231 125.484 22.6238C125.407 22.501 125.363 22.3632 125.023 22.1151C124.822 21.9752 124.502 21.8616 124.197 21.8703C123.864 21.8829 123.714 21.9565 123.565 22.0269C123.283 22.1757 123.178 22.3197 123.137 22.3622C123.084 22.4241 123.052 22.4707 123.029 22.5071C122.989 22.5694 122.979 22.5916 122.968 22.6143C122.938 22.6786 122.955 22.6442 122.963 22.6184C122.984 22.5561 123.015 22.4559 123.044 22.3576C123.104 22.1547 123.165 21.93 123.227 21.7045C123.351 21.2533 123.481 20.7763 123.616 20.2983C123.88 19.3632 124.167 18.4004 124.489 17.4081C125.48 14.4338 126.748 11.4134 128.168 8.21249C128.37 7.7638 128.581 7.31144 128.805 6.85886C129.429 5.63358 130.002 4.47056 131.032 3.33848C131.16 3.2191 131.353 2.97098 131.935 2.86074C132.219 2.81209 132.588 2.86342 132.863 3.00691C132.932 3.04151 132.996 3.07992 133.053 3.11996C133.093 3.14777 133.129 3.17527 133.163 3.20346C133.23 3.25968 133.286 3.31638 133.334 3.37063C133.688 3.81674 133.663 4.00947 133.703 4.14725C133.727 4.28391 133.729 4.35869 133.731 4.43005C133.734 4.55242 133.731 4.59995 133.728 4.67675C133.723 4.78632 133.713 4.89821 133.705 4.98242C133.687 5.17367 133.668 5.33599 133.649 5.49757C133.61 5.82147 133.566 6.14479 133.525 6.44389C133.44 7.06215 133.357 7.6466 133.275 8.22232C133.112 9.37328 132.963 10.4523 132.829 11.4828C132.561 13.5399 132.355 15.3819 132.227 17.0408C132.23 17.0066 132.234 16.9562 132.23 16.8678C132.227 16.8234 132.223 16.769 132.212 16.6987C132.204 16.6713 132.184 16.4449 132.006 16.1431C131.856 15.8422 131.318 15.4158 130.847 15.3771C130.41 15.3195 130.113 15.4331 129.939 15.5121C129.57 15.7086 129.612 15.7288 129.543 15.7789C129.378 15.9475 129.434 15.9023 129.428 15.9015C129.446 15.8754 129.492 15.8004 129.539 15.7189C129.626 15.5663 129.727 15.3783 129.819 15.2029C130.008 14.8397 130.191 14.4717 130.369 14.1094C130.725 13.3798 131.055 12.6824 131.37 12.0069C132 10.6585 132.563 9.41997 133.091 8.24429C133.302 7.7763 133.506 7.31912 133.706 6.86788C134.133 5.90894 134.548 4.99048 135.033 4.03957C135.201 3.71544 135.374 3.38625 135.611 3.00814C135.74 2.81232 135.847 2.62545 136.14 2.31018C136.221 2.22778 136.315 2.13287 136.484 2.01114C136.665 1.90154 136.904 1.67602 137.592 1.63742C137.945 1.62593 138.361 1.74675 138.654 1.94657C138.93 2.12986 139.097 2.3423 139.194 2.48766C139.392 2.79865 139.43 2.96367 139.477 3.117C139.653 3.89373 139.585 4.13073 139.585 4.50626C139.57 4.84736 139.541 5.16354 139.507 5.47726C139.438 6.10248 139.348 6.70678 139.248 7.31779C139.047 8.53799 138.804 9.76595 138.539 11.0159C138.052 13.2972 137.498 15.6306 136.905 17.9766C136.604 19.15 136.321 20.2837 135.938 21.5319C135.929 21.5625 135.918 21.5943 135.904 21.6337C135.897 21.6535 135.888 21.6752 135.878 21.7012C135.869 21.7193 135.86 21.7646 135.762 21.9445C135.7 22.0385 135.663 22.1612 135.348 22.4473C135.264 22.5184 135.155 22.6011 134.996 22.6841C134.917 22.7253 134.825 22.7661 134.717 22.8013C134.663 22.8188 134.606 22.8349 134.545 22.8485C134.463 22.8668 134.366 22.8821 134.267 22.8887C133.867 22.9247 133.383 22.7817 133.082 22.5619C132.772 22.3443 132.617 22.1124 132.52 21.9445C132.338 21.6027 132.328 21.4398 132.304 21.318C132.286 21.1993 132.284 21.1291 132.282 21.0724C132.28 20.9361 132.282 20.978 132.283 20.9415C132.286 20.8571 132.292 20.8106 132.296 20.7673C132.311 20.6484 132.322 20.5834 132.332 20.5271C132.353 20.4001 132.372 20.2991 132.391 20.2031C132.431 19.9983 132.47 19.8112 132.511 19.6167C132.592 19.2361 132.676 18.8608 132.763 18.4874C132.935 17.7412 133.117 17.0052 133.307 16.2772C133.692 14.8162 134.093 13.3966 134.619 11.9718C135.594 9.37762 136.815 7.08934 138.237 5.15286C138.469 4.84837 138.714 4.54416 138.981 4.24222C139.052 4.16164 139.141 4.0704 139.269 3.97024C139.405 3.87285 139.525 3.75967 139.934 3.62468C140.303 3.50268 140.855 3.50878 141.266 3.68769C141.677 3.85044 141.97 4.15737 142.072 4.28946C142.297 4.57161 142.38 4.81183 142.415 4.90101C142.457 5.01587 142.485 5.12585 142.5 5.18975C142.559 5.46196 142.565 5.60434 142.576 5.73304C142.593 5.99434 142.592 6.19647 142.59 6.39052C142.584 6.78053 142.563 7.13581 142.539 7.48697C142.491 8.18498 142.422 8.8674 142.347 9.5403C142.194 10.8907 142.007 12.2227 141.791 13.5561C141.306 16.6919 140.314 20.1232 140.293 22.409C140.29 22.3685 140.284 22.3063 140.26 22.1991C140.235 22.1561 140.221 21.7862 139.736 21.3071C139.415 20.9594 138.622 20.7196 138.15 20.842C137.758 20.9217 137.604 21.0313 137.46 21.1214C137.179 21.3266 137.198 21.3455 137.135 21.4086C137 21.5778 137.056 21.52 137.067 21.4923C137.11 21.4172 137.182 21.271 137.246 21.1308C137.381 20.8386 137.518 20.5152 137.652 20.1899C137.922 19.5357 138.189 18.8579 138.455 18.1769C138.99 16.8143 139.514 15.4397 140.114 14.0344C140.532 13.0626 140.961 12.0968 141.436 11.1209C141.674 10.6334 141.922 10.145 142.208 9.6406C142.352 9.38686 142.504 9.13195 142.689 8.85676C142.897 8.57256 143.022 8.31357 143.582 7.84309C143.743 7.71845 143.961 7.58371 144.255 7.49812C144.56 7.4006 145.037 7.39112 145.393 7.51705C145.725 7.62654 145.958 7.79592 146.125 7.9503C146.271 8.08822 146.347 8.18841 146.421 8.29339C146.67 8.67285 146.704 8.84049 146.769 9.01811C146.869 9.33543 146.913 9.57928 146.951 9.79438C147.027 10.239 147.067 10.6297 147.103 11.02C147.173 11.8 147.21 12.5416 147.242 13.2845C147.302 14.7666 147.327 16.2309 147.349 17.6897C147.361 18.462 147.368 19.2294 147.374 19.989C147.375 20.1577 147.38 20.3303 147.388 20.4424C147.389 20.4898 147.405 20.5577 147.379 20.4472C147.368 20.4112 147.363 20.3746 147.306 20.2414C147.277 20.179 147.241 20.0951 147.134 19.9463C147.046 19.836 146.841 19.5363 146.316 19.3457C145.747 19.1346 145.127 19.3336 144.905 19.4786C144.663 19.6222 144.567 19.7356 144.501 19.8049C144.372 19.9535 144.353 20.0038 144.328 20.0426C144.26 20.1735 144.301 20.1045 144.314 20.0636C144.333 20.0132 144.357 19.9429 144.381 19.8699C144.429 19.7205 144.478 19.5531 144.527 19.3811C145.832 14.8898 147.476 10.8882 149.137 7.58825C149.309 7.27437 149.381 7.03876 149.821 6.52673C149.885 6.46036 149.967 6.37583 150.11 6.27423C150.257 6.17904 150.476 6.01895 150.931 5.99296C151.4 5.96107 151.87 6.25757 152.029 6.45202C152.212 6.65398 152.273 6.79679 152.323 6.90569C152.485 7.32353 152.473 7.48961 152.496 7.68642L152.503 7.76989C152.504 7.99804 152.494 8.21198 152.48 8.41827C152.281 10.6285 151.792 12.2316 151.399 13.4902L151.393 13.5168C150.653 15.4075 150.221 16.2697 149.978 16.2478C149.723 16.2136 149.721 15.0827 150.007 13.1842L150.003 13.2018C150.105 11.943 150.311 10.2591 150.253 8.38016C150.245 8.21246 150.233 8.04581 150.214 7.88882L150.219 7.95359C150.206 7.87183 150.16 7.75961 150.19 7.86306C150.204 7.89405 150.221 7.95047 150.322 8.06426C150.405 8.17193 150.713 8.37179 151.019 8.35063C151.313 8.33339 151.428 8.23757 151.493 8.19928C151.556 8.1556 151.574 8.13501 151.585 8.12657C151.611 8.10605 151.464 8.3813 151.387 8.59995C150.107 11.8971 148.72 15.9309 147.606 20.207C147.556 20.4017 147.505 20.5968 147.443 20.8084C147.412 20.9133 147.378 21.0233 147.335 21.1465C147.286 21.2783 147.26 21.3817 147.115 21.648C147.074 21.7168 147.033 21.7969 146.896 21.9547C146.827 22.0283 146.729 22.1393 146.509 22.2696C146.305 22.4018 145.764 22.5735 145.267 22.3896C144.809 22.224 144.619 21.9546 144.535 21.8472C144.432 21.7049 144.392 21.6149 144.359 21.5434C144.293 21.3882 144.277 21.3186 144.257 21.2457C144.193 20.9837 144.187 20.8642 144.171 20.7271C144.148 20.4715 144.14 20.2558 144.134 20.0439C144.115 19.2836 144.097 18.5186 144.079 17.7521C144.044 16.3054 144.005 14.8593 143.935 13.4351C143.898 12.7239 143.855 12.0173 143.788 11.3335C143.754 10.9958 143.714 10.6609 143.662 10.3739C143.639 10.2412 143.604 10.0948 143.588 10.0527C143.588 10.0389 143.558 10.0252 143.674 10.2052C143.71 10.2569 143.752 10.3134 143.844 10.401C143.95 10.4991 144.112 10.6198 144.354 10.6997C144.613 10.7922 144.97 10.7847 145.188 10.7144C145.398 10.6529 145.545 10.5596 145.642 10.4846C145.745 10.3889 145.57 10.571 145.478 10.7246C145.368 10.8903 145.253 11.0856 145.139 11.2895C144.912 11.6983 144.692 12.1404 144.478 12.5886C144.049 13.4897 143.643 14.4222 143.247 15.3652C142.705 16.6677 142.191 18.0465 141.667 19.4181C141.404 20.1074 141.139 20.7981 140.858 21.4977C140.716 21.8482 140.572 22.1984 140.404 22.5716C140.32 22.7565 140.232 22.9487 140.108 23.175C140.03 23.308 139.997 23.3995 139.773 23.6756C139.688 23.7638 139.688 23.7993 139.406 24.0053C139.265 24.0942 139.119 24.1945 138.768 24.2657C138.345 24.3737 137.653 24.1642 137.365 23.8543C136.932 23.4322 136.895 23.0507 136.87 22.9891C136.841 22.8624 136.83 22.7661 136.823 22.6801C136.864 18.7966 137.863 16.0838 138.277 13.0004C138.474 11.7201 138.644 10.4332 138.779 9.15161C138.846 8.51465 138.904 7.87053 138.943 7.25004C138.962 6.94055 138.977 6.63012 138.979 6.34967C138.98 6.21462 138.977 6.07498 138.97 5.99314C138.969 5.96015 138.958 5.91709 138.976 6.00451C139.011 6.07371 138.931 6.09598 139.256 6.56013C139.333 6.65974 139.563 6.90418 139.897 7.03695C140.231 7.18255 140.683 7.18698 140.979 7.08882C141.306 6.98066 141.395 6.8932 141.497 6.82112C141.592 6.74698 141.653 6.68354 141.698 6.63234C141.235 7.16551 140.784 7.79515 140.369 8.44286C139.415 9.93776 138.616 11.5687 137.983 13.2494C137.512 14.5153 137.117 15.9 136.752 17.2802C136.571 17.9714 136.398 18.6708 136.236 19.3648C136.155 19.7138 136.076 20.0632 136.002 20.406C135.964 20.5834 135.93 20.747 135.898 20.9152C135.882 20.9929 135.867 21.0733 135.856 21.142C135.852 21.1653 135.845 21.2129 135.85 21.1757C135.852 21.1605 135.855 21.1369 135.857 21.0687C135.857 21.0609 135.863 21.0168 135.851 20.8696C135.842 20.7938 135.835 20.6958 135.775 20.5029C135.7 20.3261 135.626 19.9438 135.002 19.5471C134.696 19.3615 134.251 19.2783 133.913 19.3312C133.587 19.3823 133.466 19.4505 133.317 19.5262C133.047 19.6782 132.934 19.8088 132.849 19.9009C132.692 20.0861 132.659 20.1677 132.622 20.231C132.559 20.3577 132.563 20.3606 132.555 20.3771C132.549 20.3919 132.546 20.4022 132.543 20.4099C132.537 20.4252 132.536 20.4301 132.536 20.4299C133.48 17.1958 134.323 13.6596 135.071 10.2595C135.319 9.11001 135.55 7.96602 135.745 6.82891C135.842 6.26221 135.929 5.69589 135.993 5.15264C136.025 4.88279 136.051 4.6143 136.063 4.37551C136.07 4.25617 136.072 4.14425 136.07 4.05955C136.073 3.98638 136.046 3.88462 136.084 4.05146C136.115 4.12555 136.1 4.23006 136.371 4.57806C136.448 4.66992 136.554 4.7733 136.692 4.86746C136.841 4.9706 137.032 5.05991 137.23 5.10793C137.644 5.20902 137.985 5.12796 138.169 5.06151C138.541 4.91104 138.573 4.83176 138.634 4.78822C138.677 4.74841 138.684 4.73747 138.684 4.73881C138.669 4.75364 138.568 4.90111 138.485 5.04195C138.309 5.33891 138.123 5.69475 137.944 6.05361C137.581 6.78158 137.232 7.53887 136.885 8.30718C136.153 9.92923 135.407 11.5497 134.643 13.1647C134.26 13.9739 133.874 14.7798 133.47 15.5915C133.268 15.9972 133.064 16.402 132.842 16.8195C132.734 17.0219 132.614 17.2424 132.483 17.4648C132.41 17.5884 132.338 17.7082 132.233 17.8605C132.145 17.9739 132.155 18.0035 131.868 18.2861C131.832 18.3194 131.79 18.3558 131.738 18.3962C131.661 18.4541 131.516 18.5615 131.283 18.6542C131.05 18.7436 130.668 18.8489 130.164 18.7213C129.583 18.5817 129.156 18.1012 129.017 17.7983C128.936 17.6407 128.896 17.5101 128.869 17.402C128.843 17.292 128.844 17.2884 128.836 17.2376C128.823 17.155 128.818 17.087 128.815 17.0276C128.81 16.9093 128.815 16.8239 128.821 16.7498C128.968 15.0351 129.172 13.3431 129.398 11.663C129.57 10.3906 129.756 9.12343 129.944 7.86441C130.039 7.23367 130.133 6.61203 130.224 5.98731C130.268 5.68314 130.314 5.36556 130.352 5.07083C130.37 4.92582 130.388 4.78178 130.402 4.64851C130.407 4.59151 130.413 4.52233 130.414 4.49701C130.415 4.48384 130.414 4.4716 130.415 4.52233C130.417 4.55698 130.415 4.59675 130.439 4.73399C130.481 4.8638 130.446 5.07278 130.858 5.5777C130.987 5.70731 131.055 5.80627 131.415 5.99069C131.734 6.14668 132.15 6.19344 132.464 6.13482C133.108 6.0031 133.316 5.73204 133.451 5.60776C132.628 6.49088 131.827 8.10184 131.143 9.575C129.833 12.4697 128.547 15.4767 127.564 18.4063C127.272 19.303 126.999 20.2058 126.74 21.1193C126.61 21.5761 126.484 22.0326 126.355 22.5035C126.289 22.7397 126.225 22.9726 126.15 23.2291C126.113 23.3561 126.074 23.4884 126.017 23.6539C125.988 23.7358 125.96 23.8257 125.88 24.0005C125.856 24.051 125.823 24.1166 125.776 24.1958C125.754 24.2328 125.705 24.3103 125.645 24.3878C125.57 24.4738 125.547 24.5403 125.26 24.7596C125.126 24.8553 124.94 24.9638 124.681 25.034C124.412 25.1186 123.913 25.1215 123.565 24.9711C123.387 24.9008 123.237 24.8078 123.118 24.7146C123.019 24.636 122.967 24.584 122.909 24.5218C122.798 24.4019 122.727 24.2954 122.674 24.205C122.56 24.0018 122.554 23.9584 122.523 23.8781C122.498 23.8064 122.481 23.7477 122.469 23.696C122.371 23.195 122.424 23.1995 122.418 23.0974C122.423 23.013 122.427 22.9834 122.432 22.9333C122.442 22.8528 122.452 22.7826 122.46 22.7305C122.479 22.6098 122.496 22.5116 122.514 22.4163C122.549 22.2227 122.585 22.0311 122.62 21.8531C122.692 21.4837 122.762 21.1287 122.833 20.7688C122.973 20.0526 123.112 19.3351 123.245 18.6245C123.514 17.1898 123.765 15.7644 124.004 14.3271C124.091 13.8043 124.174 13.2957 124.258 12.7715C124.373 12.0463 124.481 11.3218 124.575 10.6051C124.66 9.88727 124.734 9.16752 124.766 8.50056C124.782 8.17265 124.784 7.8354 124.763 7.63129C124.759 7.58583 124.752 7.54772 124.752 7.55406C124.761 7.56567 124.731 7.59416 124.886 7.87286C124.935 7.95242 124.996 8.04247 125.109 8.15656C125.234 8.28043 125.404 8.41137 125.645 8.50931C126.154 8.72257 126.673 8.59596 126.857 8.5122C127.273 8.31546 127.239 8.26173 127.276 8.24362C125.839 10.5957 124.293 14.6782 122.928 17.821C122.61 18.5642 122.287 19.2911 121.941 20.0162C121.766 20.3803 121.589 20.7399 121.388 21.1128C121.287 21.3008 121.182 21.4897 121.042 21.7125C120.96 21.8356 120.914 21.9287 120.695 22.1839C120.616 22.2629 120.589 22.3279 120.28 22.5487C120.217 22.5897 120.08 22.682 119.852 22.7658C119.738 22.807 119.6 22.8463 119.43 22.8682C119.199 22.899 118.879 22.8904 118.56 22.7808C117.861 22.5323 117.558 22.0525 117.413 21.7404C117.336 21.5641 117.317 21.4819 117.296 21.4003C117.276 21.3192 117.263 21.2484 117.255 21.1854C117.211 20.7368 117.255 20.6803 117.264 20.566C117.281 20.4568 117.292 20.4102 117.307 20.3443C117.972 17.5067 118.599 14.9477 118.978 12.7246C119.076 12.1559 119.159 11.6067 119.222 11.0839C119.281 10.5934 119.334 10.0809 119.334 9.793C119.337 9.7383 119.32 9.66624 119.347 9.82086C119.357 9.86717 119.367 9.92259 119.419 10.0592C119.481 10.1831 119.518 10.3889 119.929 10.7647C120.111 10.9266 120.463 11.1247 120.807 11.1826C121.139 11.2488 121.481 11.1993 121.656 11.1472C122.076 11.0178 122.179 10.9031 122.274 10.8381C122.563 10.5841 122.463 10.6403 122.461 10.6625C122.435 10.6998 122.396 10.7642 122.352 10.8418C120.843 13.8146 119.679 16.8122 118.609 19.2551C118.588 19.3031 118.568 19.3506 118.548 19.3976C118.197 20.2124 117.876 20.9972 117.56 21.784C117.401 22.1779 117.246 22.5701 117.068 22.9872C116.979 23.196 116.885 23.4133 116.757 23.666C116.69 23.7968 116.619 23.9338 116.497 24.12C116.436 24.2113 116.362 24.3197 116.234 24.4637C116.095 24.605 115.94 24.8045 115.463 25.022C115.265 25.1059 114.97 25.1925 114.595 25.1646C114.223 25.1424 113.81 24.9651 113.549 24.739C113.021 24.2639 112.98 23.8935 112.925 23.6988C112.854 23.3029 112.891 23.2146 112.894 23.1126C112.905 23.0088 112.909 23.0019 112.911 22.9842C112.914 22.9674 112.916 22.9521 112.919 22.9377C112.93 22.8807 112.939 22.8374 112.949 22.7957C112.971 22.6998 112.979 22.6726 112.993 22.6207C113.019 22.522 113.047 22.4259 113.069 22.3493C113.121 22.1691 113.163 22.0282 113.215 21.8559C113.308 21.5459 113.404 21.234 113.5 20.9146C113.862 19.718 114.358 18.0967 114.902 16.1473C115.16 15.2159 115.433 14.2019 115.663 13.1609C115.774 12.6571 115.886 12.084 115.917 11.6941C115.925 11.5994 115.92 11.5156 115.923 11.5772C115.931 11.6016 115.914 11.7082 116.063 12.0223C116.131 12.1685 116.394 12.5779 116.862 12.7911C117.33 13.0124 117.789 12.974 118.054 12.8981C118.199 12.8573 118.269 12.8225 118.318 12.7997C118.371 12.7743 118.413 12.7505 118.446 12.7297C118.513 12.6882 118.55 12.6578 118.568 12.643C118.594 12.6208 118.591 12.6216 118.573 12.6418C118.534 12.6847 118.479 12.7516 118.398 12.8607C117.586 14.0128 116.693 15.8583 115.832 17.6258C115.397 18.5273 114.959 19.4548 114.499 20.4129C114.269 20.8914 114.037 21.3729 113.783 21.8754C113.66 22.1171 113.522 22.3854 113.363 22.6647C113.266 22.8283 113.214 22.9407 112.987 23.2412C112.953 23.2847 112.914 23.3317 112.865 23.3854C112.839 23.4139 112.819 23.4352 112.777 23.4767C112.719 23.5324 112.65 23.5958 112.55 23.6698C112.449 23.7431 112.318 23.8301 112.112 23.9137C112.008 23.9551 111.892 23.9937 111.736 24.0225C111.494 24.0681 111.17 24.0731 110.842 23.9752C110.152 23.7782 109.755 23.2184 109.628 22.9161C109.548 22.7332 109.523 22.6313 109.498 22.5236C109.454 22.3187 109.45 22.1872 109.448 22.0772C109.447 21.9783 109.45 21.9528 109.452 21.8984C109.458 21.8022 109.468 21.7213 109.478 21.6434C110.182 17.927 111.115 14.6674 111.963 11.1927C112.364 9.54539 112.813 7.82412 113.023 6.37353C113.045 6.22231 113.058 6.03521 113.057 6.09312C113.06 6.11857 113.053 6.15731 113.09 6.32789C113.114 6.4207 113.136 6.54233 113.271 6.78086C113.389 7.00049 113.742 7.41469 114.261 7.56952C114.777 7.72222 115.106 7.62707 115.288 7.57733C115.474 7.51866 115.558 7.46718 115.617 7.43442C115.733 7.36453 115.756 7.33831 115.771 7.3262C115.79 7.30927 115.775 7.32091 115.756 7.34079C114.968 8.17278 114.085 9.48199 113.371 10.7673C111.589 13.9664 109.934 17.4802 108.385 21.043C108.323 21.186 108.26 21.3253 108.186 21.4778C108.149 21.5541 108.112 21.6301 108.061 21.7253C108.034 21.776 108.013 21.818 107.946 21.9252C107.931 21.9496 107.904 21.9923 107.856 22.0576C107.815 22.1084 107.799 22.14 107.67 22.2688C107.554 22.3564 107.503 22.4979 106.942 22.6804C106.687 22.7527 106.241 22.7825 105.817 22.5816C105.391 22.3862 105.134 22.0344 105.025 21.8003C104.883 21.4817 104.892 21.3985 104.87 21.2691C104.843 20.8127 104.88 20.8742 104.886 20.7788C104.898 20.711 104.905 20.6847 104.912 20.658C104.925 20.604 104.935 20.5719 104.943 20.547C105.048 20.2334 105.091 20.1583 105.158 19.9988C105.22 19.8581 105.281 19.725 105.342 19.5923C105.457 19.3466 105.57 19.1145 105.682 18.8891C106.608 17.0347 107.476 15.278 108.183 13.5321C109.014 11.4814 109.758 9.48615 110.385 7.63275C110.698 6.70539 110.98 5.81623 111.212 4.97766C111.326 4.56111 111.428 4.15417 111.498 3.79745C111.533 3.61468 111.557 3.44902 111.564 3.35014C111.57 3.31039 111.554 3.26754 111.581 3.4175C111.592 3.46648 111.61 3.53712 111.654 3.63659C111.693 3.72494 111.81 3.94445 112.036 4.11877C112.261 4.31273 112.685 4.42703 112.927 4.40059C113.145 4.38788 113.291 4.33132 113.385 4.28804C113.567 4.18375 113.388 4.29039 113.31 4.37789C113.21 4.47407 113.099 4.59211 112.992 4.7138C112.775 4.95925 112.564 5.22335 112.368 5.48007C111.972 5.99719 111.626 6.49552 111.33 6.94249C110.989 7.45751 110.654 7.98856 110.332 8.52929C109.234 10.3609 108.289 12.2958 107.533 14.3879C106.491 17.2885 105.227 20.2915 104.27 22.9979C104.253 23.0508 104.239 23.1038 104.233 23.1331C104.23 23.1468 104.229 23.1558 104.231 23.1383C104.227 23.1069 104.255 23.1182 104.203 22.8387C104.183 22.7652 104.165 22.6633 104.051 22.4645C103.96 22.2961 103.647 21.9304 103.18 21.8278C102.717 21.7266 102.433 21.8547 102.302 21.9081C102.145 21.9808 102.09 22.0274 102.039 22.0656C101.869 22.2076 101.887 22.2158 101.874 22.2263C101.87 22.2347 101.907 22.1793 101.94 22.1226C102.707 20.7922 103.393 19.4326 103.993 18.0806C104.995 15.8223 105.752 13.5785 106.258 11.4725C106.667 9.76901 106.986 8.15682 107.201 6.71266C107.306 5.99598 107.387 5.30696 107.418 4.70632C107.434 4.40894 107.436 4.12019 107.418 3.91973C107.412 3.82864 107.385 3.73388 107.405 3.81104C107.429 3.84869 107.42 3.97118 107.721 4.24011C107.885 4.38136 108.174 4.50369 108.433 4.50889C108.709 4.51416 108.837 4.45803 108.951 4.41117C108.921 4.42074 108.657 4.62848 108.481 4.82125C106.93 6.56956 105.757 8.8355 104.579 11.3187C103.906 12.7655 103.256 14.3992 102.468 16.2825C102.131 17.0821 101.77 17.9263 101.335 18.8255C100.854 19.815 100.347 20.8726 99.8021 22.009C99.5292 22.5781 99.2486 23.1645 98.9512 23.778C98.8024 24.0845 98.651 24.3952 98.4899 24.7167C98.4085 24.879 98.3255 25.0427 98.2336 25.216C98.1862 25.3047 98.1417 25.3878 98.0752 25.5015C98.0425 25.5551 98.0185 25.6026 97.9256 25.7317C97.8933 25.773 97.8988 25.7736 97.802 25.8801C97.7572 25.9265 97.7018 25.984 97.592 26.0626C97.5631 26.0828 97.536 26.101 97.492 26.1268C97.4049 26.1766 97.2875 26.236 97.1081 26.2765C96.771 26.3967 96.0342 26.1847 95.7937 25.8143C95.4873 25.3919 95.5256 25.1979 95.5018 25.0629C95.4947 24.9124 95.5009 24.9075 95.5026 24.8624C95.5083 24.7886 95.5164 24.7383 95.5242 24.6935C96.0501 22.8446 96.597 21.7754 97.0986 20.1868C97.5682 18.7738 97.9548 17.4284 98.286 16.1437C99.5025 11.3358 100.549 7.3829 100.98 4.32025C100.987 4.223 100.987 4.14128 100.989 4.1614C101.01 4.17832 100.929 4.27291 101.232 4.64812C101.39 4.82826 101.681 4.94708 101.844 4.95779C102.015 4.97526 102.094 4.95219 102.142 4.94207C102.295 4.8917 102.166 4.93126 102.095 4.98293C101.92 5.09337 101.701 5.26329 101.49 5.43745C98.8498 7.71394 96.7558 10.201 94.7182 13.1655C93.7879 14.5397 92.8666 16.0545 91.9127 17.7604C91.0588 19.2969 90.1161 21.0503 89.4821 22.4517C89.4855 22.4429 89.4916 22.4272 89.5022 22.3911C89.5074 22.3727 89.5139 22.3491 89.5213 22.314C89.53 22.268 89.544 22.2062 89.5454 22.0796C89.5354 21.956 89.5666 21.7333 89.3029 21.3526C89.1709 21.1706 88.9277 20.9851 88.6622 20.9144C88.4006 20.8419 88.1842 20.8703 88.0426 20.9052C87.7588 20.9841 87.674 21.0685 87.6028 21.1168C87.5324 21.172 87.5171 21.1901 87.5066 21.1994C87.4944 21.2111 87.4846 21.2211 87.4762 21.2297C87.4434 21.264 87.431 21.2799 87.4231 21.2894C87.4053 21.3117 87.4214 21.2903 87.4321 21.2735C87.4589 21.2329 87.4937 21.1777 87.5269 21.1238C87.5955 21.0124 87.6686 20.8893 87.7385 20.7696C87.8808 20.5259 88.0226 20.2756 88.1622 20.0248C88.4422 19.5217 88.7147 19.0152 88.9809 18.5064C89.5108 17.4918 90.0162 16.4722 90.4594 15.4708C91.8481 12.2998 93.1602 9.26043 93.7323 6.57496C93.7637 6.42656 93.7934 6.27648 93.8209 6.12592C93.9303 5.52418 94.0347 4.91429 94.0651 4.37336C94.0842 4.11965 94.0545 3.82611 94.0486 3.8369C94.0527 3.84546 94.0615 3.88756 94.1283 3.97978C94.1893 4.06824 94.3522 4.21421 94.538 4.27377C94.9337 4.38213 95.0045 4.26953 94.9766 4.29686C94.1502 4.76176 92.7821 6.31467 91.7199 7.60794C90.6467 8.9188 89.6013 10.3115 88.5877 11.7282C86.9208 14.0622 85.3351 16.4638 83.8897 18.758C82.9034 20.3266 82.0212 21.7701 81.2572 23.1076C80.8986 23.7371 80.5654 24.3467 80.2573 24.9391C80.1028 25.2367 79.954 25.5296 79.8216 25.8062C79.8142 25.8218 79.8064 25.8383 79.7996 25.8526C79.7967 25.8588 79.7939 25.8646 79.7925 25.8673C79.7922 25.8677 79.7927 25.8663 79.7957 25.858C79.7957 25.8573 79.7982 25.8544 79.8156 25.8015C79.8204 25.7862 79.8266 25.7676 79.8369 25.7256C79.842 25.6685 79.88 25.6636 79.8601 25.3444C79.8477 25.2562 79.8334 25.1302 79.7276 24.9352C79.6316 24.7449 79.3505 24.4686 79.0088 24.4029C78.6733 24.3333 78.4373 24.4235 78.3083 24.4826C78.1756 24.5469 78.1107 24.6022 78.0617 24.6432C77.8929 24.7987 77.8851 24.8444 77.8712 24.8576C77.8053 24.9598 77.8141 24.9547 77.8046 24.9709C77.7884 25.0066 77.8224 24.9364 77.8343 24.9113C77.8672 24.8423 77.9013 24.7689 77.9324 24.7017C77.9982 24.559 78.0646 24.4121 78.1282 24.2703C78.2978 23.8915 78.4618 23.5157 78.6207 23.1465C78.7731 22.7926 78.9215 22.4429 79.0689 22.0923C80.117 19.412 81.1414 16.7106 82.1564 14.0095C82.3088 13.568 82.4684 13.1024 82.6341 12.6177C83.093 11.2747 83.6078 9.76386 84.1853 8.05942C84.4209 7.36104 84.6676 6.63865 84.8968 5.90095C84.9548 5.71275 85.0075 5.53554 85.0554 5.35763C85.1012 5.19221 85.145 4.98218 85.1408 4.96708C85.1447 4.98353 85.1166 4.96993 85.1624 5.21782C85.1921 5.31033 85.2484 5.67514 85.7362 5.96389C86.2798 6.22936 86.5723 6.07125 86.6817 6.04769C86.9121 5.95463 86.8879 5.93918 86.9029 5.93599C86.9063 5.93406 86.8905 5.94803 86.8692 5.96935C86.7818 6.05618 86.647 6.2099 86.5216 6.3604C86.3184 6.60418 86.1143 6.86276 85.909 7.12563C84.767 8.63337 83.668 10.2831 82.5386 11.8203C81.9712 12.5956 81.4014 13.3578 80.7704 14.1164C80.4516 14.4957 80.1305 14.8692 79.7153 15.2605C79.4917 15.4557 79.3165 15.6556 78.8073 15.9062C78.699 15.9557 78.4671 16.046 78.2052 16.0629C77.8832 16.0966 77.3941 15.9757 77.0831 15.6736C76.7615 15.355 76.7102 15.1519 76.6379 14.9385C76.5929 14.7819 76.5729 14.6419 76.5624 14.5085C76.456 12.6328 76.7253 10.9956 76.9576 9.32606C77.1008 8.35124 77.2594 7.37764 77.3861 6.41726C77.4483 5.93896 77.5038 5.45685 77.5257 5.01465C77.5366 4.79317 77.5373 4.58267 77.5225 4.42922C77.5166 4.35685 77.501 4.29815 77.5089 4.32265C77.5157 4.3373 77.5243 4.37317 77.5872 4.46129C77.6455 4.54364 77.7878 4.68648 77.9912 4.75955C78.211 4.84179 78.4165 4.81787 78.5082 4.7936C78.6065 4.76805 78.637 4.74612 78.6476 4.7407C78.6651 4.72837 78.613 4.7622 78.5598 4.81074C78.4457 4.91219 78.3032 5.06697 78.1625 5.23453C77.8793 5.57233 77.5917 5.96528 77.3107 6.36744C76.7467 7.17733 76.1899 8.05275 75.633 8.95579C75.2453 9.58547 74.8488 10.2417 74.4472 10.9091C73.6306 12.2658 72.7692 13.7132 71.8613 15.2001C71.4043 15.9473 70.9437 16.6937 70.4481 17.4598C70.2005 17.8413 69.9512 18.219 69.6719 18.6108C69.5265 18.8127 69.3951 18.9942 69.2006 19.2248C69.0984 19.3386 69.0261 19.4429 68.7712 19.645C68.7285 19.6765 68.5861 19.7857 68.3793 19.8612C68.3231 19.8814 68.2697 19.8987 68.1848 19.9164C68.0677 19.9402 67.9206 19.9544 67.7492 19.9318C67.407 19.9104 66.9837 19.5934 66.8816 19.4182C66.5943 18.9971 66.635 18.7342 66.6197 18.6598C66.6146 18.5465 66.6208 18.4582 66.6294 18.3768C66.6849 17.8404 66.7489 17.3051 66.8176 16.772C67.0775 14.7662 67.398 12.7964 67.6927 10.9084C67.8398 9.96479 67.9826 9.0409 68.098 8.15899C68.1553 7.71738 68.2062 7.28397 68.2355 6.88714C68.2499 6.69209 68.2584 6.49564 68.2544 6.35974C68.2539 6.29733 68.2426 6.23178 68.2517 6.28575C68.2687 6.32404 68.2412 6.37399 68.424 6.64605C68.4812 6.73964 68.7743 7.03556 69.1313 7.10453C69.4734 7.18141 69.7455 7.09949 69.8961 7.03111C68.8527 7.59766 67.6648 8.95068 66.924 9.99005C66.5559 10.5027 66.2325 11.002 65.9377 11.4971C65.5332 12.1794 65.1479 12.8251 64.7696 13.4693C64.7666 13.4743 64.7635 13.4793 64.7605 13.4843C64.7151 13.5616 64.6699 13.639 64.6251 13.7155C63.9076 15.0688 63.2118 16.4301 62.5404 17.805C62.2065 18.4891 61.8765 19.181 61.5589 19.8703C61.4004 20.2144 61.2443 20.5591 61.0921 20.9052C61.0173 21.0755 60.9415 21.2508 60.8721 21.4161C60.8348 21.5049 60.8009 21.5872 60.7705 21.6636C60.7541 21.7049 60.7405 21.74 60.7282 21.7732C60.7221 21.7896 60.7184 21.8002 60.7173 21.8039C60.7172 21.8043 60.7189 21.7998 60.7239 21.7827C60.725 21.7775 60.7355 21.7484 60.7495 21.6712C60.756 21.6288 60.7672 21.5759 60.767 21.4511C60.7642 21.4006 60.7731 21.4442 60.753 21.2805C60.7371 21.1868 60.7135 21.0577 60.6149 20.8742C60.5214 20.6964 60.3051 20.4447 59.9908 20.323C59.6782 20.197 59.3719 20.23 59.1934 20.2836C59.0083 20.3388 58.9071 20.405 58.8333 20.4546C58.6912 20.5562 58.6471 20.614 58.6081 20.6562C58.997 20.0616 59.6041 18.582 60.0298 17.438C61.0798 14.5912 62.0389 11.6458 62.8934 8.72501C63.0949 8.02545 63.2885 7.32663 63.4481 6.64701C63.5275 6.30655 63.5981 5.97094 63.6414 5.67054C63.6628 5.5234 63.6755 5.3792 63.6746 5.30429C63.6758 5.27154 63.6662 5.24795 63.6821 5.32821C63.6943 5.37285 63.7051 5.44374 63.7949 5.59448C63.8737 5.73537 64.1155 5.98576 64.4206 6.07113C64.9118 6.19492 65.0901 6.04839 65.1517 6.03345C65.2169 6.0008 65.21 5.99925 65.1972 6.01092C65.1648 6.03628 65.087 6.10932 65.0112 6.19089C64.8549 6.358 64.6805 6.57256 64.5126 6.79149C64.1738 7.23397 63.8386 7.71773 63.5106 8.2069C63.0414 8.92439 62.5742 9.67727 62.1234 10.42C62.0917 10.4722 62.0598 10.5249 62.0276 10.5781C59.8564 14.1907 57.8332 17.7844 56.5294 20.1474C56.028 21.0574 55.2475 22.4442 54.2455 24.1539C54.042 24.4995 53.8331 24.852 53.5993 25.2319C53.4865 25.4149 53.3615 25.6149 53.2236 25.8221C53.1574 25.9215 53.0798 26.0358 52.9837 26.1642C52.9308 26.2338 52.8873 26.2924 52.7907 26.4017C52.748 26.4489 52.6912 26.5121 52.5905 26.6012C52.5467 26.6389 52.4711 26.7056 52.3375 26.7894C52.2662 26.8325 52.2076 26.8683 52.0717 26.9254C51.9072 26.9915 51.6716 27.0656 51.3438 27.0535C51.0658 27.0638 50.4895 26.8626 50.2227 26.5684C49.9129 26.2442 49.8784 26.0869 49.8113 25.932C49.7562 25.7815 49.733 25.6607 49.7192 25.5667C49.7098 25.5012 49.7051 25.4449 49.7025 25.3945C49.6949 25.1796 49.7073 25.1181 49.7159 25.0268C49.7337 24.878 49.7535 24.7843 49.7709 24.7003C49.8071 24.5316 49.8411 24.4028 49.8768 24.271C49.9462 24.017 50.0185 23.778 50.0897 23.5468C50.2344 23.0789 50.384 22.6179 50.538 22.1456C51.3443 19.6794 52.2498 16.9823 53.1365 14.2326C53.657 12.6152 54.1792 10.9716 54.6374 9.37598C54.853 8.62017 55.0535 7.87616 55.2113 7.16358C55.2881 6.81482 55.3555 6.46262 55.3877 6.18436C55.4044 6.0516 55.4067 5.91589 55.4037 5.93256C55.4135 5.95486 55.3712 5.98325 55.5146 6.33036C55.5933 6.49691 55.7872 6.84906 56.2631 7.0932C56.7429 7.33485 57.1934 7.27703 57.3865 7.22794C57.8224 7.09951 57.8248 7.02208 57.8555 7.01441C57.8703 7.0026 57.8405 7.03027 57.8057 7.0705C57.7336 7.15187 57.6296 7.28519 57.5295 7.42413C57.3246 7.70819 57.1148 8.03211 56.9091 8.36231C56.5011 9.01937 56.1087 9.702 55.7403 10.3573C55.6164 10.5779 55.4943 10.7958 55.3695 11.0182C54.2826 12.9616 53.2045 14.8487 52.0944 16.7778C51.0455 18.5987 49.982 20.4656 48.8137 22.5097C48.6916 22.7222 48.5718 22.9301 48.4474 23.1442C48.1157 23.7105 47.787 24.2873 47.3389 24.9536C47.2121 25.1313 47.127 25.2803 46.8349 25.5924C46.724 25.6866 46.7093 25.7769 46.229 26.0312C46.0519 26.1035 45.9187 26.1876 45.4621 26.2054C44.9957 26.2353 44.3388 25.9183 44.0769 25.5625C43.9338 25.3943 43.8346 25.1966 43.7944 25.0972C43.7522 24.9957 43.7248 24.9058 43.705 24.826C43.6656 24.6644 43.6572 24.5484 43.6525 24.4829C43.6392 24.1697 43.6653 24.0814 43.678 23.9708C43.693 23.8708 43.7093 23.7909 43.7244 23.7213C43.8466 23.1941 43.9652 22.8644 44.0942 22.4791C44.1042 22.4498 44.1144 22.4202 44.1248 22.3902C44.5842 21.0781 45.0903 19.7881 45.6299 18.4209C46.0928 17.2306 47.2004 14.6824 48.4622 11.4371C48.539 11.2363 48.6147 11.0356 48.6893 10.8348C48.9385 10.1616 49.1858 9.4645 49.3944 8.7653C49.4962 8.42273 49.5901 8.06848 49.6433 7.77844C49.6703 7.63877 49.6826 7.49863 49.6824 7.48997C49.6878 7.49321 49.6678 7.51912 49.7419 7.74195C49.7862 7.85639 49.8595 8.03926 50.0828 8.26216C50.2993 8.48578 50.6748 8.65156 50.9359 8.67635C51.5494 8.71032 51.5519 8.58327 51.5839 8.59239C51.5952 8.58445 51.5436 8.61318 51.486 8.65513C51.3655 8.74136 51.2027 8.88021 51.0409 9.03179C50.7128 9.33904 50.3692 9.7057 50.0303 10.0889C49.7296 10.4377 49.4326 10.8005 49.14 11.1705C47.6086 13.1108 46.2144 15.2026 44.9185 17.3553C44.4648 18.1102 44.0195 18.879 43.5704 19.6577C43.346 20.0466 43.1204 20.439 42.8874 20.8365C42.7703 21.036 42.6517 21.2367 42.5207 21.4495C42.4561 21.5539 42.3867 21.6652 42.3009 21.7929C42.2566 21.858 42.2148 21.921 42.1281 22.0326C42.0836 22.0858 42.0487 22.1431 41.8805 22.3032C41.8272 22.3518 41.7614 22.4094 41.6557 22.4813C41.5637 22.5208 41.2485 22.8392 40.4454 22.7813C39.9895 22.7633 39.3501 22.3494 39.1501 21.9846C39.0346 21.8108 38.9646 21.6233 38.9382 21.5357C38.9161 21.4649 38.9009 21.4017 38.8897 21.3449C38.8473 21.1185 38.8539 20.9868 38.858 20.8826C38.8855 20.5521 38.9147 20.5128 38.9344 20.4183C38.9531 20.3464 38.9722 20.2823 38.9875 20.2322C39.0211 20.1233 39.0502 20.0374 39.0789 19.954C39.1366 19.787 39.1951 19.6274 39.2501 19.4795C39.3641 19.1735 39.475 18.8858 39.5878 18.5947C39.8127 18.0149 40.0374 17.4436 40.2597 16.8733C40.7046 15.7329 41.1416 14.597 41.5569 13.4614C41.6333 13.2526 41.709 13.0435 41.7839 12.8347C42.2695 11.3643 42.6373 10.0776 42.8571 9.0724C43.0111 8.36246 43.1152 7.71244 43.119 7.26032C43.1186 7.18584 43.112 7.12336 43.0998 7.12244C43.0943 7.12508 43.0852 7.1385 43.0856 7.22321C43.1001 7.30753 43.0486 7.43489 43.2945 7.93917C43.4065 8.13986 43.5496 8.35607 43.8578 8.59744C44.1549 8.82985 44.5501 8.98046 44.8834 9.019C45.2183 9.05869 45.4383 9.02234 45.6161 8.98384C45.7676 8.94959 45.8875 8.90378 45.9644 8.87089C46.262 8.73323 46.2636 8.70665 46.2929 8.70024C46.3189 8.69714 46.2423 8.79427 46.1686 8.90623C46.0103 9.13949 45.8035 9.46301 45.5737 9.83706C45.0829 10.6335 44.4787 11.6402 44.0484 12.3003C43.8466 12.6097 43.6842 12.8397 43.535 13.0527C43.5313 13.0581 43.5276 13.0634 43.5239 13.0687C43.3591 13.3039 43.2102 13.5199 43.0512 13.7931C42.9336 13.9956 42.8248 14.2139 42.6917 14.4826C42.4788 14.9127 42.2029 15.473 41.738 16.3046C40.6457 18.2557 39.492 20.3906 38.2654 22.6077C38.0866 22.929 37.9085 23.2472 37.7145 23.5831C37.6169 23.7514 37.52 23.9179 37.3952 24.1187C37.3295 24.2215 37.2788 24.3112 37.1192 24.5275C37.0795 24.5785 37.0184 24.6653 36.8704 24.8191C36.813 24.8775 36.7423 24.947 36.6301 25.0372C36.5736 25.0823 36.5063 25.1328 36.4188 25.1894C36.3432 25.2369 36.0662 25.419 35.6501 25.5202C35.2374 25.6274 34.4964 25.6604 33.8021 25.2517C33.1031 24.8414 32.8069 24.2339 32.6921 23.8866C32.6318 23.7083 32.6006 23.5382 32.5882 23.45C32.5792 23.388 32.5733 23.3323 32.5694 23.2815C32.5616 23.18 32.5609 23.0978 32.5623 23.0272C32.574 22.7309 32.5952 22.677 32.6079 22.5925C32.6218 22.5177 32.6387 22.4467 32.6463 22.4163C32.6646 22.3423 32.6868 22.2666 32.6981 22.2294C33.0588 21.1772 33.3034 20.6857 33.6031 19.9679C33.6186 19.9317 33.6344 19.8952 33.6503 19.8582C35.4342 15.7472 37.2094 11.8031 38.5312 8.64531C38.6308 8.407 38.7363 8.15432 38.8388 7.90666C39.0659 7.35668 39.3054 6.77583 39.5073 6.22827C39.5566 6.09391 39.6019 5.96441 39.635 5.85968C39.6512 5.80881 39.664 5.76392 39.6683 5.74768C39.6733 5.73982 39.6659 5.71793 39.6485 5.91609C39.662 6.05617 39.5617 6.13662 39.8057 6.86411C39.9039 7.17297 40.4005 7.93914 41.175 8.20685C41.9013 8.46447 42.347 8.33999 42.5741 8.29382C43.0272 8.16614 43.0834 8.08914 43.1638 8.04905C43.2275 8.00858 43.2445 7.99379 43.2526 7.98761C43.2669 7.9733 43.1535 8.07019 43.0544 8.16541C41.4486 9.72332 39.691 12.0339 38.1171 14.4028C37.8388 14.8224 37.5615 15.2508 37.2854 15.6836C36.5628 16.816 35.8509 17.9746 35.136 19.1265C34.7775 19.7033 34.4224 20.2737 34.0441 20.8577C33.8546 21.1495 33.6639 21.439 33.4427 21.7519C33.3361 21.9016 33.2115 22.0742 33.0553 22.2658C32.9639 22.3759 32.8775 22.4824 32.7015 22.6533C32.6611 22.6921 32.5876 22.7598 32.5109 22.8216C32.4256 22.8878 32.3614 22.9463 32.1368 23.0758C31.8934 23.1726 31.7639 23.3887 30.7839 23.3758C29.7981 23.3514 28.936 22.4039 28.8015 21.9124C28.6014 21.3796 28.6333 21.1075 28.6245 20.9818C28.624 20.8279 28.635 20.7107 28.6427 20.6367C28.6616 20.4645 28.6817 20.3574 28.7026 20.2486C28.7433 20.0444 28.7831 19.8873 28.8245 19.7303C28.9048 19.4293 28.9855 19.1647 29.0682 18.9012C29.2301 18.3883 29.3949 17.9055 29.5568 17.4387C30.3229 15.2411 31.1415 13.0397 31.8868 10.8806C32.0455 10.4184 32.1978 9.96656 32.3268 9.54182C32.3899 9.3337 32.447 9.12998 32.4812 8.97831C32.4979 8.906 32.5079 8.84175 32.5052 8.84943C32.5042 8.85728 32.4981 8.87561 32.4968 8.97708C32.5123 9.07888 32.4455 9.23497 32.703 9.81872C32.8273 10.0689 33.0422 10.3882 33.436 10.6564C33.8257 10.9215 34.2492 11.016 34.5494 11.0288C35.114 11.0392 35.2878 10.9255 35.4107 10.8866C35.6309 10.7892 35.613 10.7804 35.6149 10.785C35.5923 10.8022 35.4847 10.8919 35.38 10.9897C35.1627 11.1906 34.9099 11.4462 34.664 11.7018C32.6341 13.8451 30.687 16.1004 28.9527 17.9857C28.5141 18.4649 27.934 19.026 27.2013 19.7338C26.6968 20.2205 26.115 20.7834 25.458 21.4277C25.4403 21.4451 25.4226 21.4625 25.405 21.4798C24.9321 22.0041 24.4544 22.532 23.9637 23.06C23.7146 23.3273 23.4656 23.5923 23.1886 23.8711C23.0477 24.012 22.9032 24.1555 22.7087 24.3273C22.6042 24.417 22.5072 24.5065 22.284 24.6572C22.1514 24.7325 22.0656 24.8351 21.5634 24.9843C21.3003 25.0379 20.7723 25.1926 19.9945 24.7759C19.256 24.3255 19.105 23.7604 19.0277 23.5176C18.8865 22.8818 18.9656 22.7868 18.969 22.6183C18.9837 22.4976 19.0048 22.3899 19.0195 22.3206C19.0546 22.1584 19.0852 22.0488 19.1148 21.9438C19.1768 21.7282 19.2339 21.5541 19.2939 21.3752C19.4112 21.0269 19.5291 20.7009 19.6474 20.3773C19.8847 19.7298 20.1219 19.1013 20.356 18.4767C20.8272 17.2217 21.2906 15.976 21.7412 14.7253C21.781 14.5893 21.8225 14.4476 21.8643 14.3042C21.8649 14.3019 21.8655 14.2997 21.8661 14.2975C22.0564 13.6424 22.2575 12.9383 22.4731 12.1799C22.6984 11.3929 22.9573 10.5478 23.2611 9.65217C23.4118 9.20656 23.5767 8.74314 23.742 8.28531C23.824 8.05744 23.9064 7.82954 23.9728 7.63119C24.0391 7.44327 24.0869 7.23127 24.0591 7.33167C24.0544 7.36025 24.0479 7.40201 24.0421 7.47179C24.0391 7.50859 24.0347 7.57744 24.0357 7.6622C24.0412 7.76219 24.0274 7.81046 24.0896 8.12234C24.1218 8.26441 24.1727 8.44369 24.2848 8.66651C24.3427 8.80634 24.7005 9.3725 25.2236 9.64682C26.5135 10.2398 26.9787 9.84169 27.324 9.74723C27.618 9.60794 27.6537 9.56485 27.7531 9.49675C27.8371 9.43397 27.88 9.39501 27.9077 9.37054C28.1154 9.17247 28.0504 9.22355 28.0546 9.22677C28.0284 9.26246 27.9621 9.35392 27.9002 9.44126C27.7704 9.62378 27.6242 9.83106 27.4769 10.0365C27.1814 10.4492 26.8649 10.8788 26.5321 11.3132C25.8708 12.1772 25.1381 13.0718 24.3422 13.9789C24.2631 14.0692 24.1814 14.1614 24.1004 14.2516C22.9313 15.5411 22.1514 16.2334 21.4558 16.8739C20.7729 17.4972 20.1609 18.0451 19.3463 18.8938C18.7429 19.5259 18.0813 20.2577 17.4983 21.0177C17.1596 21.4594 16.8098 21.9214 16.4507 22.3973C16.0126 22.9778 15.5561 23.5864 15.0787 24.2095C14.8391 24.5216 14.5932 24.8396 14.3239 25.172C14.188 25.3389 14.0501 25.5067 13.8737 25.7034C13.7863 25.7994 13.6913 25.9057 13.5252 26.0595C13.4294 26.14 13.3707 26.2203 13.029 26.4281C12.9475 26.4749 12.7872 26.5616 12.5736 26.6296C12.337 26.6858 11.8937 26.8803 11.0525 26.5704C10.6523 26.4199 10.2506 26.0467 10.0987 25.8147C9.91506 25.5569 9.82215 25.3172 9.76723 25.1251C9.68324 24.8124 9.68371 24.6497 9.68073 24.4937C9.74504 22.7923 10.1204 21.798 10.4805 20.6377C10.5448 20.4455 10.614 20.2449 10.6875 20.0364C10.9778 19.2133 11.3482 18.2512 11.7798 17.2201C12.3808 15.7862 13.0807 14.2021 13.8028 12.6362C14.6427 10.5874 15.4944 8.5407 16.3217 6.50856C16.8552 5.17418 17.4636 3.73839 17.7876 2.59203C17.8111 2.5046 17.8325 2.41979 17.8424 2.37449C17.8471 2.35565 17.8485 2.336 17.8416 2.39563C17.8405 2.43696 17.8245 2.45872 17.8428 2.69592C17.8488 2.75491 17.8617 2.85454 17.8959 2.9789C17.9522 3.14398 17.9746 3.32249 18.2917 3.69933C18.5384 4.05242 19.3872 4.37033 19.7624 4.29061C20.2328 4.2387 20.338 4.14809 20.4952 4.07351C20.9016 3.82001 20.8533 3.79347 20.913 3.74525C20.9456 3.70824 20.953 3.69721 20.957 3.69207C20.9625 3.68405 20.949 3.70206 20.9331 3.7258C20.9008 3.77372 20.8558 3.84549 20.8102 3.92101C19.7602 5.76343 18.5653 7.83663 17.3023 9.72268C15.9365 11.772 14.4902 13.6747 13.1266 15.5859C12.5055 16.4574 11.8968 17.3286 11.3685 18.1865C10.8726 18.9946 10.4185 19.8171 10.0019 20.6671C9.7934 21.0918 9.59635 21.5203 9.39765 21.9676C9.29715 22.1929 9.19957 22.4174 9.07987 22.6766C9.01836 22.8079 8.95775 22.9394 8.85531 23.1252C8.79784 23.2254 8.74692 23.3216 8.61003 23.5017C8.54341 23.5839 8.45994 23.6977 8.25004 23.8661C8.07985 24 7.60438 24.3254 6.9142 24.2456C6.56737 24.2166 6.16425 23.9967 6.00751 23.8488C5.82427 23.6964 5.687 23.4933 5.64379 23.4169C5.52254 23.2079 5.48862 23.0779 5.46342 22.9941C5.41377 22.8069 5.41194 22.7388 5.40387 22.6722C5.392 22.5403 5.39423 22.478 5.39459 22.4231C5.39688 22.3116 5.40309 22.2434 5.40893 22.1783C5.42101 22.0518 5.43469 21.9532 5.4488 21.8564C5.4766 21.6689 5.50677 21.4984 5.53767 21.331C5.59966 20.9975 5.66565 20.6776 5.73288 20.3615C5.8683 19.7268 6.00932 19.1089 6.15494 18.4844C7.11638 14.4004 8.1498 10.3513 9.09744 6.3204C9.26321 5.60097 9.44575 4.8283 9.53946 4.22847C9.54906 4.16497 9.55615 4.09626 9.55668 4.08827C9.55792 4.08708 9.55339 4.095 9.56308 4.19359C9.57825 4.2723 9.55827 4.30475 9.6728 4.59142C9.70235 4.65806 9.74116 4.73385 9.79887 4.82008C9.87571 4.93462 9.98757 5.06737 10.1467 5.18774C10.4494 5.4403 11.0067 5.55196 11.3284 5.47978C11.5939 5.43297 11.7417 5.35196 11.8497 5.28967C11.9282 5.24238 11.9786 5.20337 12.018 5.17103C12.0945 5.10617 12.1083 5.08755 12.1291 5.06564C12.1575 5.03337 12.153 5.03591 12.1457 5.04589C12.1277 5.06927 12.091 5.12282 12.0511 5.18558C11.8924 5.43623 11.712 5.75994 11.5367 6.08074C9.84542 9.23488 8.23816 12.5363 6.55612 15.7967C6.1292 16.5933 5.83931 17.2527 5.14964 18.2358C5.10236 18.2966 5.04855 18.365 4.95982 18.4588C4.91159 18.5087 4.86433 18.5576 4.7683 18.6363C4.72213 18.6731 4.67316 18.7119 4.57974 18.7696C4.48532 18.824 4.40292 18.8786 4.17394 18.9471C4.06461 18.977 3.94941 19.0002 3.78765 19.0045C3.61161 19.0088 3.40759 18.9797 3.21561 18.907C2.83133 18.7699 2.55616 18.4551 2.45985 18.2932C2.24053 17.9195 2.25196 17.7828 2.22254 17.652C2.19144 17.4269 2.20113 17.3199 2.20358 17.2288C2.22582 16.8733 2.26871 16.6914 2.30868 16.4783C3.18568 12.1085 4.60914 8.04305 5.25189 4.61052C5.27126 4.4996 5.28668 4.38182 5.29134 4.35428C5.29286 4.35019 5.29299 4.35252 5.29733 4.38654C5.31099 4.42978 5.2806 4.46284 5.41412 4.73974C5.47974 4.86595 5.68739 5.16697 6.0924 5.28554C6.49157 5.39351 6.73371 5.28694 6.84591 5.24397C7.07063 5.13725 7.07651 5.09847 7.10649 5.0765C7.15628 5.0159 7.04459 5.13372 6.98185 5.21451C6.90881 5.30495 6.83063 5.40771 6.75164 5.51288C6.5928 5.72432 6.43158 5.9458 6.2519 6.17765C5.65523 6.94443 5.09688 7.81087 4.58603 8.5932C1.91005 12.7672 0.461724 15.1842 0.090474 15.027C-0.280156 14.866 0.470115 12.088 2.67315 7.51385C3.10624 6.63782 3.55797 5.72519 4.20028 4.71744C4.32509 4.52077 4.46257 4.29257 4.61309 4.05143C4.68912 3.92992 4.76826 3.80475 4.8612 3.66742C4.96833 3.52 5.01527 3.41254 5.30394 3.12179C5.39532 3.04565 5.45968 2.95005 5.80655 2.78813C5.9793 2.72081 6.31796 2.57969 6.84941 2.72448C7.38822 2.88215 7.67219 3.28593 7.77048 3.47472C7.97005 3.885 7.94232 3.99899 7.96675 4.12571C7.97888 4.24104 7.98015 4.31715 7.98093 4.38548C7.9805 4.64521 7.96394 4.79231 7.95057 4.94927C7.49349 8.94668 6.26217 12.9176 5.50508 17.0952C5.47915 17.2293 5.45916 17.3996 5.46437 17.371C5.46337 17.3534 5.47388 17.3331 5.45096 17.1591C5.424 17.0538 5.44808 16.9375 5.21242 16.5339C5.10922 16.3599 4.80103 16.0043 4.36409 15.8482C4.14622 15.7656 3.91483 15.7329 3.71778 15.7378C3.53672 15.7426 3.40977 15.7685 3.2915 15.8008C3.04473 15.8747 2.9644 15.9304 2.87368 15.9821C2.78531 16.0368 2.74495 16.0694 2.70845 16.0984C2.63414 16.1594 2.60999 16.1862 2.58784 16.2086C2.54967 16.2491 2.54908 16.2523 2.55125 16.2485C2.80097 15.8893 3.25847 15.0046 3.61327 14.2972C5.23543 11.0558 6.78364 7.76705 8.50793 4.45331C8.69702 4.09879 8.87704 3.75862 9.12457 3.35443C9.19257 3.24536 9.25727 3.14282 9.35998 3.00096C9.41007 2.93274 9.47339 2.84787 9.57212 2.73839C9.637 2.66876 9.68059 2.61872 9.81586 2.50443C9.88378 2.44856 9.96316 2.38817 10.0754 2.32067C10.2293 2.23141 10.4272 2.12614 10.7638 2.06698C11.1724 1.97681 11.8566 2.11517 12.234 2.42876C12.4321 2.57865 12.5735 2.74555 12.6726 2.89331C12.747 3.00448 12.7984 3.10442 12.8385 3.19494C12.9967 3.58974 12.9783 3.66506 13.0037 3.8193C13.0253 4.03108 13.0191 4.14534 13.0155 4.25247C13.0065 4.44081 12.9888 4.58086 12.9733 4.70027C12.8362 5.63353 12.6689 6.32734 12.5051 7.09175C11.5931 11.1939 10.6084 15.2539 9.70761 19.2921C9.5725 19.9035 9.44244 20.5064 9.32202 21.1049C9.26245 21.4017 9.20484 21.6996 9.15587 21.9816C9.13163 22.1216 9.10916 22.2606 9.09363 22.376C9.08582 22.4334 9.07979 22.4879 9.0784 22.5094C9.07762 22.518 9.07868 22.5235 9.07991 22.4787C9.07975 22.4544 9.08265 22.4255 9.0729 22.3146C9.06549 22.2569 9.06598 22.198 9.01391 22.0011C8.98707 21.9126 8.95134 21.7716 8.81454 21.5355C8.76588 21.4496 8.60981 21.218 8.39893 21.0425C8.21891 20.8726 7.75301 20.6182 7.35212 20.5846C6.89447 20.5264 6.47733 20.6623 6.24938 20.7862C6.02097 20.9084 5.90963 21.0152 5.83787 21.0825C5.695 21.2249 5.66886 21.2772 5.64489 21.309C5.58599 21.4016 5.65772 21.2746 5.69946 21.1739C5.74856 21.0631 5.80357 20.9331 5.86117 20.7966C5.97594 20.5241 6.09915 20.2311 6.22524 19.9422C6.78563 18.6512 7.42125 17.3954 8.10885 16.2127C9.78415 13.4062 11.521 11.0855 13.0802 8.67317C13.3445 8.26713 13.6032 7.86161 13.8519 7.4581C14.0866 7.07779 14.3178 6.69489 14.5454 6.31Z" fill="#9D6A4F" fill-opacity="0.6"/>
</svg>
